<?xml version="1.0" encoding="utf-8"?>
<!-- Generator: Adobe Illustrator 25.0.0, SVG Export Plug-In . SVG Version: 6.00 Build 0)  -->
<svg version="1.1" id="Layer_1" xmlns="http://www.w3.org/2000/svg" xmlns:xlink="http://www.w3.org/1999/xlink" x="0px" y="0px"
	 viewBox="0 0 411 91" style="enable-background:new 0 0 411 91;" xml:space="preserve">
<style type="text/css">
	.st0{fill:#FFFFFF;}
	.st1{fill:#E9253C;}
	.st2{fill:#E5B733;}
	.st3{fill:#4B9F45;}
	.st4{fill:#C5212F;}
	.st5{fill:#EF412C;}
	.st6{fill:#28BDE2;}
	.st7{fill:#F9C416;}
	.st8{fill:#A21C44;}
	.st9{fill:#F36A2C;}
	.st10{fill:#DD1768;}
	.st11{fill:#F99F27;}
	.st12{fill:#C7982D;}
	.st13{fill:#427F44;}
	.st14{fill:#1A96D4;}
	.st15{fill:#5FBB46;}
	.st16{fill:#03699D;}
	.st17{fill:#1A496B;}
</style>
<g>
	<g>
		<g>
			<path class="st0" d="M159.4,31.2l1.7-2.1c1.4,1.7,3.9,3.2,7,3.2c4,0,5.3-2.1,5.3-3.9c0-5.8-13.2-2.5-13.2-10.5
				c0-3.7,3.3-6.2,7.7-6.2c3.4,0,6,1.2,7.9,3.1l-1.7,2c-1.7-1.9-4-2.7-6.5-2.7c-2.6,0-4.6,1.4-4.6,3.6c0,5,13.2,2.1,13.2,10.5
				c0,3.2-2.2,6.6-8.2,6.6C164.1,34.7,161.2,33.2,159.4,31.2z"/>
		</g>
		<g>
			<path class="st0" d="M180.4,25.6V12h2.8v13.6c0,4.1,2.2,6.7,6.3,6.7s6.3-2.6,6.3-6.7V12h2.8v13.6c0,5.6-3.1,9.1-9.1,9.1
				C183.4,34.7,180.4,31.1,180.4,25.6z"/>
		</g>
		<g>
			<path class="st0" d="M202.5,31.2l1.7-2.1c1.4,1.7,3.9,3.2,7,3.2c4,0,5.3-2.1,5.3-3.9c0-5.8-13.2-2.5-13.2-10.5
				c0-3.7,3.3-6.2,7.7-6.2c3.4,0,6,1.2,7.9,3.1l-1.7,2c-1.7-1.9-4-2.7-6.5-2.7c-2.6,0-4.6,1.4-4.6,3.6c0,5,13.2,2.1,13.2,10.5
				c0,3.2-2.2,6.6-8.2,6.6C207.2,34.7,204.3,33.2,202.5,31.2z"/>
		</g>
		<g>
			<path class="st0" d="M228.8,34.3V14.4h-7.1V12h16.9v2.5h-7.1v19.9H228.8z"/>
		</g>
		<g>
			<path class="st0" d="M256.1,34.3l-2-5H243l-2,5h-3.2l9-22.3h3.4l9,22.3H256.1z M248.5,14.8l-4.7,12.1h9.5L248.5,14.8z"/>
		</g>
		<g>
			<path class="st0" d="M262.2,34.3V12h2.8v22.3H262.2z"/>
		</g>
		<g>
			<path class="st0" d="M286,34.3l-13-17.8v17.8h-2.8V12h2.8l12.9,17.5V12h2.8v22.3H286z"/>
		</g>
		<g>
			<path class="st0" d="M309.8,34.3l-2-5h-11.1l-2,5h-3.2l9-22.3h3.4l9,22.3H309.8z M302.3,14.8l-4.7,12.1h9.5L302.3,14.8z"/>
		</g>
		<g>
			<path class="st0" d="M315.9,34.3V12h9.9c3.9,0,6.3,2.3,6.3,5.7c0,2.8-1.9,4.7-3.9,5.1c2.4,0.4,4.4,2.8,4.4,5.5c0,3.6-2.4,6-6.5,6
				H315.9z M329.2,18.1c0-2-1.3-3.6-3.9-3.6h-6.7v7.2h6.7C327.9,21.6,329.2,20.1,329.2,18.1z M329.7,28c0-2-1.4-3.9-4.1-3.9h-6.9
				v7.7h6.9C328.1,31.8,329.7,30.4,329.7,28z"/>
		</g>
		<g>
			<path class="st0" d="M336.6,34.3V12h2.8v19.9h10.4v2.5H336.6z"/>
		</g>
		<g>
			<path class="st0" d="M353.5,34.3V12h14.6v2.5h-11.9v7.2h11.6v2.5h-11.6v7.7h11.9v2.5H353.5z"/>
		</g>
		<g>
			<path class="st0" d="M160.7,74.5V52.2h14.6v2.5h-11.9v7.2h11.6v2.5h-11.6v10.2H160.7z"/>
		</g>
		<g>
			<path class="st0" d="M179.2,74.5V52.2h2.8v22.3H179.2z"/>
		</g>
		<g>
			<path class="st0" d="M203,74.5l-13-17.8v17.8h-2.8V52.2h2.8l12.9,17.5V52.2h2.8v22.3H203z"/>
		</g>
		<g>
			<path class="st0" d="M226.9,74.5l-2-5h-11.1l-2,5h-3.2l9-22.3h3.4l9,22.3H226.9z M219.3,55l-4.7,12.1h9.5L219.3,55z"/>
		</g>
		<g>
			<path class="st0" d="M248.8,74.5l-13-17.8v17.8H233V52.2h2.8l12.9,17.5V52.2h2.8v22.3H248.8z"/>
		</g>
		<g>
			<path class="st0" d="M255.8,63.3c0-6.9,5.1-11.6,11.5-11.6c4,0,6.7,1.9,8.5,4.4l-2.3,1.3c-1.3-1.9-3.6-3.2-6.2-3.2
				c-4.9,0-8.6,3.7-8.6,9.1c0,5.3,3.7,9.1,8.6,9.1c2.5,0,4.9-1.4,6.2-3.2l2.3,1.3c-1.9,2.6-4.6,4.5-8.5,4.5
				C260.8,74.9,255.8,70.2,255.8,63.3z"/>
		</g>
		<g>
			<path class="st0" d="M279.3,74.5V52.2h14.6v2.5h-11.9v7.2h11.6v2.5h-11.6V72h11.9v2.5H279.3z"/>
		</g>
		<g>
			<path class="st0" d="M322.9,74.5V64.3h-13.1v10.2H307V52.2h2.8v9.6h13.1v-9.6h2.8v22.3H322.9z"/>
		</g>
		<g>
			<path class="st0" d="M330.9,65.8V52.2h2.8v13.6c0,4.1,2.2,6.7,6.3,6.7c4.1,0,6.3-2.6,6.3-6.7V52.2h2.8v13.6
				c0,5.6-3.1,9.1-9.1,9.1C334,74.9,330.9,71.3,330.9,65.8z"/>
		</g>
		<g>
			<path class="st0" d="M354.4,74.5V52.2h9.9c3.9,0,6.3,2.3,6.3,5.7c0,2.8-1.9,4.7-3.9,5.1c2.4,0.4,4.4,2.8,4.4,5.5
				c0,3.6-2.4,6-6.5,6H354.4z M367.7,58.3c0-2-1.3-3.6-3.9-3.6h-6.7v7.2h6.7C366.4,61.8,367.7,60.3,367.7,58.3z M368.1,68.2
				c0-2-1.4-3.9-4.1-3.9h-6.9V72h6.9C366.6,72,368.1,70.5,368.1,68.2z"/>
		</g>
	</g>
	<g>
		<rect x="60" y="4" class="st0" width="1.3" height="84.7"/>
	</g>
	<g>
		<g>
			<path class="st1" d="M110.6,25.7c1.7,0.1,3.4,0.4,5,1l5.6-14.6c-3.3-1.2-6.9-1.9-10.6-2V25.7z"/>
		</g>
		<g>
			<path class="st2" d="M117.7,27.5c1.6,0.7,3.1,1.7,4.4,2.8l10.6-11.5c-2.8-2.4-5.9-4.4-9.4-5.8L117.7,27.5z"/>
		</g>
		<g>
			<path class="st3" d="M126.9,35.9l14-7c-1.7-3.2-3.9-6.2-6.5-8.7l-10.6,11.5C125,33,126.1,34.4,126.9,35.9"/>
		</g>
		<g>
			<path class="st4" d="M141.9,31l-14,7c0.7,1.6,1.1,3.2,1.4,5l15.6-1.5C144.4,37.8,143.4,34.2,141.9,31"/>
		</g>
		<g>
			<path class="st5" d="M129.5,45.9c0,1.5-0.2,2.9-0.5,4.3l15.1,4.3c0.7-2.8,1.1-5.7,1.1-8.6c0-0.7,0-1.5-0.1-2.2l-15.6,1.5
				C129.5,45.4,129.5,45.6,129.5,45.9"/>
		</g>
		<g>
			<path class="st6" d="M128.5,52.4c-0.5,1.6-1.3,3.1-2.2,4.5l12.5,9.4c2-2.9,3.6-6.2,4.7-9.6L128.5,52.4z"/>
		</g>
		<g>
			<path class="st7" d="M124.9,58.7c-1.1,1.3-2.4,2.6-3.8,3.6l8.2,13.3c3.1-2.1,5.8-4.6,8.1-7.5L124.9,58.7z"/>
		</g>
		<g>
			<path class="st8" d="M127.5,76.8l-8.2-13.3c-1.5,0.8-3.1,1.5-4.8,1.9l2.9,15.4C121,80,124.4,78.6,127.5,76.8"/>
		</g>
		<g>
			<path class="st9" d="M112.2,65.9c-1,0.1-1.9,0.2-2.9,0.2c-0.8,0-1.6,0-2.4-0.1l-2.9,15.4c1.7,0.3,3.5,0.4,5.3,0.4
				c2,0,3.9-0.2,5.8-0.5L112.2,65.9z"/>
		</g>
		<g>
			<path class="st10" d="M104.7,65.6c-1.8-0.4-3.4-1-5-1.9L91.5,77c3.2,1.8,6.6,3.2,10.3,3.9L104.7,65.6z"/>
		</g>
		<g>
			<path class="st11" d="M93.9,59l-12.5,9.5c2.3,2.8,5.1,5.3,8.1,7.4l8.2-13.3C96.4,61.5,95.1,60.3,93.9,59"/>
		</g>
		<g>
			<path class="st12" d="M92.6,57.2c-1-1.5-1.8-3.1-2.4-4.8l-15,4.3c1.1,3.6,2.8,6.9,5,9.9L92.6,57.2z"/>
		</g>
		<g>
			<path class="st13" d="M89.1,45.9c0-0.3,0-0.6,0-0.9l-15.6-1.4c-0.1,0.8-0.1,1.6-0.1,2.3c0,3,0.4,5.9,1.1,8.7l15.1-4.3
				C89.3,48.8,89.1,47.4,89.1,45.9"/>
		</g>
		<g>
			<path class="st14" d="M89.3,42.7c0.3-1.8,0.8-3.4,1.5-5l-14-7c-1.5,3.3-2.6,6.9-3.1,10.6L89.3,42.7z"/>
		</g>
		<g>
			<path class="st15" d="M91.9,35.7c0.9-1.5,2-2.9,3.2-4.1L84.5,20c-2.6,2.5-4.9,5.5-6.7,8.7L91.9,35.7z"/>
		</g>
		<g>
			<path class="st16" d="M96.8,30c1.3-1,2.8-1.9,4.3-2.6l-5.7-14.6c-3.4,1.4-6.5,3.3-9.2,5.6L96.8,30z"/>
		</g>
		<g>
			<path class="st17" d="M103.2,26.6c1.6-0.5,3.3-0.8,5.1-0.9V10c-3.8,0.1-7.4,0.8-10.8,2L103.2,26.6z"/>
		</g>
	</g>
</g>
<g>
	<g>
		<g>
			<path class="st0" d="M28.3,18.2L28.3,18.2c-0.5,0.6-1.1,1.2-1.6,1.7c0,0.1,0.1,0.1,0.2,0.2c0-0.1,0.1-0.3,0.1-0.4
				c0.1-0.2,0.3-0.1,0.5,0c0.3-0.1,0.5,0.1,0.8,0.1c0.2,0.1,0.2,0.4,0.4,0.5c0.1,0.1,0,0.2-0.1,0.2c0.1,0.4,0.3-0.1,0.5,0
				c0.1,0,0.2,0,0.3,0.1c0,0.2,0.2,0.1,0.3,0.3c0,0.1-0.1,0.1-0.2,0.2c0.1,0.2-0.2,0.3-0.1,0.5c0.3,0.1,0.3-0.3,0.5-0.5
				c-0.1-0.3-0.1-0.6-0.3-0.8c-0.2,0-0.3-0.3-0.5-0.3c-0.4-0.1,0.1-0.4,0-0.6C28.9,18.8,28.6,18.5,28.3,18.2z"/>
			<path class="st0" d="M30.4,24.2c-0.2,0.8-0.5,1.5-1,2.2c-0.2,0.2-0.4,0.6-0.6,0.7l0.5,0.5c0,0,0-0.1,0-0.1c0-0.1,0-0.1,0.1-0.1
				c0.2,0,0.3,0.3,0.4,0.4c0,0.2,0.2,0.4,0.1,0.6c1.4-1.5,2.1-3.3,2.3-5.4l0.1-0.1c-0.5,0.1-1,0-1.6,0l-0.1,0c0,0.3-0.1,0.7-0.1,1
				l0.2,0.2c0.1,0.1,0,0.2,0,0.3C30.6,24.2,30.5,24.2,30.4,24.2z"/>
			<path class="st0" d="M28.5,29.4c0.3-0.3,0.7-0.5,1-0.8h0c-0.1,0-0.2,0-0.2,0c-0.2-0.1-0.2-0.2-0.2-0.4l-0.7-0.7l0-0.1
				c-0.1,0.1-0.2,0.2-0.3,0.3c0,0.1,0,0.2,0.1,0.3c0.2,0.1,0.5,0.2,0.6,0.5c-0.1,0.2-0.6,0.5-0.3,0.7c0.1,0.1-0.1,0.2-0.1,0.3
				L28.5,29.4z"/>
			<path class="st0" d="M24.4,26.6c0.1,0,0,0.2,0.2,0.2c0.2-0.1,0.4,0.2,0.6,0c0-0.3,0.3-0.2,0.4-0.3c0.3-0.2,0.5-0.4,0.5-0.7l0-0.1
				c-0.2,0-0.3,0.1-0.4,0.2c-0.2,0.1-0.2-0.2-0.4-0.1c0,0,0,0,0.1,0.1c0,0,0,0.1,0,0.2c-0.2,0.2-0.3-0.1-0.5-0.1v0.1
				c0,0,0,0.1-0.1,0.1c-0.1-0.2-0.3-0.1-0.5-0.3c-0.1,0-0.1,0-0.2,0.1c0,0.1-0.2,0-0.2,0.1c-0.1,0.1-0.2,0.2-0.3,0.3
				c-0.2,0-0.3,0.2-0.4,0.2c0,0,0,0.1,0.1,0.1c0.1,0,0.2,0.1,0.3,0C23.9,26.4,24.2,26.7,24.4,26.6z"/>
			<path class="st0" d="M23.4,31.5L23.4,31.5l-0.1,0c-2.2-0.2-4.1-0.9-5.7-2.5l0,0.1l-1.2,1.2c1.8,1.5,3.7,2.5,6,2.8
				c0.4,0.1,0.8,0,1.1,0.1l-0.1-0.1V31.5z"/>
			<path class="st0" d="M24.4,20.4c0.1,0.1,0.2-0.1,0.3-0.1c0.2,0,0.3,0.2,0.4,0.3c0.1,0,0.2,0,0.3-0.1c0.1-0.5,0.6-0.4,0.8-0.8
				l-0.1,0c0-0.1-0.2,0-0.2-0.1c0.1-0.1,0.2-0.2,0.3-0.3c-0.5-0.3-1-0.6-1.6-0.7c-0.2-0.1-0.5-0.1-0.7-0.1c0.1,0.3,0,0.8,0.1,1.2
				l0.4,0.1c0.1-0.2,0.4-0.2,0.5-0.4c0.1-0.1,0.2,0,0.2,0.1c0,0.2,0,0.3-0.1,0.5C25,20.1,24.6,20.2,24.4,20.4z"/>
			<path class="st0" d="M27.9,26.5c-0.1,0.1-0.2,0.1-0.3,0.1c-0.4-0.2-0.9-0.3-1.4-0.3c0,0-0.1,0.1-0.1,0.1c0.2,0.1,0.4,0.1,0.7,0.2
				c0.2,0.1,0.3,0.3,0.6,0.2c0.2-0.1,0.5,0.1,0.7-0.1c0-0.2,0.2-0.4,0.2-0.5l0.1,0c0.1,0.1,0.1,0.3,0.2,0.4c0.2-0.2,0.3-0.4,0.4-0.5
				c0.4-0.5,0.7-1.1,0.8-1.7c-0.2,0-0.3,0-0.4,0.1c-0.2,0-0.4,0.1-0.5,0c-0.1,0-0.1,0-0.1,0.1c-0.1,0.1-0.1,0.2-0.2,0.2
				c-0.1,0-0.1-0.2-0.1-0.2c0,0.1,0,0.1,0,0.2c-0.1,0.1-0.2,0.2-0.2,0.4c-0.1,0.1-0.3,0.1-0.4,0.2c0,0.3-0.3,0.2-0.5,0.3
				c0,0,0,0,0,0.1c0.1,0,0.2,0,0.2-0.1c0.2,0.1,0.2-0.2,0.3-0.3c0.1,0,0.2-0.1,0.4,0c0.1,0.2,0.2,0.4,0.1,0.6
				c-0.1,0.1-0.1,0.4-0.2,0.5C28.1,26.3,27.9,26.3,27.9,26.5z"/>
			<path class="st0" d="M25.5,25.5c0.1-0.1,0.4-0.1,0.4-0.3c-0.2,0-0.3,0.1-0.4,0.2C25.4,25.4,25.4,25.5,25.5,25.5z"/>
			<path class="st0" d="M24.1,30.9c0.4-0.1,0.9-0.1,1.4-0.2c-0.1,0-0.2-0.1-0.2-0.1c-0.3,0-0.4-0.3-0.5-0.5c0-0.2,0.1-0.3,0.1-0.4
				c-0.1-0.2-0.5-0.1-0.7-0.1c-0.1,0-0.1-0.1-0.2-0.1l0.1,0.1C24.1,30,24.1,30.5,24.1,30.9z"/>
			<path class="st0" d="M30,28.9c-0.2,0.3-0.5,0.5-0.8,0.7c-0.4,0.4-1,0.4-1.1,1c-0.2,0.2-0.3,0.5-0.5,0.6c-0.1,0.3-0.4,0.3-0.6,0.5
				c-0.5,0.4-0.8-0.3-1.2-0.4l-0.9,0.2c-0.3,0-0.6,0.1-0.9,0c0,0.6,0,1.2,0,1.8l0.1-0.1c2.7-0.1,5.1-1.1,7.1-3L30.1,29L30,28.9z"/>
			<path class="st0" d="M29,22.7l0.2,0.2c0.2,0.1,0.1,0.4,0.2,0.5c0.2,0.1,0.3,0.4,0.4,0.6c0-0.1,0-0.1,0.1-0.2
				c0.1-0.3,0.1-0.7,0.2-1C29.7,22.8,29.3,22.8,29,22.7z"/>
			<path class="st0" d="M25.8,16.6c-0.6-0.2-1.2-0.3-1.8-0.4l0.1,0.1l0,1.5l0.1,0c0.9,0.1,1.8,0.4,2.5,1l0,0.1
				c0.3-0.4,0.6-0.7,0.9-1l0.3-0.2l-0.1-0.1C27.2,17.2,26.6,16.8,25.8,16.6z"/>
			<path class="st0" d="M23.2,26.4c0-0.2,0-0.3,0.1-0.5c0.1-0.1,0.2-0.1,0.3-0.1c0.1,0,0.1-0.1,0.1-0.1c-0.2,0-0.1-0.2-0.1-0.3
				c0-0.1,0.1,0,0.1-0.1c-0.1-0.1,0.1-0.2,0-0.3c0,0,0-0.1,0.1-0.1c-0.3,0.1-0.7-0.1-1-0.2c-0.1-0.1-0.4-0.2-0.4-0.3
				c-0.2,0.4-0.7,0.8-1,1.1C21.7,26,22.4,26.3,23.2,26.4z"/>
			<path class="st0" d="M15.4,22.9l0.1,1c0.1,0.4,0.2,0.8,0.2,1.2c0.1-0.1,0-0.3,0.2-0.3c-0.1-0.1,0.1-0.2,0-0.3
				c0-0.3,0.1-0.5,0.3-0.7c0.3,0,0.3-0.4,0.6-0.4c0.1,0,0.2,0.2,0.3,0.3c-0.2-0.2-0.2-0.6-0.1-0.8l-0.1,0.1
				C16.3,22.8,15.8,22.8,15.4,22.9L15.4,22.9z"/>
			<path class="st0" d="M21.8,24l-0.2-0.1c0,0.1-0.1,0.3-0.2,0.4l0,0C21.6,24.2,21.7,24,21.8,24z"/>
			<path class="st0" d="M17.2,28.6c-0.2-0.1-0.4-0.4-0.5-0.5c-0.2-0.1-0.4-0.2-0.5-0.4c-0.1-0.1,0-0.2-0.1-0.2l-0.1,0.1
				c-0.2,0.1-0.3-0.1-0.4-0.2c-0.2-0.1-0.1-0.4-0.3-0.4c-0.1,0-0.1-0.1-0.2-0.2c-0.2,0-0.3-0.2-0.4-0.3c0,0.1,0,0.1-0.1,0.2
				c-0.2,0.1-0.3-0.2-0.5-0.3c0,0-0.1,0.1-0.1,0.1c-0.1-0.1-0.2-0.3-0.2-0.5c-0.2-0.2-0.1-0.5-0.1-0.8c0-0.1,0.1-0.1,0.1-0.2
				c0.1-0.1,0.2-0.1,0.3-0.1c0,0,0.1,0.1,0.1,0.1c0.1,0,0.2,0,0.2-0.2c0.1-0.1,0.2-0.1,0.4-0.1c0.1,0.1,0.1,0.2,0.3,0.3l-0.1-0.1
				c-0.1-0.6-0.2-1.1-0.3-1.7c0,0-0.1-0.1,0-0.1l0,0c0-0.1,0-0.2,0-0.3l-0.2,0.1l-1.6,0c0.1,1.8,0.6,3.4,1.4,4.9
				c0.4,0.7,1,1.4,1.5,2.1l1.1-1.2L17.2,28.6z"/>
			<path class="st0" d="M23.3,29.4c-1.4-0.1-2.6-0.6-3.6-1.4c0,0.1,0.2,0.2,0.2,0.4c-0.1,0.2-0.3,0.2-0.5,0.2
				c-0.3-0.1-0.6,0.2-0.9,0.2c-0.3,0.1-0.4-0.3-0.6-0.2c1.6,1.4,3.4,2.2,5.4,2.3l0.2,0.1l-0.1-0.2v-1.5L23.3,29.4z"/>
			<path class="st0" d="M19,15.5c-0.3,0.2-0.7,0.6-1,0.8c0.4,0.3,0.8,0.7,1.1,1.1l0,0.1c1-0.9,2.1-1.5,3.4-1.7
				c0.3,0,0.6-0.1,0.9-0.1c0-0.5-0.1-1.1,0-1.6C21.8,14.1,20.3,14.6,19,15.5z"/>
			<path class="st0" d="M20.6,23.7c-0.1,0-0.1,0-0.1,0c0,0-0.1,0-0.1,0c0-0.3-0.4-0.1-0.5-0.3c0.2,0.3,0.2,0.6,0.4,0.9
				c0.1,0.3,0.3,0.5,0.4,0.7c0.1-0.2,0.3-0.4,0.5-0.6c0-0.1,0-0.2-0.1-0.2c-0.1-0.1,0-0.3-0.1-0.4c-0.1,0.1,0.1,0.2,0,0.3
				c-0.1,0-0.1,0-0.1-0.1c-0.1,0-0.2-0.1-0.3-0.3C20.7,23.8,20.6,23.8,20.6,23.7z"/>
			<path class="st0" d="M17.7,21.4c-0.1,0.3,0,0.6-0.1,0.8c0.2-0.1,0.5-0.1,0.7,0c-0.1-0.1,0-0.2-0.1-0.3c0-0.1,0-0.3,0.1-0.4
				c0-0.2,0.2-0.3,0.3-0.6c0.1-0.2,0.3-0.1,0.5-0.2c0.1,0,0-0.1,0-0.2c0.1-0.2,0.3-0.1,0.4-0.2c0.1-0.1,0.2-0.3,0.4-0.4
				c0.3,0,0.3-0.5,0.7-0.5c-0.4-0.3-0.9-0.8-1.2-1.2C18.4,19.2,17.9,20.2,17.7,21.4z"/>
			<path class="st0" d="M17.6,16.7l-0.6,0.8c-1,1.4-1.5,3-1.6,4.7l1.5,0l0.1,0.1c-0.1,0,0-0.1-0.1-0.2c0.1-1.6,0.7-3,1.8-4.2
				c-0.4-0.4-0.8-0.8-1.2-1.2L17.6,16.7z"/>
			<path class="st0" d="M17.9,23.6c0-0.1-0.1-0.1-0.1-0.2c0.1-0.2,0-0.5,0.3-0.6c-0.2,0-0.4,0.1-0.5-0.1l0.1,0.1
				c0,0.4,0.2,0.7,0.1,1.1C17.7,23.9,17.7,23.7,17.9,23.6z"/>
			<path class="st0" d="M18.5,22.8l0,0.3c-0.1,0.2-0.3,0-0.4,0.2c-0.1,0.1,0,0.2,0.1,0.3c-0.2,0.4,0.4,0.5,0.3,0.8
				c0.2,0.2,0,0.5,0.2,0.7c0,0.4-0.1,0.9,0.3,1.1l0.1,0.3c0.1,0.2-0.3,0.2-0.2,0.4c0.1,0,0.1,0.1,0.1,0.1v0c0.4-0.5,0.9-1,1.4-1.5
				l-0.2-0.2c-0.4-0.6-0.7-1.2-0.9-1.9L19,23.3c0,0.2-0.1,0.3-0.1,0.5l-0.1,0.1c-0.1,0-0.2-0.1-0.3-0.2c0-0.1-0.1-0.2,0-0.2
				c0.1,0,0.1,0,0.1,0c0.1-0.1,0-0.2,0.1-0.2c0-0.1-0.1-0.3,0-0.4c0.1,0,0.2,0.1,0.2,0.2c0.1,0,0.2-0.1,0.3-0.1c0-0.1,0.1-0.2,0-0.3
				c0.1-0.2,0-0.5,0-0.7c-0.1-0.2-0.3-0.2-0.4-0.1c-0.5,0.1,0.1,0.5,0,0.8C18.7,22.9,18.6,22.7,18.5,22.8z"/>
			<path class="st0" d="M22.3,27.3c0.1-0.1,0.3-0.2,0.4-0.3c-0.5,0.1-0.9-0.3-1.4-0.5c-0.2-0.2-0.6-0.3-0.7-0.6
				c-0.3,0.4-0.7,0.8-1.1,1.1c0.2,0,0.3,0.2,0.4,0.3c0.8,0.7,1.9,1,2.9,1.3l-0.3-0.1c-0.2-0.2-0.5-0.5-0.5-0.8
				C22.3,27.6,22.2,27.4,22.3,27.3z"/>
			<path class="st0" d="M30.2,16.2c0.1,0,0.2,0.2,0.2,0.3c0.4,0.2,0.5,0.7,0.9,0.9c0.2,0.4,0.7,0.7,0.7,1.2c0.5,1.1,0.8,2.2,0.9,3.5
				l0,0.1c0.1,0,0.1,0,0.1-0.1l1.6,0c-0.1-0.2-0.1-0.4-0.1-0.6c-0.2-2.5-1.3-4.7-3-6.5c-0.3,0.4-0.7,0.8-1.1,1.2L30.2,16.2z"/>
			<path class="st0" d="M14.8,22.2l0-0.2c0.1-1.8,0.7-3.4,1.7-4.8c0.3-0.3,0.4-0.6,0.8-0.9c-0.4-0.3-0.7-0.7-1.1-1.1l0-0.2
				c-1.6,1.8-2.6,3.8-2.9,6.1c-0.1,0.3,0,0.7-0.1,1C13.6,22.1,14.2,22.1,14.8,22.2z"/>
			<path class="st0" d="M17.6,15.9L17.6,15.9c1.7-1.6,3.6-2.4,5.8-2.5l-0.1-0.1l0-1.4l0-0.2c-2.3,0.1-4.3,0.9-6.1,2.1
				c-0.3,0.2-0.6,0.6-1,0.8h0C16.8,15,17.3,15.5,17.6,15.9z"/>
			<path class="st0" d="M23.4,18.5c-0.9,0.1-1.7,0.4-2.4,1.1h0.1c0.1,0.1,0.4,0.1,0.5,0.3c0.1,0.1-0.1,0.1-0.1,0.2
				c0,0,0.1,0,0.1,0.1c0.1,0,0.1-0.1,0.1-0.1c0.1-0.1,0.2,0.1,0.3,0.1c0.1-0.1,0.2-0.1,0.3,0c0.1-0.1,0.3,0,0.3-0.2
				c0.2-0.2,0.1-0.5,0.3-0.6c0.1,0.1,0,0.1,0,0.2c0.2,0.1,0.4-0.1,0.5,0C23.4,19.3,23.4,18.9,23.4,18.5z"/>
			<path class="st0" d="M2.7,88.7h20.5V68.3H2.7V88.7z M7.7,71.8c1.1-0.2,2.4-0.3,3.8-0.3c2.5,0,4.3,0.6,5.5,1.7
				c1.2,1.1,1.9,2.7,1.9,4.9c0,2.2-0.7,4.1-2,5.3c-1.3,1.3-3.4,2-6.1,2c-1.3,0-2.3,0-3.2-0.2V71.8z"/>
			<path class="st0" d="M2.7,67h20.5V46.5H2.7V67z M7.9,49.9h1.8V58c0,3,1.4,4.3,3.2,4.3c2,0,3.3-1.3,3.3-4.3v-8.1h1.8v8
				c0,4.2-2.2,5.9-5.2,5.9c-2.8,0-4.9-1.6-4.9-5.8V49.9z"/>
			<path class="st0" d="M24.4,67h20.5V46.5H24.4V67z M29.5,49.9h2l4.4,6.9c1,1.6,1.8,3,2.4,4.4l0.1,0c-0.2-1.8-0.2-3.5-0.2-5.6v-5.7
				h1.7v13.7H38l-4.3-6.9c-1-1.5-1.9-3.1-2.5-4.6l-0.1,0c0.1,1.7,0.1,3.4,0.1,5.6v5.8h-1.7V49.9z"/>
			<path class="st0" d="M24.4,88.7h20.5V68.2H24.4V88.7z M30.9,71.8c0.9-0.2,2-0.3,3.4-0.3c1.7,0,3,0.4,3.8,1.1
				c0.8,0.7,1.2,1.6,1.2,2.9c0,1.2-0.4,2.2-1.1,2.9c-0.9,1-2.5,1.5-4.2,1.5c-0.5,0-1,0-1.4-0.1v5.5h-1.8V71.8z"/>
			<path class="st0" d="M2.7,3v42.2h42.2V3H2.7z M9.6,24.4c0.2,0.6,0.2,1.2,0.4,1.7c0,0,0,0,0.1,0c-0.6-1.6,0.3-3.1,1.1-4.4
				c0.2-0.3,0.3-0.7,0.4-1.1c0.1,0.7-0.1,1.6-0.2,2.3c-0.2,1-0.5,1.9-0.8,2.8c-0.2,0.6-0.1,1.3,0,1.9l-0.1-0.1
				c-0.6-1.1-1.8-2-2.2-3.3c-0.3-1-0.5-2.1-0.3-3.2c0.1-0.4,0.2-0.8,0.3-1.2C8,21.6,9.2,22.9,9.6,24.4z M9.8,20.2l-0.1,1.5
				c0,0,0,0.1,0.1,0c0.1-0.2,0.1-0.3,0.1-0.5c0.2-1.2,1.3-2.1,2.2-2.9c0.2-0.2,0.4-0.4,0.5-0.7c-0.1,0.6-0.3,1.2-0.5,1.8
				c-0.7,1.4-2.1,2.6-2.3,4.2c-0.1-1.5-1.2-2.7-1.1-4.3c0-1.3,0.5-2.4,1.3-3.4c0,0,0,0,0.1,0C9.1,17.1,9.9,18.7,9.8,20.2z
				 M37.4,19.5L37.4,19.5c-0.7-1.3-2-1.9-3-2.9c-0.5-0.6-0.8-1.3-0.9-2.1c0.5,1.3,2,1.6,2.8,2.7c0.3,0.3,0.4,0.6,0.6,0.9l0,0
				c-0.5-1-0.6-2.2-1-3.3c-0.2-0.5-0.5-0.9-0.9-1.2c1.1,0.2,2,1.4,2.3,2.4C37.5,17.1,37.1,18.3,37.4,19.5z M37.9,17.5
				c0-0.7-0.1-1.4-0.5-1.9c0.3,0.1,0.4,0.4,0.5,0.6c1,1.4,1.2,3.5,0.5,5.1c-0.3,0.7-0.5,1.4-0.6,2.1c-0.1-0.1-0.1-0.3-0.1-0.4
				c-0.4-1.5-1.8-2.6-2.4-4c-0.2-0.5-0.3-1-0.4-1.5c0.6,1.2,2.2,1.8,2.6,3.1c0.2,0.3,0.2,0.7,0.3,1.1c0,0,0,0,0,0
				C37.7,20.2,37.7,18.8,37.9,17.5z M39.2,19.7c0.8,1.6,0.5,3.8-0.3,5.3c-0.6,0.8-1.3,1.6-1.9,2.5c0.1-0.7,0.1-1.5-0.1-2.1
				c-0.5-1.4-0.9-2.8-1-4.3l0-0.6c0.3,1.5,1.9,2.6,1.8,4.3c0,0.4-0.1,0.8-0.2,1.1l0,0l0.1-0.1c0.2-0.8,0.3-1.7,0.7-2.5
				C38.8,22.2,39.5,21,39.2,19.7z M33.3,32.7c1.2-1.2,2.8-1.5,4.1-2.5c0.5-0.4,1-1,1.2-1.6c-0.2,2-2.2,3.9-4.1,4.5
				c-1,0.3-2,0.3-2.9,0.7c1.6-1.4,1.5-3.5,2.6-5.1c0.3-0.5,0.6-0.9,1-1.4c-0.6,1.3-0.4,3-1.1,4.2c-0.3,0.5-0.7,1-1.1,1.4
				C33.1,32.9,33.2,32.8,33.3,32.7z M28.1,37.5c-0.2,0.2-0.4,0.4-0.7,0.6c-1-1.1-2.2-2.2-3.5-2.9c-0.3,0-0.5,0.2-0.7,0.3
				c-1.1,0.7-2.1,1.5-2.9,2.6l-0.7-0.6c1.1-1.1,2.3-1.9,3.6-2.6c-1.3-0.4-2.1,0.7-3.1,1.2C19,37,17.3,37.4,16,36.8
				c-0.7-0.3-1.5-0.7-2-1.4c1.1,0.7,2.7,0.8,3.9,0.3c1.6-0.7,3.4-1.6,5.3-1.2c0.3,0,0.6,0.3,0.9,0.1c1.5-0.4,3.1-0.1,4.4,0.6
				l1.3,0.5c1.2,0.4,2.8,0.3,3.8-0.4c-0.5,0.7-1.3,1.1-2,1.4c-1.7,0.6-3.4,0-4.8-1c-0.5-0.3-1-0.8-1.7-0.8c-0.2,0-0.5,0-0.7,0.1
				C25.8,35.6,27,36.4,28.1,37.5z M13.7,31.9c-0.9-1.3-0.6-3.1-1.3-4.4c0.6,0.7,1.2,1.5,1.6,2.4c0.6,1.4,0.8,3,2.1,4
				c-1.4-0.5-3.1-0.3-4.3-1.2c-1.4-0.8-2.6-2.2-2.8-3.8c0.9,2.1,3.3,2.3,4.8,3.6c0.3,0.3,0.6,0.5,0.9,0.6l0,0
				C14.4,32.7,13.9,32.3,13.7,31.9z M17.3,34.4c0.3,0,0.5,0.2,0.8,0.1c-0.2-0.2-0.6-0.1-0.8-0.3c-1.6-0.6-1.8-2.2-2.6-3.4
				c1.1,0.7,2,1.7,3,2.6c0.7,0.6,1.6,0.9,2.5,1.1c-0.2,0.1-0.5,0.1-0.7,0.1c-1.6,0.4-3.5,1.1-5.2,0.5c-1.1-0.4-2.3-1.2-2.9-2.4
				C12.8,34.5,15.3,33.9,17.3,34.4z M33.5,35c-1.9,0.7-3.8-0.2-5.6-0.5l-0.4,0v0c0.9-0.2,1.7-0.5,2.4-1.1c1-1,1.9-2,3.1-2.8
				c-0.8,1.1-0.9,2.6-2.3,3.3c-0.3,0.2-0.8,0.3-1.1,0.4c0.5,0,1-0.2,1.5-0.2c1.9-0.3,4,0,5.3-1.6C35.8,33.7,34.6,34.6,33.5,35z
				 M35.8,15.9l0.1,0.3c-1.2-0.9-2.3-2-3.1-3.2l-0.9-0.9c0.8,0.3,1.7,0.6,2.4,1.2C35.2,14,35.5,14.9,35.8,15.9z M33.9,17.5
				c1.2,2.3,1.5,5.4,0.7,7.9c-0.8,3-3.3,6.1-6.3,7.3c-3.3,1.6-8,1.2-11-0.9c-4.1-2.8-5.8-7.7-4.6-12.5c0.8-2.9,3-5.7,5.8-7.1
				c1.6-0.8,3.3-1.2,5.1-1.2C28,11.1,32.1,13.6,33.9,17.5z M13.4,14.7c-0.6,0.7-1.3,1.1-1.9,1.7c0.3-0.7,0.3-1.5,0.8-2.2
				c0.7-1.2,1.9-1.6,3.1-2C14.6,12.9,14,13.9,13.4,14.7z M11,17c-0.1,0.4-0.3,0.8-0.4,1.2l0,0c0.2-0.5,0.5-1,0.9-1.3
				c0.8-0.7,2-1.2,2.4-2.3c0,1.5-1.3,2.7-2.5,3.5c-0.5,0.4-1,0.9-1.2,1.5c0-0.4,0.1-0.8,0-1.2c-0.1-1.3-0.2-2.8,0.7-3.8
				c0.4-0.5,0.9-0.8,1.5-1C11.3,14.5,11.3,15.9,11,17z M7.9,24.6c0.1,1.9,2.1,2.8,3.1,4.4c0.2,0.3,0.4,0.7,0.7,0.9
				c0-0.2-0.2-0.4-0.3-0.6c-0.3-0.7-0.4-1.4-0.4-2.2c0.1-1,0.5-1.8,0.3-2.8c0.8,1.8,0.6,4,1,5.9c0.1,0.4,0.4,0.8,0.5,1.2
				c-1.7-1.1-4-2.2-4.7-4.3C7.9,26.3,7.9,25.4,7.9,24.6z M36.9,29.7c-0.7,0.5-1.5,1-2.2,1.5v-0.1c1.1-1.8,0.6-4.4,1.2-6.4l0.3-0.7
				c-0.1,1.3,0.4,2.3,0.4,3.6c0,0.8-0.3,1.4-0.7,2H36c0.5-0.7,1-1.5,1.6-2.1c1-0.9,2-1.9,2.1-3.2C40,26.5,38.8,28.4,36.9,29.7z"/>
			<path class="st0" d="M17.1,78.2c0,3.7-2,5.8-5.8,5.8c-0.7,0-1.3,0-1.8-0.1V73.1c0.5-0.1,1.2-0.2,2.1-0.2
				C15.3,72.9,17.1,74.9,17.1,78.2z"/>
			<path class="st0" d="M37.5,75.7c0,1.8-1.3,2.9-3.4,2.9c-0.6,0-1.1,0-1.5-0.1v-5.3c0.3-0.1,0.9-0.1,1.7-0.1
				C36.3,73,37.5,73.9,37.5,75.7z"/>
			<path class="st0" d="M32.9,22.8L32.9,22.8L32.9,22.8c-0.1,2-0.8,3.6-1.8,5.1c-0.2,0.2-0.4,0.6-0.7,0.7c0.4,0.3,0.9,0.8,1.3,1.2
				l0-0.1c1.7-2,2.7-4.2,2.8-6.9l0.1-0.1l-0.1,0L32.9,22.8z"/>
			<path class="st0" d="M23.3,16.2c-1.4,0.1-2.7,0.7-3.8,1.6c0.4,0.3,0.8,0.8,1.2,1.1c0,0,0.1-0.1,0.1-0.1c0.5-0.4,1.1-0.7,1.7-0.9
				c0.3,0,0.6-0.2,0.9-0.1C23.4,17.3,23.4,16.7,23.3,16.2L23.3,16.2z"/>
			<path class="st0" d="M24,13.2c0-0.1,0-0.1,0.1-0.1c0.1,0,0.1,0,0.2,0.1c0,0.1,0,0.2,0,0.3c0.1,0,0.1,0,0.2,0
				c1.3,0.1,2.5,0.5,3.6,1.1v0c0.2-0.1,0.5-0.2,0.7-0.1c0.3-0.1,0.3,0.2,0.5,0.3c0.3,0.2,0.6,0.5,0.6,0.8c0.1,0.1,0.2,0.2,0.2,0.3
				c0.2-0.4,0.5-0.7,0.9-1l0.2-0.1c-1.7-1.6-3.7-2.5-6-2.8c-0.4-0.1-0.8,0-1.1-0.1C24.1,12.1,24.1,12.7,24,13.2z M29.1,14
				c0.1,0,0.2,0.1,0.3,0.2c0,0.1,0.1,0.2,0,0.3c-0.3,0.1-0.3-0.3-0.6-0.3c0,0,0-0.1,0-0.2C28.9,13.9,29,14.1,29.1,14z M24.3,12.9
				c0-0.1,0.2-0.1,0.2,0l0.8-0.3c0.3,0,0.7,0.1,0.9,0.3v0c-0.2,0.2-0.5,0.3-0.7,0.2C25.1,13.2,24.6,13.4,24.3,12.9
				C24.3,13,24.2,13,24.3,12.9z"/>
			<path class="st0" d="M24,15.6c0.2-0.1,0.4,0,0.6,0c1.1,0.2,2.1,0.5,3,1.2c-0.1-0.1-0.2-0.2-0.3-0.4c0,0,0,0,0.1,0
				c0-0.2-0.2-0.3-0.2-0.4c0,0,0.1-0.1,0.1-0.1c0.2,0.2,0.4,0.4,0.5,0.6c0.1-0.1,0.2,0,0.3,0.1c0.2,0.1,0.1,0.3,0.2,0.4
				c0,0.3,0.4,0.5,0.4,0.9c0,0.1,0.1,0,0.1,0.1l0.3,0.4c-0.1,0.1,0,0.2,0.1,0.2c0.2,0.1,0.2-0.1,0.4-0.1c0.2,0.1,0,0.3,0,0.4
				c0.1,0,0.2-0.1,0.3,0c0,0.1-0.1,0.2-0.2,0.3c0,0.1,0.1,0.1,0.2,0.1c0.1,0,0.2,0.1,0.1,0.2c0.3,0.3-0.1,0.6,0.1,0.9
				c0.1,0.2,0,0.4-0.1,0.6c0,0.2-0.2,0.4-0.3,0.6l-0.3,0.1c-0.2,0.2,0.1,0.3,0,0.4l0.6,0L30,22.1c-0.1-0.2-0.1-0.6,0.1-0.8
				c0.1-0.2,0.1-0.4,0.3-0.6c0,0,0.1-0.1,0.1,0c0,0.2,0,0.4-0.1,0.6c0.2,0.3,0.2,0.6,0.2,0.9c0.6,0,1.1,0,1.6,0L32.2,22
				c-0.1-1-0.3-2-0.7-2.9c-0.1,0-0.2,0.1-0.3,0.1c0,0-0.1-0.1-0.1-0.1c-0.2-0.2-0.4-0.5-0.6-0.7c-0.3,0-0.4-0.3-0.7-0.3
				c-0.2-0.1-0.1-0.5-0.4-0.4c-0.2-0.1-0.3-0.2-0.4-0.4c0-0.3-0.1-0.6-0.3-0.8c-0.2-0.1-0.3,0.2-0.5,0.2c-0.1-0.1-0.1-0.2-0.1-0.3
				c0-0.1-0.1-0.1-0.1-0.3c0.3-0.3-0.3-0.3-0.2-0.7c0-0.2-0.3-0.3-0.4-0.5c-0.9-0.4-1.7-0.7-2.7-0.8c-0.2,0-0.5,0-0.7-0.1l0.1,0.1
				C24.1,14.6,24.1,15.1,24,15.6z"/>
			<path class="st0" d="M23.5,21c-0.2,0.3-0.5,0.3-0.7,0.4c-0.1,0.1-0.1,0.3-0.2,0.3c-0.1,0.1-0.2,0.2-0.2,0.4
				c-0.1,0.2,0,0.4-0.1,0.6c-0.3,0.2-0.2-0.3-0.4-0.4l-0.1,0.1c-0.1,0-0.1,0-0.2-0.1c-0.1,0-0.1,0-0.2,0c-0.1,0.1-0.2,0.2-0.2,0.4
				c0,0.1-0.2,0.1-0.2,0.2c0.2,0,0.4,0,0.6-0.1c0.1,0,0.2-0.1,0.4-0.1c0,0,0.1,0.1,0.1,0.1h0c0.1-0.1,0.1-0.2,0.1-0.3
				c0-0.1,0.1-0.1,0.2-0.2c0.1,0,0,0.1,0,0.2c0.3,0.1-0.1,0.3-0.1,0.4c-0.1,0.1,0,0.3-0.2,0.3c0,0-0.1-0.1-0.1-0.1h0
				c0,0.1,0.1,0.2,0.2,0.3c0.2-0.1,0.2-0.3,0.4-0.4c0.1-0.1-0.1-0.3,0.1-0.4c0.3,0,0.6-0.1,0.8,0.1c0,0.1-0.1,0.1,0,0.2
				c-0.1,0.1-0.1,0.3-0.2,0.4c0,0.1,0,0.2-0.1,0.2c-0.1,0.3-0.5,0.2-0.7,0.3c0.4,0.3,0.8,0.4,1.2,0.3c0.2,0,0.1-0.3,0.3-0.4
				c0.1-0.4,0.4-0.1,0.7-0.2c0.1-0.2,0.2-0.3,0.2-0.5c-0.1-0.1-0.2-0.3-0.2-0.4c-0.1-0.1-0.1-0.4-0.3-0.4c0,0,0-0.1,0-0.1
				c0-0.1,0.1-0.2,0.2-0.3c-0.1-0.1-0.1-0.3-0.1-0.4c-0.2,0.1-0.2-0.2-0.4-0.3c0-0.1-0.2-0.2-0.3-0.2c-0.3,0.1-0.3-0.2-0.5-0.3
				c0-0.1-0.1-0.2,0-0.2c0.1-0.1,0.2,0,0.4,0l-0.1-0.1c-0.1-0.1-0.3,0-0.4,0C23.4,20.7,23.4,20.9,23.5,21z"/>
		</g>
	</g>
	<g>
		<g>
			<rect x="60" y="3.9" class="st0" width="1.3" height="84.7"/>
		</g>
	</g>
</g>
</svg>
