<svg width="176" height="80" viewBox="0 0 176 80" fill="none" xmlns="http://www.w3.org/2000/svg">
    <path d="M57.9619 0.860596L82.4253 12.4918L80.6441 64.339L69.4441 79.007L57.9619 0.860596Z" fill="#004F78"/>
    <path d="M6.20115 17.4273L56.974 0.860596L60.3515 22.0115L0.977539 47.6465L6.20115 17.4273Z" fill="#009E30"/>
    <path d="M0.977539 47.6464L36.0276 33.1558L65.4875 54.2035L69.4458 79.0068L0.977539 47.6464Z" fill="#009E30"/>
    <path d="M57.2164 0L5.21712 17.2759L0 48.1979L68.9419 79.7324L69.5292 80L81.4981 64.5938L83.2112 11.9665L57.2164 0ZM6.65767 18.4977L56.5123 1.93424L59.5265 21.3862L1.94993 46.3894L6.65767 18.4977ZM34.4239 34.0458L64.6884 54.6712L68.2476 77.6402L2.88434 47.7434L34.4207 34.0458H34.4239ZM36.1759 33.285L59.786 23.0303L64.351 52.4855L36.1759 33.285ZM79.8921 64.02L69.7952 77.0181L61.3239 22.363H61.3304L61.3207 22.3404L58.2027 2.23082L81.5565 12.9852L79.8921 64.0232V64.02Z" fill="#1D1D1B"/>
    <path d="M99.1581 23.382C97.9537 23.382 96.983 23.0206 96.2462 22.298C95.5236 21.5611 95.1622 20.5905 95.1622 19.3861V12.1383C95.1622 10.9197 95.5236 9.95614 96.2462 9.24766C96.983 8.525 97.9537 8.16367 99.1581 8.16367C100.377 8.16367 101.354 8.525 102.091 9.24766C102.828 9.95614 103.196 10.9197 103.196 12.1383V12.3933C103.196 12.4642 103.168 12.5279 103.111 12.5846C103.069 12.6413 103.012 12.6696 102.941 12.6696L100.965 12.7547C100.795 12.7547 100.71 12.6696 100.71 12.4996V11.9682C100.71 11.4723 100.568 11.0685 100.285 10.7567C100.001 10.445 99.6257 10.2891 99.1581 10.2891C98.7047 10.2891 98.3362 10.445 98.0528 10.7567C97.7695 11.0685 97.6278 11.4723 97.6278 11.9682V19.5774C97.6278 20.0733 97.7695 20.4772 98.0528 20.7889C98.3362 21.1006 98.7047 21.2565 99.1581 21.2565C99.6257 21.2565 100.001 21.1006 100.285 20.7889C100.568 20.4772 100.71 20.0733 100.71 19.5774V19.046C100.71 18.9752 100.731 18.9185 100.773 18.876C100.83 18.8193 100.894 18.791 100.965 18.791L102.941 18.876C103.012 18.876 103.069 18.9043 103.111 18.961C103.168 19.0035 103.196 19.0602 103.196 19.131V19.3861C103.196 20.5905 102.828 21.5611 102.091 22.298C101.354 23.0206 100.377 23.382 99.1581 23.382ZM113.144 17.1118C113.215 17.1118 113.272 17.1402 113.314 17.1969C113.371 17.2394 113.399 17.2961 113.399 17.3669V19.0885C113.399 19.1594 113.371 19.2231 113.314 19.2798C113.272 19.3223 113.215 19.3436 113.144 19.3436H112.507C112.436 19.3436 112.4 19.379 112.4 19.4499V22.9569C112.4 23.0277 112.372 23.0915 112.315 23.1482C112.273 23.1907 112.216 23.2119 112.145 23.2119H110.19C110.119 23.2119 110.055 23.1907 109.999 23.1482C109.956 23.0915 109.935 23.0277 109.935 22.9569V19.4499C109.935 19.379 109.899 19.3436 109.829 19.3436H104.6C104.529 19.3436 104.465 19.3223 104.409 19.2798C104.366 19.2231 104.345 19.1594 104.345 19.0885V17.707C104.345 17.5795 104.359 17.4732 104.387 17.3882L107.342 8.54625C107.384 8.40456 107.476 8.33371 107.618 8.33371H109.744C109.829 8.33371 109.892 8.36205 109.935 8.41873C109.977 8.46124 109.984 8.53208 109.956 8.63127L107.235 16.9843C107.221 17.0693 107.25 17.1118 107.321 17.1118H109.829C109.899 17.1118 109.935 17.0764 109.935 17.0056V14.455C109.935 14.3842 109.956 14.3275 109.999 14.285C110.055 14.2283 110.119 14.2 110.19 14.2H112.145C112.216 14.2 112.273 14.2283 112.315 14.285C112.372 14.3275 112.4 14.3842 112.4 14.455V17.0056C112.4 17.0764 112.436 17.1118 112.507 17.1118H113.144ZM118.5 23.4457C117.31 23.4457 116.353 23.0702 115.631 22.3192C114.908 21.5541 114.547 20.5551 114.547 19.3223V12.2233C114.547 10.9905 114.908 9.99865 115.631 9.24766C116.353 8.48249 117.31 8.09991 118.5 8.09991C119.705 8.09991 120.668 8.48249 121.391 9.24766C122.128 9.99865 122.496 10.9905 122.496 12.2233V19.3223C122.496 20.5551 122.128 21.5541 121.391 22.3192C120.668 23.0702 119.705 23.4457 118.5 23.4457ZM118.5 21.299C118.968 21.299 119.336 21.1361 119.605 20.8101C119.889 20.4701 120.03 20.0237 120.03 19.4711V12.0745C120.03 11.5219 119.889 11.0826 119.605 10.7567C119.336 10.4167 118.968 10.2466 118.5 10.2466C118.047 10.2466 117.685 10.4167 117.416 10.7567C117.147 11.0826 117.012 11.5219 117.012 12.0745V19.4711C117.012 20.0237 117.147 20.4701 117.416 20.8101C117.685 21.1361 118.047 21.299 118.5 21.299ZM132.451 23.382C131.247 23.382 130.276 23.0206 129.54 22.298C128.817 21.5611 128.456 20.5905 128.456 19.3861V12.1383C128.456 10.9197 128.817 9.95614 129.54 9.24766C130.276 8.525 131.247 8.16367 132.451 8.16367C133.67 8.16367 134.648 8.525 135.385 9.24766C136.121 9.95614 136.49 10.9197 136.49 12.1383V12.3933C136.49 12.4642 136.461 12.5279 136.405 12.5846C136.362 12.6413 136.306 12.6696 136.235 12.6696L134.258 12.7547C134.088 12.7547 134.003 12.6696 134.003 12.4996V11.9682C134.003 11.4723 133.861 11.0685 133.578 10.7567C133.294 10.445 132.919 10.2891 132.451 10.2891C131.998 10.2891 131.63 10.445 131.346 10.7567C131.063 11.0685 130.921 11.4723 130.921 11.9682V19.5774C130.921 20.0733 131.063 20.4772 131.346 20.7889C131.63 21.1006 131.998 21.2565 132.451 21.2565C132.919 21.2565 133.294 21.1006 133.578 20.7889C133.861 20.4772 134.003 20.0733 134.003 19.5774V19.046C134.003 18.9752 134.024 18.9185 134.067 18.876C134.123 18.8193 134.187 18.791 134.258 18.791L136.235 18.876C136.306 18.876 136.362 18.9043 136.405 18.961C136.461 19.0035 136.49 19.0602 136.49 19.131V19.3861C136.49 20.5905 136.121 21.5611 135.385 22.298C134.648 23.0206 133.67 23.382 132.451 23.382ZM138.68 23.2119C138.609 23.2119 138.545 23.1907 138.488 23.1482C138.446 23.0915 138.425 23.0277 138.425 22.9569V8.58876C138.425 8.51791 138.446 8.46124 138.488 8.41873C138.545 8.36205 138.609 8.33371 138.68 8.33371H140.635C140.706 8.33371 140.763 8.36205 140.805 8.41873C140.862 8.46124 140.89 8.51791 140.89 8.58876V22.9569C140.89 23.0277 140.862 23.0915 140.805 23.1482C140.763 23.1907 140.706 23.2119 140.635 23.2119H138.68ZM150.808 8.33371C150.879 8.33371 150.936 8.36205 150.978 8.41873C151.035 8.46124 151.063 8.51791 151.063 8.58876V10.2041C151.063 10.275 151.035 10.3387 150.978 10.3954C150.936 10.4379 150.879 10.4592 150.808 10.4592H148.109C148.038 10.4592 148.003 10.4946 148.003 10.5654V22.9569C148.003 23.0277 147.974 23.0915 147.918 23.1482C147.875 23.1907 147.818 23.2119 147.748 23.2119H145.792C145.721 23.2119 145.658 23.1907 145.601 23.1482C145.558 23.0915 145.537 23.0277 145.537 22.9569V10.5654C145.537 10.4946 145.502 10.4592 145.431 10.4592H142.88C142.809 10.4592 142.746 10.4379 142.689 10.3954C142.646 10.3387 142.625 10.275 142.625 10.2041V8.58876C142.625 8.51791 142.646 8.46124 142.689 8.41873C142.746 8.36205 142.809 8.33371 142.88 8.33371H150.808ZM153.043 23.2119C152.972 23.2119 152.908 23.1907 152.852 23.1482C152.809 23.0915 152.788 23.0277 152.788 22.9569V8.58876C152.788 8.51791 152.809 8.46124 152.852 8.41873C152.908 8.36205 152.972 8.33371 153.043 8.33371H154.999C155.069 8.33371 155.126 8.36205 155.169 8.41873C155.225 8.46124 155.254 8.51791 155.254 8.58876V22.9569C155.254 23.0277 155.225 23.0915 155.169 23.1482C155.126 23.1907 155.069 23.2119 154.999 23.2119H153.043ZM164.959 10.2041C164.959 10.275 164.931 10.3387 164.874 10.3954C164.832 10.4379 164.775 10.4592 164.704 10.4592H160.113C160.042 10.4592 160.007 10.4946 160.007 10.5654V14.5826C160.007 14.6534 160.042 14.6888 160.113 14.6888H162.834C162.904 14.6888 162.961 14.7172 163.004 14.7738C163.06 14.8164 163.089 14.873 163.089 14.9439V16.5805C163.089 16.6513 163.06 16.7151 163.004 16.7718C162.961 16.8143 162.904 16.8355 162.834 16.8355H160.113C160.042 16.8355 160.007 16.871 160.007 16.9418V20.9802C160.007 21.051 160.042 21.0865 160.113 21.0865H164.704C164.775 21.0865 164.832 21.1148 164.874 21.1715C164.931 21.214 164.959 21.2707 164.959 21.3415V22.9569C164.959 23.0277 164.931 23.0915 164.874 23.1482C164.832 23.1907 164.775 23.2119 164.704 23.2119H157.796C157.725 23.2119 157.662 23.1907 157.605 23.1482C157.563 23.0915 157.541 23.0277 157.541 22.9569V8.58876C157.541 8.51791 157.563 8.46124 157.605 8.41873C157.662 8.36205 157.725 8.33371 157.796 8.33371H164.704C164.775 8.33371 164.832 8.36205 164.874 8.41873C164.931 8.46124 164.959 8.51791 164.959 8.58876V10.2041ZM170.285 23.382C169.109 23.382 168.159 23.0277 167.437 22.3192C166.714 21.6107 166.353 20.6826 166.353 19.5349V18.9823C166.353 18.9114 166.374 18.8547 166.417 18.8122C166.473 18.7555 166.537 18.7272 166.608 18.7272H168.542C168.613 18.7272 168.67 18.7555 168.712 18.8122C168.769 18.8547 168.797 18.9114 168.797 18.9823V19.4073C168.797 19.96 168.932 20.4063 169.201 20.7464C169.484 21.0865 169.846 21.2565 170.285 21.2565C170.724 21.2565 171.085 21.1006 171.369 20.7889C171.652 20.463 171.794 20.0379 171.794 19.5136C171.794 19.1452 171.716 18.8264 171.56 18.5572C171.404 18.2879 171.185 18.0329 170.901 17.792C170.618 17.5511 170.164 17.204 169.541 16.7505C168.832 16.2404 168.259 15.787 167.819 15.3902C167.394 14.9935 167.033 14.5188 166.735 13.9662C166.452 13.3994 166.31 12.7476 166.31 12.0108C166.31 10.8347 166.665 9.89946 167.373 9.20515C168.081 8.51083 169.017 8.16367 170.179 8.16367C171.355 8.16367 172.304 8.53208 173.027 9.26891C173.749 9.99157 174.111 10.9551 174.111 12.1595V12.6696C174.111 12.7405 174.082 12.8043 174.026 12.8609C173.983 12.9034 173.926 12.9247 173.856 12.9247H171.943C171.872 12.9247 171.808 12.9034 171.751 12.8609C171.709 12.8043 171.688 12.7405 171.688 12.6696V12.117C171.688 11.5644 171.546 11.1251 171.263 10.7992C170.993 10.4592 170.632 10.2891 170.179 10.2891C169.754 10.2891 169.406 10.445 169.137 10.7567C168.868 11.0543 168.733 11.4723 168.733 12.0108C168.733 12.5209 168.875 12.953 169.158 13.3073C169.456 13.6615 170.03 14.1504 170.88 14.7738C171.744 15.4115 172.396 15.9358 172.835 16.3467C173.275 16.7434 173.615 17.1827 173.856 17.6645C174.097 18.1462 174.217 18.7201 174.217 19.3861C174.217 20.5905 173.856 21.5611 173.133 22.298C172.41 23.0206 171.461 23.382 170.285 23.382Z" fill="white"/>
    <path d="M104.699 30.6679C104.699 30.7583 104.663 30.8396 104.591 30.9119C104.536 30.9661 104.464 30.9932 104.374 30.9932H98.5456C98.4552 30.9932 98.4101 31.0384 98.4101 31.1288V36.2521C98.4101 36.3425 98.4552 36.3877 98.5456 36.3877H101.988C102.079 36.3877 102.151 36.4238 102.205 36.4961C102.277 36.5503 102.314 36.6226 102.314 36.7129V38.8002C102.314 38.8906 102.277 38.9719 102.205 39.0442C102.151 39.0984 102.079 39.1255 101.988 39.1255H98.5456C98.4552 39.1255 98.4101 39.1707 98.4101 39.2611V46.9325C98.4101 47.0229 98.3739 47.1042 98.3016 47.1765C98.2474 47.2307 98.1751 47.2578 98.0848 47.2578H95.5909C95.5005 47.2578 95.4192 47.2307 95.3469 47.1765C95.2927 47.1042 95.2656 47.0229 95.2656 46.9325V28.6078C95.2656 28.5174 95.2927 28.4451 95.3469 28.3909C95.4192 28.3186 95.5005 28.2825 95.5909 28.2825H104.374C104.464 28.2825 104.536 28.3186 104.591 28.3909C104.663 28.4451 104.699 28.5174 104.699 28.6078V30.6679ZM106.842 47.2578C106.751 47.2578 106.67 47.2307 106.598 47.1765C106.543 47.1042 106.516 47.0229 106.516 46.9325V28.6078C106.516 28.5174 106.543 28.4451 106.598 28.3909C106.67 28.3186 106.751 28.2825 106.842 28.2825H109.335C109.426 28.2825 109.498 28.3186 109.552 28.3909C109.625 28.4451 109.661 28.5174 109.661 28.6078V46.9325C109.661 47.0229 109.625 47.1042 109.552 47.1765C109.498 47.2307 109.426 47.2578 109.335 47.2578H106.842ZM120.277 28.6078C120.277 28.5174 120.304 28.4451 120.358 28.3909C120.431 28.3186 120.512 28.2825 120.602 28.2825H123.069C123.159 28.2825 123.232 28.3186 123.286 28.3909C123.358 28.4451 123.394 28.5174 123.394 28.6078V46.9325C123.394 47.0229 123.358 47.1042 123.286 47.1765C123.232 47.2307 123.159 47.2578 123.069 47.2578H120.223C120.042 47.2578 119.925 47.1675 119.87 46.9867L115.831 35.4931C115.813 35.4389 115.777 35.4208 115.723 35.4389C115.687 35.4389 115.669 35.466 115.669 35.5202L115.696 46.9325C115.696 47.0229 115.66 47.1042 115.587 47.1765C115.533 47.2307 115.461 47.2578 115.371 47.2578H112.904C112.813 47.2578 112.732 47.2307 112.66 47.1765C112.606 47.1042 112.578 47.0229 112.578 46.9325V28.6078C112.578 28.5174 112.606 28.4451 112.66 28.3909C112.732 28.3186 112.813 28.2825 112.904 28.2825H115.696C115.877 28.2825 115.994 28.3728 116.048 28.5536L120.114 39.9659C120.132 40.0201 120.16 40.0472 120.196 40.0472C120.25 40.0291 120.277 39.993 120.277 39.9388V28.6078ZM134.016 47.2578C133.799 47.2578 133.682 47.1584 133.664 46.9596L133.149 44.1133C133.149 44.023 133.094 43.9778 132.986 43.9778H129.028C128.92 43.9778 128.866 44.023 128.866 44.1133L128.351 46.9596C128.333 47.1584 128.215 47.2578 127.998 47.2578H125.531C125.278 47.2578 125.179 47.1403 125.233 46.9054L129.245 28.5807C129.281 28.3819 129.399 28.2825 129.598 28.2825H132.471C132.67 28.2825 132.787 28.3819 132.823 28.5807L136.835 46.9054V47.0138C136.835 47.1765 136.736 47.2578 136.537 47.2578H134.016ZM129.354 41.3755C129.336 41.4658 129.381 41.511 129.489 41.511H132.498C132.607 41.511 132.652 41.4658 132.634 41.3755L131.061 32.8094C131.043 32.7552 131.016 32.7281 130.98 32.7281C130.944 32.7281 130.917 32.7552 130.899 32.8094L129.354 41.3755ZM146.379 28.6078C146.379 28.5174 146.406 28.4451 146.46 28.3909C146.532 28.3186 146.614 28.2825 146.704 28.2825H149.171C149.261 28.2825 149.333 28.3186 149.388 28.3909C149.46 28.4451 149.496 28.5174 149.496 28.6078V46.9325C149.496 47.0229 149.46 47.1042 149.388 47.1765C149.333 47.2307 149.261 47.2578 149.171 47.2578H146.324C146.144 47.2578 146.026 47.1675 145.972 46.9867L141.933 35.4931C141.915 35.4389 141.879 35.4208 141.825 35.4389C141.788 35.4389 141.77 35.466 141.77 35.5202L141.797 46.9325C141.797 47.0229 141.761 47.1042 141.689 47.1765C141.635 47.2307 141.563 47.2578 141.472 47.2578H139.005C138.915 47.2578 138.834 47.2307 138.761 47.1765C138.707 47.1042 138.68 47.0229 138.68 46.9325V28.6078C138.68 28.5174 138.707 28.4451 138.761 28.3909C138.834 28.3186 138.915 28.2825 139.005 28.2825H141.797C141.978 28.2825 142.096 28.3728 142.15 28.5536L146.216 39.9659C146.234 40.0201 146.261 40.0472 146.297 40.0472C146.352 40.0291 146.379 39.993 146.379 39.9388V28.6078ZM157.19 47.4747C155.654 47.4747 154.416 47.0138 153.476 46.0922C152.555 45.1525 152.094 43.9145 152.094 42.3784V33.1347C152.094 31.5806 152.555 30.3517 153.476 29.4481C154.416 28.5264 155.654 28.0656 157.19 28.0656C158.744 28.0656 159.991 28.5264 160.931 29.4481C161.871 30.3517 162.341 31.5806 162.341 33.1347V33.46C162.341 33.5504 162.304 33.6317 162.232 33.704C162.178 33.7763 162.106 33.8124 162.015 33.8124L159.494 33.9209C159.277 33.9209 159.169 33.8124 159.169 33.5956V32.9179C159.169 32.2854 158.988 31.7703 158.627 31.3727C158.265 30.9752 157.787 30.7764 157.19 30.7764C156.612 30.7764 156.142 30.9752 155.781 31.3727C155.419 31.7703 155.238 32.2854 155.238 32.9179V42.6224C155.238 43.2549 155.419 43.77 155.781 44.1675C156.142 44.5651 156.612 44.7639 157.19 44.7639C157.787 44.7639 158.265 44.5651 158.627 44.1675C158.988 43.77 159.169 43.2549 159.169 42.6224V41.9447C159.169 41.8544 159.196 41.7821 159.25 41.7279C159.323 41.6556 159.404 41.6194 159.494 41.6194L162.015 41.7279C162.106 41.7279 162.178 41.764 162.232 41.8363C162.304 41.8905 162.341 41.9628 162.341 42.0531V42.3784C162.341 43.9145 161.871 45.1525 160.931 46.0922C159.991 47.0138 158.744 47.4747 157.19 47.4747ZM174.269 30.6679C174.269 30.7583 174.233 30.8396 174.16 30.9119C174.106 30.9661 174.034 30.9932 173.944 30.9932H168.088C167.998 30.9932 167.953 31.0384 167.953 31.1288V36.2521C167.953 36.3425 167.998 36.3877 168.088 36.3877H171.558C171.648 36.3877 171.721 36.4238 171.775 36.4961C171.847 36.5503 171.883 36.6226 171.883 36.7129V38.8002C171.883 38.8906 171.847 38.9719 171.775 39.0442C171.721 39.0984 171.648 39.1255 171.558 39.1255H168.088C167.998 39.1255 167.953 39.1707 167.953 39.2611V44.4115C167.953 44.5019 167.998 44.5471 168.088 44.5471H173.944C174.034 44.5471 174.106 44.5832 174.16 44.6555C174.233 44.7097 174.269 44.782 174.269 44.8723V46.9325C174.269 47.0229 174.233 47.1042 174.16 47.1765C174.106 47.2307 174.034 47.2578 173.944 47.2578H165.134C165.043 47.2578 164.962 47.2307 164.89 47.1765C164.835 47.1042 164.808 47.0229 164.808 46.9325V28.6078C164.808 28.5174 164.835 28.4451 164.89 28.3909C164.962 28.3186 165.043 28.2825 165.134 28.2825H173.944C174.034 28.2825 174.106 28.3186 174.16 28.3909C174.233 28.4451 174.269 28.5174 174.269 28.6078V30.6679Z" fill="white"/>
    <path d="M104.647 55.7342C104.647 55.8241 104.611 55.905 104.539 55.977C104.485 56.0309 104.413 56.0579 104.323 56.0579H98.5229C98.433 56.0579 98.388 56.1029 98.388 56.1928V61.2916C98.388 61.3816 98.433 61.4265 98.5229 61.4265H101.949C102.039 61.4265 102.111 61.4625 102.165 61.5344C102.237 61.5884 102.273 61.6603 102.273 61.7502V63.8275C102.273 63.9175 102.237 63.9984 102.165 64.0703C102.111 64.1243 102.039 64.1513 101.949 64.1513H98.5229C98.433 64.1513 98.388 64.1962 98.388 64.2862V71.9209C98.388 72.0108 98.352 72.0918 98.2801 72.1637C98.2261 72.2177 98.1542 72.2446 98.0643 72.2446H95.5823C95.4924 72.2446 95.4114 72.2177 95.3395 72.1637C95.2855 72.0918 95.2586 72.0108 95.2586 71.9209V53.6839C95.2586 53.5939 95.2855 53.522 95.3395 53.4681C95.4114 53.3961 95.4924 53.3601 95.5823 53.3601H104.323C104.413 53.3601 104.485 53.3961 104.539 53.4681C104.611 53.522 104.647 53.5939 104.647 53.6839V55.7342ZM113.142 72.2446C112.927 72.2446 112.81 72.1457 112.792 71.9479L112.279 69.1152C112.279 69.0253 112.225 68.9803 112.117 68.9803H108.178C108.071 68.9803 108.017 69.0253 108.017 69.1152L107.504 71.9479C107.486 72.1457 107.369 72.2446 107.153 72.2446H104.698C104.446 72.2446 104.348 72.1277 104.402 71.8939L108.394 53.6569C108.43 53.4591 108.547 53.3601 108.745 53.3601H111.605C111.802 53.3601 111.919 53.4591 111.955 53.6569L115.948 71.8939V72.0018C115.948 72.1637 115.849 72.2446 115.651 72.2446H113.142ZM108.502 66.3904C108.484 66.4804 108.529 66.5253 108.637 66.5253H111.632C111.739 66.5253 111.784 66.4804 111.766 66.3904L110.202 57.8654C110.184 57.8115 110.157 57.7845 110.121 57.7845C110.085 57.7845 110.058 57.8115 110.04 57.8654L108.502 66.3904ZM122.111 72.4605C120.582 72.4605 119.35 72.0018 118.415 71.0846C117.497 70.1493 117.039 68.9174 117.039 67.3886V58.1892C117.039 56.6424 117.497 55.4194 118.415 54.5202C119.35 53.6029 120.582 53.1443 122.111 53.1443C123.657 53.1443 124.898 53.6029 125.834 54.5202C126.769 55.4194 127.236 56.6424 127.236 58.1892V58.5129C127.236 58.6028 127.2 58.6838 127.128 58.7557C127.074 58.8276 127.003 58.8636 126.913 58.8636L124.404 58.9715C124.188 58.9715 124.08 58.8636 124.08 58.6478V57.9734C124.08 57.3439 123.9 56.8313 123.54 56.4356C123.181 56.0399 122.704 55.8421 122.111 55.8421C121.535 55.8421 121.067 56.0399 120.708 56.4356C120.348 56.8313 120.168 57.3439 120.168 57.9734V67.6314C120.168 68.2609 120.348 68.7735 120.708 69.1692C121.067 69.5648 121.535 69.7627 122.111 69.7627C122.704 69.7627 123.181 69.5648 123.54 69.1692C123.9 68.7735 124.08 68.2609 124.08 67.6314V66.957C124.08 66.867 124.107 66.7951 124.161 66.7411C124.233 66.6692 124.314 66.6332 124.404 66.6332L126.913 66.7411C127.003 66.7411 127.074 66.7771 127.128 66.8491C127.2 66.903 127.236 66.975 127.236 67.0649V67.3886C127.236 68.9174 126.769 70.1493 125.834 71.0846C124.898 72.0018 123.657 72.4605 122.111 72.4605ZM130.016 72.2446C129.926 72.2446 129.845 72.2177 129.773 72.1637C129.719 72.0918 129.692 72.0108 129.692 71.9209V53.6839C129.692 53.5939 129.719 53.522 129.773 53.4681C129.845 53.3961 129.926 53.3601 130.016 53.3601H132.498C132.588 53.3601 132.66 53.3961 132.714 53.4681C132.786 53.522 132.822 53.5939 132.822 53.6839V71.9209C132.822 72.0108 132.786 72.0918 132.714 72.1637C132.66 72.2177 132.588 72.2446 132.498 72.2446H130.016ZM136.049 72.2446C135.959 72.2446 135.878 72.2177 135.806 72.1637C135.752 72.0918 135.725 72.0108 135.725 71.9209V53.6839C135.725 53.5939 135.752 53.522 135.806 53.4681C135.878 53.3961 135.959 53.3601 136.049 53.3601H138.531C138.621 53.3601 138.693 53.3961 138.747 53.4681C138.819 53.522 138.855 53.5939 138.855 53.6839V69.412C138.855 69.5019 138.9 69.5468 138.99 69.5468H144.817C144.907 69.5468 144.979 69.5828 145.033 69.6548C145.105 69.7087 145.141 69.7807 145.141 69.8706V71.9209C145.141 72.0108 145.105 72.0918 145.033 72.1637C144.979 72.2177 144.907 72.2446 144.817 72.2446H136.049ZM147.246 72.2446C147.156 72.2446 147.075 72.2177 147.003 72.1637C146.949 72.0918 146.922 72.0108 146.922 71.9209V53.6839C146.922 53.5939 146.949 53.522 147.003 53.4681C147.075 53.3961 147.156 53.3601 147.246 53.3601H149.728C149.818 53.3601 149.89 53.3961 149.944 53.4681C150.016 53.522 150.052 53.5939 150.052 53.6839V71.9209C150.052 72.0108 150.016 72.0918 149.944 72.1637C149.89 72.2177 149.818 72.2446 149.728 72.2446H147.246ZM162.64 53.3601C162.73 53.3601 162.802 53.3961 162.856 53.4681C162.928 53.522 162.964 53.5939 162.964 53.6839V55.7342C162.964 55.8241 162.928 55.905 162.856 55.977C162.802 56.0309 162.73 56.0579 162.64 56.0579H159.214C159.124 56.0579 159.079 56.1029 159.079 56.1928V71.9209C159.079 72.0108 159.043 72.0918 158.971 72.1637C158.917 72.2177 158.845 72.2446 158.756 72.2446H156.274C156.184 72.2446 156.103 72.2177 156.031 72.1637C155.977 72.0918 155.95 72.0108 155.95 71.9209V56.1928C155.95 56.1029 155.905 56.0579 155.815 56.0579H152.578C152.488 56.0579 152.407 56.0309 152.335 55.977C152.281 55.905 152.254 55.8241 152.254 55.7342V53.6839C152.254 53.5939 152.281 53.522 152.335 53.4681C152.407 53.3961 152.488 53.3601 152.578 53.3601H162.64ZM168.606 72.2177C168.517 72.2177 168.436 72.1907 168.364 72.1367C168.31 72.0648 168.283 71.9838 168.283 71.8939V64.529L168.256 64.3671L164.506 53.7378C164.488 53.7019 164.479 53.6569 164.479 53.6029C164.479 53.4411 164.578 53.3601 164.776 53.3601H167.365C167.563 53.3601 167.689 53.4501 167.743 53.6299L169.767 60.5632C169.784 60.6172 169.811 60.6442 169.847 60.6442C169.883 60.6442 169.91 60.6172 169.928 60.5632L171.952 53.6299C172.006 53.4501 172.132 53.3601 172.329 53.3601H174.919C175.027 53.3601 175.108 53.3961 175.162 53.4681C175.216 53.522 175.225 53.6119 175.189 53.7378L171.439 64.3671L171.412 64.529V71.8939C171.412 71.9838 171.376 72.0648 171.304 72.1367C171.25 72.1907 171.178 72.2177 171.088 72.2177H168.606Z" fill="white"/>
</svg>
