<?xml version="1.0" encoding="utf-8"?>
<!-- Generator: Adobe Illustrator 24.1.3, SVG Export Plug-In . SVG Version: 6.00 Build 0)  -->
<svg version="1.1" id="Livello_1" xmlns="http://www.w3.org/2000/svg" xmlns:xlink="http://www.w3.org/1999/xlink" x="0px" y="0px"
	 viewBox="0 0 300 89" style="enable-background:new 0 0 300 89;" xml:space="preserve">
<style type="text/css">
	.st0{fill-rule:evenodd;clip-rule:evenodd;fill:#FFFFFF;}
	.st1{fill:#FFFFFF;}
</style>
<g>
	<path class="st0" d="M250.07,12.94c7.21-6.04,16.48-8.02,25.02-6.19c-5.89-0.08-11.84,1.88-16.71,5.96
		c-10.81,9.05-12.23,25.16-3.17,35.96c9.06,10.8,25.16,12.23,35.96,3.17c2-1.68,3.68-3.6,5.04-5.68c-1.73,4.42-4.57,8.48-8.46,11.75
		c-12.41,10.4-30.92,8.77-41.32-3.65C236.02,41.85,237.66,23.34,250.07,12.94"/>
	<path class="st0" d="M285.14,14.12c5.82,3.33,9.44,9.04,10.32,15.2c-1.41-3.96-4.18-7.45-8.11-9.7
		c-8.73-4.99-19.85-1.96-24.84,6.76s-1.96,19.84,6.76,24.84c1.62,0.93,3.32,1.57,5.04,1.96c-3.38-0.07-6.8-0.96-9.94-2.76
		c-10.02-5.73-13.5-18.51-7.77-28.53C262.34,11.86,275.12,8.38,285.14,14.12"/>
	<path class="st0" d="M289.72,42.5c-2.26,3.73-6.03,5.98-10.04,6.45c2.59-0.85,4.91-2.59,6.43-5.11c3.38-5.58,1.6-12.85-3.98-16.24
		c-5.58-3.38-12.85-1.6-16.24,3.98c-0.63,1.04-1.08,2.13-1.36,3.24c0.1-2.2,0.74-4.4,1.95-6.41c3.89-6.41,12.25-8.46,18.66-4.57
		C291.57,27.73,293.61,36.09,289.72,42.5"/>
</g>
<g>
	<path class="st1" d="M248.54,85.47c-1.02,0.24-2.12,0.44-3.18,0.44c-4.52,0-7.66-2.26-7.66-6.98c0-4.78,2.92-7.46,7.66-7.46
		c0.92,0,2.14,0.18,3.16,0.58l-0.2,2.36c-1.06-0.6-2.02-0.74-3.02-0.74c-2.88,0-4.68,2.2-4.68,5.06c0,2.84,1.76,4.98,4.74,4.98
		c1.1,0,2.4-0.24,3.06-0.58L248.54,85.47z"/>
	<path class="st1" d="M260.86,85.47c-1.02,0.24-2.12,0.44-3.18,0.44c-4.52,0-7.66-2.26-7.66-6.98c0-4.78,2.92-7.46,7.66-7.46
		c0.92,0,2.14,0.18,3.16,0.58l-0.2,2.36c-1.06-0.6-2.02-0.74-3.02-0.74c-2.88,0-4.68,2.2-4.68,5.06c0,2.84,1.76,4.98,4.74,4.98
		c1.1,0,2.4-0.24,3.06-0.58L260.86,85.47z"/>
	<path class="st1" d="M267.42,71.71h3.16l5.48,13.96h-3.1l-1.2-3.2h-5.66l-1.22,3.2h-2.9L267.42,71.71z M268.96,74.51h-0.04
		l-2.02,5.76h4.08L268.96,74.51z"/>
	<path class="st1" d="M278.76,71.71h7.76v2.2h-4.96v3.44h4.72v2.2h-4.72v6.12h-2.8L278.76,71.71L278.76,71.71z"/>
	<path class="st1" d="M297.16,74.27c-0.88-0.38-1.86-0.6-2.84-0.6c-0.96,0-2.2,0.42-2.2,1.94c0,2.42,6.12,1.4,6.12,6.08
		c0,3.06-2.42,4.22-5.24,4.22c-1.52,0-2.2-0.2-3.58-0.54l0.26-2.52c0.96,0.52,2.06,0.86,3.16,0.86c1.06,0,2.48-0.54,2.48-1.8
		c0-2.66-6.12-1.56-6.12-6.18c0-3.12,2.42-4.26,4.88-4.26c1.2,0,2.32,0.16,3.34,0.5L297.16,74.27z"/>
</g>
<path class="st1" d="M37.86,29.1c-0.8-1.02-2.7-2.7-3.69-3.69c-1.53-1.53-1.93-1.99-1.93-4.6V9.69c0-1.59-2.44-1.36-2.44,0.06
	c0,0-0.17,19.35,0,21c0.17,1.64-0.64,2.93,1.99,4.6c2.91,1.85,7.09,3.06,7.09,3.06s0.06-4.26,0.12-5.85
	C39.05,30.98,38.65,30.12,37.86,29.1 M36.63,35.15c0,0.01-0.01,0.02-0.01,0.02c-4.08-1.66-4.79-1.34-4.29-7.54
	C37.16,30.58,36.82,31.67,36.63,35.15 M41.42,32.56c0.06,1.59,0.11,5.85,0.11,5.85s4.18-1.22,7.09-3.06
	c2.63-1.67,1.82-2.95,1.99-4.6c0.17-1.65,0-21,0-21c0-1.42-2.44-1.65-2.44-0.06v11.12c0,2.61-0.4,3.06-1.93,4.6
	c-0.99,0.99-2.89,2.67-3.69,3.69C41.76,30.12,41.36,30.98,41.42,32.56 M48.07,27.63c0.51,6.2-0.21,5.87-4.28,7.54
	c0,0-0.01-0.01-0.01-0.02C43.59,31.67,43.25,30.58,48.07,27.63 M43.43,17.79c-1.42-2.54,0,0-1.96-3.31V2.2c0-1.92-2.42-1.77-2.42,0
	l0.03,12.26c0,0-2.07,3.48-2.65,4.87c-0.58,1.38-1.36,3.05,0.61,5.28c0.15,0.17,0.39,0.64,3.26,3.33l0.06-0.06
	c0,0-0.02-0.02,2.5-2.5C45.97,22.29,44.86,20.33,43.43,17.79 M40.28,24.94c-4.7-2.52-1.34-5.92,0-8.18l0.12,0.19
	C43.85,22.12,42.91,22.9,40.28,24.94 M38.81,44.1c-0.12-2.41-0.97-4.54-5.9-6.39c-4.14-1.55-10-1.89-14.26-2.57
	c-4.26-0.69-11.33-1.85-14.86-5.22c2.65,8.81,9.29,12.5,16.03,13.94c7.63,1.63,14.47,2.32,18.63,5.21l0.42,0.29
	C38.63,47.33,38.93,46.52,38.81,44.1 M36.7,45.27c-3.65-1.4-6.08-1.76-12.66-3.08c-6.57-1.32-10.5-2.53-14.05-6.27
	c5.71,2.19,14.85,2.98,19.84,4.04C34.81,41.02,36.17,42.31,36.7,45.27L36.7,45.27z M41.48,49.37l0.42-0.29
	c4.16-2.89,11.01-3.58,18.63-5.21c6.74-1.44,13.38-5.13,16.03-13.94c-3.54,3.38-10.6,4.54-14.86,5.22s-10.12,1.02-14.26,2.57
	c-4.93,1.85-5.79,3.98-5.9,6.39C41.42,46.52,41.72,47.34,41.48,49.37 M43.65,45.27c0.53-2.96,1.89-4.25,6.88-5.31
	s14.13-1.85,19.84-4.04c-3.55,3.74-7.48,4.95-14.05,6.27C49.73,43.51,47.3,43.87,43.65,45.27L43.65,45.27z M38.56,55.3
	c0.05-4.74-2.66-6.07-6.71-7.13c-4.04-1.06-9.69-1.86-14.48-3.25c-4.79-1.38-7.45-2.29-10.7-5.8c0.69,6.87,5.48,11.71,11.39,13.79
	c5.91,2.07,5.59,1.65,8.78,2.45c3.2,0.8,3.78,1.97,3.78,3.94v4.04h7.93C38.72,54.19,38.51,60.04,38.56,55.3 M36.26,60.77h-3.23
	c0,0,0.07-1.34-0.12-3.64c-0.25-3.04-3.79-3.3-9.62-4.92c-4-1.11-9.22-2.55-11.55-6.54c1.42,0.62,4.26,1.82,8.9,2.78
	c4.41,0.91,6.93,1.42,10.99,2.27c3.87,0.8,4.62,3.17,4.62,5.78L36.26,60.77L36.26,60.77z M41.65,63.35h7.93V59.3
	c0-1.97,0.59-3.14,3.78-3.94c3.2-0.8,2.88-0.37,8.79-2.45c5.91-2.08,10.7-6.92,11.39-13.79c-3.25,3.51-5.91,4.42-10.7,5.8
	c-4.79,1.38-10.43,2.18-14.48,3.25c-4.05,1.06-6.76,2.39-6.71,7.13C41.7,60.05,41.49,54.2,41.65,63.35 M43.95,56.51
	c0-2.61,0.76-4.98,4.62-5.78c4.06-0.84,6.58-1.36,10.99-2.27c4.64-0.96,7.48-2.16,8.9-2.78c-2.33,4-7.55,5.43-11.55,6.54
	c-5.82,1.62-9.37,1.88-9.62,4.92c-0.19,2.3-0.12,3.64-0.12,3.64h-3.23L43.95,56.51L43.95,56.51z M22.54,85.52
	c-1.02,0.24-2.11,0.44-3.17,0.44c-4.51,0-7.64-2.26-7.64-6.96c0-4.77,2.91-7.44,7.64-7.44c0.92,0,2.13,0.18,3.15,0.58l-0.2,2.35
	c-1.06-0.6-2.01-0.74-3.01-0.74c-2.87,0-4.67,2.19-4.67,5.05c0,2.83,1.76,4.97,4.73,4.97c1.1,0,2.39-0.24,3.05-0.58L22.54,85.52z
	 M35.47,74.49c-1.08-0.5-2.47-0.74-3.59-0.74c-3.25,0-5.05,2.19-5.05,5.05c0,2.83,1.75,4.97,4.73,4.97c0.76,0,1.36-0.08,1.84-0.2
	v-3.63h-2.95v-2.19h5.63v7.5c-1.48,0.4-3.01,0.72-4.51,0.72c-4.51,0-7.64-2.26-7.64-6.96c0-4.77,2.91-7.44,7.64-7.44
	c1.62,0,2.89,0.22,4.09,0.58L35.47,74.49z M38.76,71.79h2.79v13.92h-2.79V71.79z M52.08,80.33h-4.07l2.01-5.75h0.04L52.08,80.33z
	 M43.11,85.72H46l1.21-3.19h5.65l1.2,3.19h3.09l-5.46-13.93h-3.15L43.11,85.72z M61.5,73.99h0.92c1.4,0,2.96,0.14,2.96,1.82
	c0,1.74-1.58,1.94-2.96,1.94H61.5V73.99z M58.71,85.72h2.79v-5.79h0.9c1.18,0,1.54,0.4,1.94,1.44l1.68,4.35h3.11l-2.23-5.45
	c-0.28-0.62-0.72-1.38-1.48-1.44V78.8c1.78-0.24,2.87-1.6,2.87-3.23c0-3.87-3.57-3.77-6.56-3.77h-3.01v13.92H58.71z"/>
<g>
	<path class="st1" d="M98.2,23.86h1.64c1.33,0,2.6,0.21,2.6,1.81c0,0.82-0.6,1.39-1.38,1.53v0.02c0.3,0.12,0.44,0.26,0.65,0.67
		l1.27,2.67h-1.09l-1.03-2.32c-0.3-0.65-0.61-0.65-1.12-0.65h-0.57v2.98H98.2V23.86z M99.17,26.74h0.81c0.91,0,1.45-0.4,1.45-1.05
		c0-0.6-0.46-0.99-1.34-0.99h-0.92V26.74z"/>
	<path class="st1" d="M104.42,23.86h3.75v0.84h-2.79v1.96h2.54v0.84h-2.54v2.21h2.79v0.84h-3.75V23.86z"/>
	<path class="st1" d="M112.99,24.87c-0.49-0.19-0.76-0.28-1.26-0.28c-0.54,0-1.17,0.19-1.17,0.89c0,1.29,2.88,0.99,2.88,3.2
		c0,1.43-1.1,2-2.45,2c-0.47,0-0.93-0.13-1.37-0.28l0.1-0.89c0.33,0.13,0.9,0.33,1.39,0.33c0.55,0,1.31-0.31,1.31-1.09
		c0-1.5-2.88-1.08-2.88-3.17c0-1.19,0.94-1.82,2.15-1.82c0.44,0,0.97,0.08,1.43,0.24L112.99,24.87z"/>
	<path class="st1" d="M115.03,23.86h3.75v0.84h-2.79v1.96h2.54v0.84h-2.54v2.21h2.79v0.84h-3.75V23.86z"/>
	<path class="st1" d="M122.69,23.86h1.01l2.83,6.7h-1.04l-0.68-1.69h-3.28l-0.68,1.69h-1.01L122.69,23.86z M123.15,24.76l-1.33,3.32
		h2.67L123.15,24.76z"/>
	<path class="st1" d="M127.68,23.86h1.64c1.32,0,2.6,0.21,2.6,1.81c0,0.82-0.61,1.39-1.38,1.53v0.02c0.3,0.12,0.44,0.26,0.65,0.67
		l1.27,2.67h-1.09l-1.03-2.32c-0.3-0.65-0.62-0.65-1.12-0.65h-0.58v2.98h-0.96L127.68,23.86L127.68,23.86z M128.64,26.74h0.82
		c0.91,0,1.45-0.4,1.45-1.05c0-0.6-0.46-0.99-1.34-0.99h-0.92v2.04H128.64z"/>
	<path class="st1" d="M138.47,24.96c-0.42-0.25-0.89-0.37-1.38-0.37c-1.54,0-2.57,1.11-2.57,2.62c0,1.57,1.13,2.62,2.52,2.62
		c0.48,0,1.12-0.12,1.46-0.33l0.06,0.93c-0.51,0.21-1.13,0.24-1.53,0.24c-2.12,0-3.53-1.36-3.53-3.49c0-2.06,1.5-3.44,3.54-3.44
		c0.52,0,1.03,0.08,1.51,0.29L138.47,24.96z"/>
	<path class="st1" d="M139.99,23.86h0.96v2.8h3.21v-2.8h0.96v6.7h-0.96v-3.05h-3.21v3.05h-0.96V23.86z"/>
	<path class="st1" d="M149.97,23.86h1.76c1.37,0,2.52,0.48,2.52,2.01c0,1.49-1.16,2.02-2.37,2.02h-0.94v2.68h-0.96L149.97,23.86
		L149.97,23.86z M150.93,27.04h0.95c0.6,0,1.34-0.3,1.34-1.18c0-0.84-0.88-1.15-1.48-1.15h-0.81V27.04z"/>
	<path class="st1" d="M155.54,23.86h1.64c1.33,0,2.6,0.21,2.6,1.81c0,0.82-0.6,1.39-1.38,1.53v0.02c0.3,0.12,0.44,0.26,0.65,0.67
		l1.27,2.67h-1.09l-1.03-2.32c-0.3-0.65-0.61-0.65-1.12-0.65h-0.57v2.98h-0.96L155.54,23.86L155.54,23.86z M156.51,26.74h0.81
		c0.91,0,1.45-0.4,1.45-1.05c0-0.6-0.46-0.99-1.34-0.99h-0.92V26.74z"/>
	<path class="st1" d="M164.59,23.74c2.04,0,3.22,1.48,3.22,3.46c0,2.04-1.18,3.46-3.22,3.46c-2.04,0-3.22-1.43-3.22-3.46
		C161.36,25.22,162.55,23.74,164.59,23.74z M164.59,29.83c1.54,0,2.21-1.29,2.21-2.62c0-1.36-0.73-2.63-2.21-2.62
		c-1.48-0.01-2.21,1.26-2.21,2.62C162.38,28.54,163.04,29.83,164.59,29.83z"/>
	<path class="st1" d="M174.5,25.05c-0.47-0.31-0.98-0.46-1.84-0.46c-1.54,0-2.57,1.12-2.57,2.62c0,1.57,1.13,2.62,2.52,2.62
		c0.66,0,0.84-0.07,1.08-0.12v-2.03h-1.41v-0.79h2.37v3.48c-0.36,0.12-1,0.3-2.04,0.3c-2.12,0-3.53-1.36-3.53-3.49
		c0-2.06,1.5-3.44,3.54-3.44c0.98,0,1.41,0.14,1.97,0.34L174.5,25.05z"/>
	<path class="st1" d="M176.53,23.86h1.64c1.33,0,2.6,0.21,2.6,1.81c0,0.82-0.6,1.39-1.38,1.53v0.02c0.3,0.12,0.44,0.26,0.65,0.67
		l1.27,2.67h-1.09l-1.03-2.32c-0.3-0.65-0.61-0.65-1.12-0.65h-0.57v2.98h-0.96L176.53,23.86L176.53,23.86z M177.49,26.74h0.81
		c0.91,0,1.45-0.4,1.45-1.05c0-0.6-0.46-0.99-1.34-0.99h-0.92V26.74z"/>
	<path class="st1" d="M184.81,23.86h1.01l2.83,6.7h-1.04l-0.68-1.69h-3.28l-0.68,1.69h-1.01L184.81,23.86z M185.28,24.76l-1.33,3.32
		h2.67L185.28,24.76z"/>
	<path class="st1" d="M189.87,23.86h1.58l2.1,5.57l2.06-5.57h1.58v6.7h-0.96v-5.8h-0.02l-2.22,5.8h-0.94l-2.22-5.8h-0.02v5.8h-0.96
		v-6.7H189.87z"/>
	<path class="st1" d="M204.95,23.74c2.04,0,3.22,1.48,3.22,3.46c0,2.04-1.18,3.46-3.22,3.46c-2.04,0-3.22-1.43-3.22-3.46
		C201.73,25.22,202.92,23.74,204.95,23.74z M204.95,29.83c1.54,0,2.21-1.29,2.21-2.62c0-1.36-0.73-2.63-2.21-2.62
		c-1.48-0.01-2.21,1.26-2.21,2.62C202.75,28.54,203.41,29.83,204.95,29.83z"/>
	<path class="st1" d="M209.77,23.86h1.3l2.96,5.39h0.02v-5.39h0.96v6.7h-1.23l-3.03-5.51h-0.02v5.51h-0.96L209.77,23.86
		L209.77,23.86z"/>
	<path class="st1" d="M106.59,49.12c-0.79,0.19-1.65,0.34-2.48,0.34c-3.53,0-5.97-1.76-5.97-5.44c0-3.73,2.28-5.82,5.97-5.82
		c0.72,0,1.67,0.14,2.46,0.45l-0.16,1.84c-0.83-0.47-1.57-0.58-2.35-0.58c-2.25,0-3.65,1.71-3.65,3.95c0,2.21,1.37,3.88,3.7,3.88
		c0.86,0,1.87-0.19,2.38-0.45L106.59,49.12z"/>
	<path class="st1" d="M108.22,37.58h2.09v11.7h-2.09V37.58z"/>
	<path class="st1" d="M112.71,37.79h2.09v2h-2.09V37.79z M112.71,41.25h2.09v8.03h-2.09V41.25z"/>
	<path class="st1" d="M117.13,41.25h1.95v1.12h0.03c0.65-0.98,1.61-1.31,2.38-1.31c1.12,0,1.92,0.42,2.37,1.42
		c0.48-0.97,1.53-1.42,2.51-1.42c1.98,0,2.54,1.36,2.54,3.15v5.07h-2.09v-4.79c0-0.75,0-1.81-1.2-1.81c-1.39,0-1.56,1.65-1.56,2.7
		v3.9h-2.09v-4.79c0-0.75,0-1.81-1.2-1.81c-1.39,0-1.56,1.65-1.56,2.7v3.9h-2.09L117.13,41.25L117.13,41.25z"/>
	<path class="st1" d="M131.54,41.67c0.81-0.37,1.9-0.61,2.79-0.61c2.45,0,3.46,1.01,3.46,3.38v1.03c0,0.81,0.02,1.42,0.03,2.01
		c0.01,0.61,0.04,1.17,0.09,1.79h-1.84c-0.08-0.42-0.08-0.95-0.09-1.2h-0.03c-0.48,0.89-1.53,1.39-2.48,1.39
		c-1.42,0-2.81-0.86-2.81-2.39c0-1.2,0.58-1.9,1.37-2.29c0.8-0.39,1.82-0.47,2.7-0.47h1.15c0-1.29-0.58-1.73-1.81-1.73
		c-0.89,0-1.78,0.34-2.48,0.87L131.54,41.67z M133.99,47.94c0.64,0,1.14-0.28,1.47-0.72c0.34-0.45,0.44-1.03,0.44-1.65H135
		c-0.94,0-2.32,0.16-2.32,1.39C132.66,47.64,133.24,47.94,133.99,47.94z"/>
	<path class="st1" d="M140.7,42.78h-1.54v-1.53h1.54v-1.61l2.09-0.67v2.28h1.86v1.53h-1.86v3.74c0,0.69,0.19,1.33,0.98,1.33
		c0.38,0,0.73-0.08,0.95-0.22l0.06,1.65c-0.44,0.12-0.92,0.19-1.54,0.19c-1.64,0-2.54-1.01-2.54-2.6V42.78z"/>
	<path class="st1" d="M152.68,48.83c-0.76,0.42-1.64,0.64-2.76,0.64c-2.65,0-4.2-1.53-4.2-4.16c0-2.32,1.23-4.24,3.73-4.24
		c2.98,0,3.82,2.04,3.82,4.85h-5.55c0.09,1.29,1,2.03,2.29,2.03c1.01,0,1.89-0.38,2.67-0.81V48.83z M151.27,44.48
		c-0.06-1.01-0.53-1.89-1.7-1.89s-1.76,0.81-1.86,1.89H151.27z"/>
	<path class="st1" d="M167.67,49.12c-0.79,0.19-1.65,0.34-2.48,0.34c-3.53,0-5.97-1.76-5.97-5.44c0-3.73,2.28-5.82,5.97-5.82
		c0.72,0,1.67,0.14,2.46,0.45l-0.16,1.84c-0.83-0.47-1.57-0.58-2.35-0.58c-2.25,0-3.65,1.71-3.65,3.95c0,2.21,1.37,3.88,3.7,3.88
		c0.86,0,1.87-0.19,2.38-0.45L167.67,49.12z"/>
	<path class="st1" d="M169.25,37.58h2.09v4.76h0.03c0.53-0.78,1.44-1.28,2.53-1.28c1.9,0,2.73,1.34,2.73,3.15v5.07h-2.09v-4.29
		c0-0.98-0.02-2.31-1.36-2.31c-1.51,0-1.84,1.64-1.84,2.67v3.93h-2.09V37.58z"/>
	<path class="st1" d="M179.29,41.67c0.81-0.37,1.9-0.61,2.79-0.61c2.45,0,3.46,1.01,3.46,3.38v1.03c0,0.81,0.02,1.42,0.03,2.01
		c0.02,0.61,0.05,1.17,0.09,1.79h-1.84c-0.08-0.42-0.08-0.95-0.09-1.2h-0.03c-0.48,0.89-1.53,1.39-2.48,1.39
		c-1.42,0-2.81-0.86-2.81-2.39c0-1.2,0.58-1.9,1.37-2.29s1.82-0.47,2.7-0.47h1.15c0-1.29-0.58-1.73-1.81-1.73
		c-0.89,0-1.78,0.34-2.48,0.87L179.29,41.67z M181.74,47.94c0.64,0,1.14-0.28,1.46-0.72c0.34-0.45,0.44-1.03,0.44-1.65h-0.9
		c-0.94,0-2.32,0.16-2.32,1.39C180.41,47.64,180.99,47.94,181.74,47.94z"/>
	<path class="st1" d="M187.76,41.25h1.98v1.09h0.03c0.65-0.92,1.54-1.28,2.63-1.28c1.9,0,2.73,1.34,2.73,3.15v5.07h-2.09v-4.29
		c0-0.98-0.02-2.31-1.36-2.31c-1.51,0-1.84,1.64-1.84,2.67v3.93h-2.09L187.76,41.25L187.76,41.25z"/>
	<path class="st1" d="M204.83,41.25v7.25c0,2.18-0.87,4.24-4.24,4.24c-0.83,0-1.78-0.12-2.78-0.55l0.17-1.78
		c0.64,0.34,1.68,0.7,2.34,0.7c2.31,0,2.42-1.73,2.42-3.12h-0.03c-0.39,0.69-1.32,1.28-2.49,1.28c-2.37,0-3.28-1.9-3.28-4.05
		c0-1.93,1-4.16,3.4-4.16c1.06,0,1.89,0.36,2.46,1.28h0.03v-1.09H204.83z M202.74,45.18c0-1.37-0.53-2.5-1.75-2.5
		c-1.42,0-1.87,1.31-1.87,2.54c0,1.09,0.58,2.43,1.78,2.43C202.21,47.66,202.74,46.52,202.74,45.18z"/>
	<path class="st1" d="M213.58,48.83c-0.76,0.42-1.64,0.64-2.76,0.64c-2.65,0-4.2-1.53-4.2-4.16c0-2.32,1.23-4.24,3.73-4.24
		c2.98,0,3.82,2.04,3.82,4.85h-5.55c0.09,1.29,1,2.03,2.29,2.03c1.01,0,1.89-0.38,2.67-0.81V48.83z M212.18,44.48
		c-0.06-1.01-0.53-1.89-1.7-1.89s-1.76,0.81-1.86,1.89H212.18z"/>
	<path class="st1" d="M216.25,47.1h2.26l-1.42,3.9h-1.84L216.25,47.1z"/>
	<path class="st1" d="M101.79,56.59h2.46l4.27,10.88h-2.42l-0.94-2.5h-4.41l-0.95,2.5h-2.26L101.79,56.59z M102.99,58.78h-0.03
		l-1.58,4.49h3.18L102.99,58.78z"/>
	<path class="st1" d="M117.28,59.45v7.25c0,2.18-0.87,4.24-4.24,4.24c-0.83,0-1.78-0.12-2.78-0.55l0.17-1.78
		c0.64,0.34,1.68,0.7,2.34,0.7c2.31,0,2.42-1.73,2.42-3.12h-0.03c-0.39,0.69-1.32,1.28-2.49,1.28c-2.37,0-3.28-1.9-3.28-4.05
		c0-1.93,1-4.16,3.4-4.16c1.06,0,1.89,0.36,2.46,1.28h0.03v-1.09L117.28,59.45L117.28,59.45z M115.19,63.38
		c0-1.37-0.53-2.5-1.75-2.5c-1.42,0-1.87,1.31-1.87,2.54c0,1.09,0.58,2.43,1.78,2.43C114.66,65.86,115.19,64.72,115.19,63.38z"/>
	<path class="st1" d="M119.64,59.45h1.86v1.82h0.03c0.09-0.75,0.95-2.01,2.2-2.01c0.2,0,0.42,0,0.64,0.06v2.11
		c-0.19-0.11-0.56-0.17-0.94-0.17c-1.7,0-1.7,2.12-1.7,3.28v2.95h-2.09V59.45z"/>
	<path class="st1" d="M125.86,55.99h2.09v2h-2.09V55.99z M125.86,59.45h2.09v8.03h-2.09V59.45z"/>
	<path class="st1" d="M135.52,61.18c-0.37-0.17-0.78-0.3-1.42-0.3c-1.29,0-2.12,1.03-2.12,2.54c0,1.48,0.7,2.62,2.17,2.62
		c0.59,0,1.25-0.22,1.61-0.37l0.09,1.73c-0.61,0.19-1.23,0.27-2.09,0.27c-2.63,0-3.96-1.79-3.96-4.24c0-2.32,1.37-4.16,3.88-4.16
		c0.84,0,1.45,0.09,2.03,0.27L135.52,61.18z"/>
	<path class="st1" d="M144.77,67.48h-1.98v-1.09h-0.03c-0.64,0.78-1.54,1.28-2.63,1.28c-1.9,0-2.73-1.34-2.73-3.15v-5.07h2.09v4.29
		c0,0.98,0.02,2.31,1.36,2.31c1.51,0,1.84-1.64,1.84-2.67v-3.93h2.09L144.77,67.48L144.77,67.48z"/>
	<path class="st1" d="M147.12,55.78h2.09v11.7h-2.09V55.78z"/>
	<path class="st1" d="M152.26,60.98h-1.54v-1.53h1.54v-1.61l2.09-0.67v2.28h1.86v1.53h-1.86v3.74c0,0.69,0.19,1.33,0.98,1.33
		c0.38,0,0.73-0.08,0.95-0.22l0.06,1.65c-0.44,0.12-0.92,0.19-1.54,0.19c-1.64,0-2.54-1.01-2.54-2.6V60.98z"/>
	<path class="st1" d="M165.17,67.48h-1.98v-1.09h-0.03c-0.64,0.78-1.54,1.28-2.63,1.28c-1.9,0-2.73-1.34-2.73-3.15v-5.07h2.09v4.29
		c0,0.98,0.02,2.31,1.36,2.31c1.51,0,1.84-1.64,1.84-2.67v-3.93h2.09L165.17,67.48L165.17,67.48z"/>
	<path class="st1" d="M167.53,59.45h1.86v1.82h0.03c0.09-0.75,0.95-2.01,2.2-2.01c0.2,0,0.42,0,0.64,0.06v2.11
		c-0.19-0.11-0.56-0.17-0.94-0.17c-1.7,0-1.7,2.12-1.7,3.28v2.95h-2.09V59.45z"/>
	<path class="st1" d="M180.15,67.03c-0.77,0.42-1.64,0.64-2.76,0.64c-2.65,0-4.19-1.53-4.19-4.16c0-2.32,1.23-4.24,3.73-4.24
		c2.98,0,3.82,2.04,3.82,4.85h-5.55c0.09,1.29,1,2.03,2.29,2.03c1.01,0,1.89-0.38,2.67-0.81L180.15,67.03L180.15,67.03z
		 M178.74,62.68c-0.06-1.01-0.53-1.89-1.7-1.89s-1.76,0.81-1.86,1.89H178.74z"/>
	<path class="st1" d="M187.39,59.87c0.81-0.37,1.9-0.61,2.79-0.61c2.45,0,3.46,1.01,3.46,3.38v1.03c0,0.81,0.02,1.42,0.03,2.01
		c0.02,0.61,0.05,1.17,0.09,1.79h-1.84c-0.08-0.42-0.08-0.95-0.09-1.2h-0.03c-0.48,0.89-1.53,1.39-2.48,1.39
		c-1.42,0-2.81-0.86-2.81-2.39c0-1.2,0.58-1.9,1.37-2.29s1.82-0.47,2.7-0.47h1.15c0-1.29-0.58-1.73-1.81-1.73
		c-0.89,0-1.78,0.34-2.48,0.87L187.39,59.87z M189.84,66.14c0.64,0,1.14-0.28,1.46-0.72c0.34-0.45,0.44-1.03,0.44-1.65h-0.9
		c-0.94,0-2.32,0.16-2.32,1.39C188.51,65.84,189.09,66.14,189.84,66.14z"/>
	<path class="st1" d="M195.86,59.45h1.98v1.09h0.03c0.65-0.92,1.54-1.28,2.63-1.28c1.9,0,2.73,1.34,2.73,3.15v5.07h-2.09v-4.29
		c0-0.98-0.02-2.31-1.36-2.31c-1.51,0-1.84,1.64-1.84,2.67v3.93h-2.09L195.86,59.45L195.86,59.45z"/>
	<path class="st1" d="M210.89,66.57h-0.03c-0.62,0.78-1.48,1.09-2.46,1.09c-2.46,0-3.37-2.03-3.37-4.23c0-2.21,0.9-4.18,3.37-4.18
		c1.04,0,1.78,0.36,2.4,1.12h0.03v-4.6h2.09v11.7h-2.03L210.89,66.57L210.89,66.57z M208.98,66.04c1.39,0,1.84-1.47,1.84-2.6
		c0-1.12-0.53-2.56-1.87-2.56c-1.36,0-1.73,1.48-1.73,2.56C207.21,64.55,207.6,66.04,208.98,66.04z"/>
	<path class="st1" d="M98.67,74.79h6.05v1.71h-3.87v2.68h3.68v1.72h-3.68v4.77h-2.18V74.79z"/>
	<path class="st1" d="M110.12,77.46c2.39,0,4.21,1.61,4.21,4.26c0,2.31-1.54,4.15-4.21,4.15c-2.65,0-4.2-1.84-4.2-4.15
		C105.93,79.07,107.75,77.46,110.12,77.46z M110.12,84.24c1.61,0,2.03-1.43,2.03-2.78c0-1.23-0.65-2.39-2.03-2.39
		c-1.36,0-2.01,1.19-2.01,2.39C108.11,82.79,108.53,84.24,110.12,84.24z"/>
	<path class="st1" d="M119.81,77.46c2.39,0,4.21,1.61,4.21,4.26c0,2.31-1.54,4.15-4.21,4.15c-2.65,0-4.19-1.84-4.19-4.15
		C115.61,79.07,117.44,77.46,119.81,77.46z M119.81,84.24c1.61,0,2.03-1.43,2.03-2.78c0-1.23-0.65-2.39-2.03-2.39
		c-1.36,0-2.01,1.19-2.01,2.39C117.79,82.79,118.22,84.24,119.81,84.24z"/>
	<path class="st1" d="M131.16,84.77h-0.03c-0.62,0.78-1.48,1.09-2.46,1.09c-2.46,0-3.37-2.03-3.37-4.23c0-2.21,0.9-4.18,3.37-4.18
		c1.04,0,1.78,0.36,2.4,1.12h0.03v-4.6h2.09v11.7h-2.03L131.16,84.77L131.16,84.77z M129.25,84.24c1.39,0,1.84-1.47,1.84-2.6
		c0-1.12-0.53-2.56-1.87-2.56c-1.36,0-1.73,1.48-1.73,2.56C127.48,82.75,127.87,84.24,129.25,84.24z"/>
	<path class="st1" d="M146.03,76.79c-0.69-0.3-1.45-0.47-2.21-0.47c-0.75,0-1.71,0.33-1.71,1.51c0,1.89,4.77,1.09,4.77,4.74
		c0,2.39-1.89,3.29-4.09,3.29c-1.19,0-1.71-0.16-2.79-0.42l0.2-1.96c0.75,0.41,1.61,0.67,2.46,0.67c0.83,0,1.93-0.42,1.93-1.4
		c0-2.07-4.77-1.22-4.77-4.82c0-2.43,1.89-3.32,3.8-3.32c0.94,0,1.81,0.12,2.6,0.39L146.03,76.79z"/>
	<path class="st1" d="M155.27,85.23c-0.77,0.42-1.64,0.64-2.76,0.64c-2.65,0-4.19-1.53-4.19-4.16c0-2.32,1.23-4.24,3.73-4.24
		c2.98,0,3.82,2.04,3.82,4.85h-5.55c0.09,1.29,1,2.03,2.29,2.03c1.01,0,1.89-0.38,2.67-0.81L155.27,85.23L155.27,85.23z
		 M153.86,80.88c-0.06-1.01-0.53-1.89-1.7-1.89s-1.76,0.81-1.86,1.89H153.86z"/>
	<path class="st1" d="M162.86,79.38c-0.38-0.17-0.78-0.3-1.42-0.3c-1.29,0-2.12,1.03-2.12,2.54c0,1.48,0.7,2.62,2.17,2.62
		c0.59,0,1.25-0.22,1.61-0.37l0.09,1.73c-0.61,0.19-1.23,0.27-2.09,0.27c-2.64,0-3.96-1.79-3.96-4.24c0-2.32,1.37-4.16,3.88-4.16
		c0.84,0,1.45,0.09,2.03,0.27L162.86,79.38z"/>
	<path class="st1" d="M172.11,85.68h-1.98v-1.09h-0.03c-0.64,0.78-1.54,1.28-2.64,1.28c-1.9,0-2.73-1.34-2.73-3.15v-5.07h2.09v4.29
		c0,0.98,0.02,2.31,1.36,2.31c1.51,0,1.84-1.64,1.84-2.67v-3.93h2.09V85.68z"/>
	<path class="st1" d="M174.47,77.65h1.86v1.82h0.03c0.09-0.75,0.95-2.01,2.2-2.01c0.2,0,0.42,0,0.64,0.06v2.11
		c-0.19-0.11-0.56-0.17-0.94-0.17c-1.7,0-1.7,2.12-1.7,3.28v2.95h-2.09V77.65z"/>
	<path class="st1" d="M180.7,74.19h2.09v2h-2.09V74.19z M180.7,77.65h2.09v8.03h-2.09V77.65z"/>
	<path class="st1" d="M185.83,79.18h-1.54v-1.53h1.54v-1.61l2.09-0.67v2.28h1.86v1.53h-1.86v3.74c0,0.69,0.19,1.33,0.98,1.33
		c0.38,0,0.73-0.08,0.95-0.22l0.06,1.65c-0.44,0.12-0.92,0.19-1.54,0.19c-1.64,0-2.54-1.01-2.54-2.6V79.18z"/>
	<path class="st1" d="M194.7,83.51h0.03l1.93-5.86h2.12l-3.01,7.97c-0.67,1.78-1.15,3.52-3.34,3.52c-0.5,0-1-0.08-1.48-0.22
		l0.14-1.54c0.27,0.09,0.56,0.14,1.08,0.14c0.84,0,1.36-0.58,1.36-1.43l-3.07-8.44h2.31L194.7,83.51z"/>
</g>
<g>
	<path class="st0" d="M250.07,12.94c7.21-6.04,16.48-8.02,25.02-6.19c-5.89-0.08-11.84,1.88-16.71,5.96
		c-10.81,9.05-12.23,25.16-3.17,35.96c9.06,10.8,25.16,12.23,35.96,3.17c2-1.68,3.68-3.6,5.04-5.68c-1.73,4.42-4.57,8.48-8.46,11.75
		c-12.41,10.4-30.92,8.77-41.32-3.65C236.02,41.85,237.66,23.34,250.07,12.94"/>
	<path class="st0" d="M285.14,14.12c5.82,3.33,9.44,9.04,10.32,15.2c-1.41-3.96-4.18-7.45-8.11-9.7
		c-8.73-4.99-19.85-1.96-24.84,6.76s-1.96,19.84,6.76,24.84c1.62,0.93,3.32,1.57,5.04,1.96c-3.38-0.07-6.8-0.96-9.94-2.76
		c-10.02-5.73-13.5-18.51-7.77-28.53C262.34,11.86,275.12,8.38,285.14,14.12"/>
	<path class="st0" d="M289.72,42.5c-2.26,3.73-6.03,5.98-10.04,6.45c2.59-0.85,4.91-2.59,6.43-5.11c3.38-5.58,1.6-12.85-3.98-16.24
		c-5.58-3.38-12.85-1.6-16.24,3.98c-0.63,1.04-1.08,2.13-1.36,3.24c0.1-2.2,0.74-4.4,1.95-6.41c3.89-6.41,12.25-8.46,18.66-4.57
		C291.57,27.73,293.61,36.09,289.72,42.5"/>
</g>
<g>
	<path class="st1" d="M248.54,85.47c-1.02,0.24-2.12,0.44-3.18,0.44c-4.52,0-7.66-2.26-7.66-6.98c0-4.78,2.92-7.46,7.66-7.46
		c0.92,0,2.14,0.18,3.16,0.58l-0.2,2.36c-1.06-0.6-2.02-0.74-3.02-0.74c-2.88,0-4.68,2.2-4.68,5.06c0,2.84,1.76,4.98,4.74,4.98
		c1.1,0,2.4-0.24,3.06-0.58L248.54,85.47z"/>
	<path class="st1" d="M260.86,85.47c-1.02,0.24-2.12,0.44-3.18,0.44c-4.52,0-7.66-2.26-7.66-6.98c0-4.78,2.92-7.46,7.66-7.46
		c0.92,0,2.14,0.18,3.16,0.58l-0.2,2.36c-1.06-0.6-2.02-0.74-3.02-0.74c-2.88,0-4.68,2.2-4.68,5.06c0,2.84,1.76,4.98,4.74,4.98
		c1.1,0,2.4-0.24,3.06-0.58L260.86,85.47z"/>
	<path class="st1" d="M267.42,71.71h3.16l5.48,13.96h-3.1l-1.2-3.2h-5.66l-1.22,3.2h-2.9L267.42,71.71z M268.96,74.51h-0.04
		l-2.02,5.76h4.08L268.96,74.51z"/>
	<path class="st1" d="M278.76,71.71h7.76v2.2h-4.96v3.44h4.72v2.2h-4.72v6.12h-2.8L278.76,71.71L278.76,71.71z"/>
	<path class="st1" d="M297.16,74.27c-0.88-0.38-1.86-0.6-2.84-0.6c-0.96,0-2.2,0.42-2.2,1.94c0,2.42,6.12,1.4,6.12,6.08
		c0,3.06-2.42,4.22-5.24,4.22c-1.52,0-2.2-0.2-3.58-0.54l0.26-2.52c0.96,0.52,2.06,0.86,3.16,0.86c1.06,0,2.48-0.54,2.48-1.8
		c0-2.66-6.12-1.56-6.12-6.18c0-3.12,2.42-4.26,4.88-4.26c1.2,0,2.32,0.16,3.34,0.5L297.16,74.27z"/>
</g>
<path class="st1" d="M37.86,29.1c-0.8-1.02-2.7-2.7-3.69-3.69c-1.53-1.53-1.93-1.99-1.93-4.6V9.69c0-1.59-2.44-1.36-2.44,0.06
	c0,0-0.17,19.35,0,21c0.17,1.64-0.64,2.93,1.99,4.6c2.91,1.85,7.09,3.06,7.09,3.06s0.06-4.26,0.12-5.85
	C39.05,30.98,38.65,30.12,37.86,29.1 M36.63,35.15c0,0.01-0.01,0.02-0.01,0.02c-4.08-1.66-4.79-1.34-4.29-7.54
	C37.16,30.58,36.82,31.67,36.63,35.15 M41.42,32.56c0.06,1.59,0.11,5.85,0.11,5.85s4.18-1.22,7.09-3.06
	c2.63-1.67,1.82-2.95,1.99-4.6c0.17-1.65,0-21,0-21c0-1.42-2.44-1.65-2.44-0.06v11.12c0,2.61-0.4,3.06-1.93,4.6
	c-0.99,0.99-2.89,2.67-3.69,3.69C41.76,30.12,41.36,30.98,41.42,32.56 M48.07,27.63c0.51,6.2-0.21,5.87-4.28,7.54
	c0,0-0.01-0.01-0.01-0.02C43.59,31.67,43.25,30.58,48.07,27.63 M43.43,17.79c-1.42-2.54,0,0-1.96-3.31V2.2c0-1.92-2.42-1.77-2.42,0
	l0.03,12.26c0,0-2.07,3.48-2.65,4.87c-0.58,1.38-1.36,3.05,0.61,5.28c0.15,0.17,0.39,0.64,3.26,3.33l0.06-0.06
	c0,0-0.02-0.02,2.5-2.5C45.97,22.29,44.86,20.33,43.43,17.79 M40.28,24.94c-4.7-2.52-1.34-5.92,0-8.18l0.12,0.19
	C43.85,22.12,42.91,22.9,40.28,24.94 M38.81,44.1c-0.12-2.41-0.97-4.54-5.9-6.39c-4.14-1.55-10-1.89-14.26-2.57
	c-4.26-0.69-11.33-1.85-14.86-5.22c2.65,8.81,9.29,12.5,16.03,13.94c7.63,1.63,14.47,2.32,18.63,5.21l0.42,0.29
	C38.63,47.33,38.93,46.52,38.81,44.1 M36.7,45.27c-3.65-1.4-6.08-1.76-12.66-3.08c-6.57-1.32-10.5-2.53-14.05-6.27
	c5.71,2.19,14.85,2.98,19.84,4.04C34.81,41.02,36.17,42.31,36.7,45.27L36.7,45.27z M41.48,49.37l0.42-0.29
	c4.16-2.89,11.01-3.58,18.63-5.21c6.74-1.44,13.38-5.13,16.03-13.94c-3.54,3.38-10.6,4.54-14.86,5.22s-10.12,1.02-14.26,2.57
	c-4.93,1.85-5.79,3.98-5.9,6.39C41.42,46.52,41.72,47.34,41.48,49.37 M43.65,45.27c0.53-2.96,1.89-4.25,6.88-5.31
	s14.13-1.85,19.84-4.04c-3.55,3.74-7.48,4.95-14.05,6.27C49.73,43.51,47.3,43.87,43.65,45.27L43.65,45.27z M38.56,55.3
	c0.05-4.74-2.66-6.07-6.71-7.13c-4.04-1.06-9.69-1.86-14.48-3.25c-4.79-1.38-7.45-2.29-10.7-5.8c0.69,6.87,5.48,11.71,11.39,13.79
	c5.91,2.07,5.59,1.65,8.78,2.45c3.2,0.8,3.78,1.97,3.78,3.94v4.04h7.93C38.72,54.19,38.51,60.04,38.56,55.3 M36.26,60.77h-3.23
	c0,0,0.07-1.34-0.12-3.64c-0.25-3.04-3.79-3.3-9.62-4.92c-4-1.11-9.22-2.55-11.55-6.54c1.42,0.62,4.26,1.82,8.9,2.78
	c4.41,0.91,6.93,1.42,10.99,2.27c3.87,0.8,4.62,3.17,4.62,5.78L36.26,60.77L36.26,60.77z M41.65,63.35h7.93V59.3
	c0-1.97,0.59-3.14,3.78-3.94c3.2-0.8,2.88-0.37,8.79-2.45c5.91-2.08,10.7-6.92,11.39-13.79c-3.25,3.51-5.91,4.42-10.7,5.8
	c-4.79,1.38-10.43,2.18-14.48,3.25c-4.05,1.06-6.76,2.39-6.71,7.13C41.7,60.05,41.49,54.2,41.65,63.35 M43.95,56.51
	c0-2.61,0.76-4.98,4.62-5.78c4.06-0.84,6.58-1.36,10.99-2.27c4.64-0.96,7.48-2.16,8.9-2.78c-2.33,4-7.55,5.43-11.55,6.54
	c-5.82,1.62-9.37,1.88-9.62,4.92c-0.19,2.3-0.12,3.64-0.12,3.64h-3.23L43.95,56.51L43.95,56.51z M22.54,85.52
	c-1.02,0.24-2.11,0.44-3.17,0.44c-4.51,0-7.64-2.26-7.64-6.96c0-4.77,2.91-7.44,7.64-7.44c0.92,0,2.13,0.18,3.15,0.58l-0.2,2.35
	c-1.06-0.6-2.01-0.74-3.01-0.74c-2.87,0-4.67,2.19-4.67,5.05c0,2.83,1.76,4.97,4.73,4.97c1.1,0,2.39-0.24,3.05-0.58L22.54,85.52z
	 M35.47,74.49c-1.08-0.5-2.47-0.74-3.59-0.74c-3.25,0-5.05,2.19-5.05,5.05c0,2.83,1.75,4.97,4.73,4.97c0.76,0,1.36-0.08,1.84-0.2
	v-3.63h-2.95v-2.19h5.63v7.5c-1.48,0.4-3.01,0.72-4.51,0.72c-4.51,0-7.64-2.26-7.64-6.96c0-4.77,2.91-7.44,7.64-7.44
	c1.62,0,2.89,0.22,4.09,0.58L35.47,74.49z M38.76,71.79h2.79v13.92h-2.79V71.79z M52.08,80.33h-4.07l2.01-5.75h0.04L52.08,80.33z
	 M43.11,85.72H46l1.21-3.19h5.65l1.2,3.19h3.09l-5.46-13.93h-3.15L43.11,85.72z M61.5,73.99h0.92c1.4,0,2.96,0.14,2.96,1.82
	c0,1.74-1.58,1.94-2.96,1.94H61.5V73.99z M58.71,85.72h2.79v-5.79h0.9c1.18,0,1.54,0.4,1.94,1.44l1.68,4.35h3.11l-2.23-5.45
	c-0.28-0.62-0.72-1.38-1.48-1.44V78.8c1.78-0.24,2.87-1.6,2.87-3.23c0-3.87-3.57-3.77-6.56-3.77h-3.01v13.92H58.71z"/>
<g>
	<path class="st1" d="M98.2,23.86h1.64c1.33,0,2.6,0.21,2.6,1.81c0,0.82-0.6,1.39-1.38,1.53v0.02c0.3,0.12,0.44,0.26,0.65,0.67
		l1.27,2.67h-1.09l-1.03-2.32c-0.3-0.65-0.61-0.65-1.12-0.65h-0.57v2.98H98.2V23.86z M99.17,26.74h0.81c0.91,0,1.45-0.4,1.45-1.05
		c0-0.6-0.46-0.99-1.34-0.99h-0.92V26.74z"/>
	<path class="st1" d="M104.42,23.86h3.75v0.84h-2.79v1.96h2.54v0.84h-2.54v2.21h2.79v0.84h-3.75V23.86z"/>
	<path class="st1" d="M112.99,24.87c-0.49-0.19-0.76-0.28-1.26-0.28c-0.54,0-1.17,0.19-1.17,0.89c0,1.29,2.88,0.99,2.88,3.2
		c0,1.43-1.1,2-2.45,2c-0.47,0-0.93-0.13-1.37-0.28l0.1-0.89c0.33,0.13,0.9,0.33,1.39,0.33c0.55,0,1.31-0.31,1.31-1.09
		c0-1.5-2.88-1.08-2.88-3.17c0-1.19,0.94-1.82,2.15-1.82c0.44,0,0.97,0.08,1.43,0.24L112.99,24.87z"/>
	<path class="st1" d="M115.03,23.86h3.75v0.84h-2.79v1.96h2.54v0.84h-2.54v2.21h2.79v0.84h-3.75V23.86z"/>
	<path class="st1" d="M122.69,23.86h1.01l2.83,6.7h-1.04l-0.68-1.69h-3.28l-0.68,1.69h-1.01L122.69,23.86z M123.15,24.76l-1.33,3.32
		h2.67L123.15,24.76z"/>
	<path class="st1" d="M127.68,23.86h1.64c1.32,0,2.6,0.21,2.6,1.81c0,0.82-0.61,1.39-1.38,1.53v0.02c0.3,0.12,0.44,0.26,0.65,0.67
		l1.27,2.67h-1.09l-1.03-2.32c-0.3-0.65-0.62-0.65-1.12-0.65h-0.58v2.98h-0.96L127.68,23.86L127.68,23.86z M128.64,26.74h0.82
		c0.91,0,1.45-0.4,1.45-1.05c0-0.6-0.46-0.99-1.34-0.99h-0.92v2.04H128.64z"/>
	<path class="st1" d="M138.47,24.96c-0.42-0.25-0.89-0.37-1.38-0.37c-1.54,0-2.57,1.11-2.57,2.62c0,1.57,1.13,2.62,2.52,2.62
		c0.48,0,1.12-0.12,1.46-0.33l0.06,0.93c-0.51,0.21-1.13,0.24-1.53,0.24c-2.12,0-3.53-1.36-3.53-3.49c0-2.06,1.5-3.44,3.54-3.44
		c0.52,0,1.03,0.08,1.51,0.29L138.47,24.96z"/>
	<path class="st1" d="M139.99,23.86h0.96v2.8h3.21v-2.8h0.96v6.7h-0.96v-3.05h-3.21v3.05h-0.96V23.86z"/>
	<path class="st1" d="M149.97,23.86h1.76c1.37,0,2.52,0.48,2.52,2.01c0,1.49-1.16,2.02-2.37,2.02h-0.94v2.68h-0.96L149.97,23.86
		L149.97,23.86z M150.93,27.04h0.95c0.6,0,1.34-0.3,1.34-1.18c0-0.84-0.88-1.15-1.48-1.15h-0.81V27.04z"/>
	<path class="st1" d="M155.54,23.86h1.64c1.33,0,2.6,0.21,2.6,1.81c0,0.82-0.6,1.39-1.38,1.53v0.02c0.3,0.12,0.44,0.26,0.65,0.67
		l1.27,2.67h-1.09l-1.03-2.32c-0.3-0.65-0.61-0.65-1.12-0.65h-0.57v2.98h-0.96L155.54,23.86L155.54,23.86z M156.51,26.74h0.81
		c0.91,0,1.45-0.4,1.45-1.05c0-0.6-0.46-0.99-1.34-0.99h-0.92V26.74z"/>
	<path class="st1" d="M164.59,23.74c2.04,0,3.22,1.48,3.22,3.46c0,2.04-1.18,3.46-3.22,3.46c-2.04,0-3.22-1.43-3.22-3.46
		C161.36,25.22,162.55,23.74,164.59,23.74z M164.59,29.83c1.54,0,2.21-1.29,2.21-2.62c0-1.36-0.73-2.63-2.21-2.62
		c-1.48-0.01-2.21,1.26-2.21,2.62C162.38,28.54,163.04,29.83,164.59,29.83z"/>
	<path class="st1" d="M174.5,25.05c-0.47-0.31-0.98-0.46-1.84-0.46c-1.54,0-2.57,1.12-2.57,2.62c0,1.57,1.13,2.62,2.52,2.62
		c0.66,0,0.84-0.07,1.08-0.12v-2.03h-1.41v-0.79h2.37v3.48c-0.36,0.12-1,0.3-2.04,0.3c-2.12,0-3.53-1.36-3.53-3.49
		c0-2.06,1.5-3.44,3.54-3.44c0.98,0,1.41,0.14,1.97,0.34L174.5,25.05z"/>
	<path class="st1" d="M176.53,23.86h1.64c1.33,0,2.6,0.21,2.6,1.81c0,0.82-0.6,1.39-1.38,1.53v0.02c0.3,0.12,0.44,0.26,0.65,0.67
		l1.27,2.67h-1.09l-1.03-2.32c-0.3-0.65-0.61-0.65-1.12-0.65h-0.57v2.98h-0.96L176.53,23.86L176.53,23.86z M177.49,26.74h0.81
		c0.91,0,1.45-0.4,1.45-1.05c0-0.6-0.46-0.99-1.34-0.99h-0.92V26.74z"/>
	<path class="st1" d="M184.81,23.86h1.01l2.83,6.7h-1.04l-0.68-1.69h-3.28l-0.68,1.69h-1.01L184.81,23.86z M185.28,24.76l-1.33,3.32
		h2.67L185.28,24.76z"/>
	<path class="st1" d="M189.87,23.86h1.58l2.1,5.57l2.06-5.57h1.58v6.7h-0.96v-5.8h-0.02l-2.22,5.8h-0.94l-2.22-5.8h-0.02v5.8h-0.96
		v-6.7H189.87z"/>
	<path class="st1" d="M204.95,23.74c2.04,0,3.22,1.48,3.22,3.46c0,2.04-1.18,3.46-3.22,3.46c-2.04,0-3.22-1.43-3.22-3.46
		C201.73,25.22,202.92,23.74,204.95,23.74z M204.95,29.83c1.54,0,2.21-1.29,2.21-2.62c0-1.36-0.73-2.63-2.21-2.62
		c-1.48-0.01-2.21,1.26-2.21,2.62C202.75,28.54,203.41,29.83,204.95,29.83z"/>
	<path class="st1" d="M209.77,23.86h1.3l2.96,5.39h0.02v-5.39h0.96v6.7h-1.23l-3.03-5.51h-0.02v5.51h-0.96L209.77,23.86
		L209.77,23.86z"/>
	<path class="st1" d="M106.59,49.12c-0.79,0.19-1.65,0.34-2.48,0.34c-3.53,0-5.97-1.76-5.97-5.44c0-3.73,2.28-5.82,5.97-5.82
		c0.72,0,1.67,0.14,2.46,0.45l-0.16,1.84c-0.83-0.47-1.57-0.58-2.35-0.58c-2.25,0-3.65,1.71-3.65,3.95c0,2.21,1.37,3.88,3.7,3.88
		c0.86,0,1.87-0.19,2.38-0.45L106.59,49.12z"/>
	<path class="st1" d="M108.22,37.58h2.09v11.7h-2.09V37.58z"/>
	<path class="st1" d="M112.71,37.79h2.09v2h-2.09V37.79z M112.71,41.25h2.09v8.03h-2.09V41.25z"/>
	<path class="st1" d="M117.13,41.25h1.95v1.12h0.03c0.65-0.98,1.61-1.31,2.38-1.31c1.12,0,1.92,0.42,2.37,1.42
		c0.48-0.97,1.53-1.42,2.51-1.42c1.98,0,2.54,1.36,2.54,3.15v5.07h-2.09v-4.79c0-0.75,0-1.81-1.2-1.81c-1.39,0-1.56,1.65-1.56,2.7
		v3.9h-2.09v-4.79c0-0.75,0-1.81-1.2-1.81c-1.39,0-1.56,1.65-1.56,2.7v3.9h-2.09L117.13,41.25L117.13,41.25z"/>
	<path class="st1" d="M131.54,41.67c0.81-0.37,1.9-0.61,2.79-0.61c2.45,0,3.46,1.01,3.46,3.38v1.03c0,0.81,0.02,1.42,0.03,2.01
		c0.01,0.61,0.04,1.17,0.09,1.79h-1.84c-0.08-0.42-0.08-0.95-0.09-1.2h-0.03c-0.48,0.89-1.53,1.39-2.48,1.39
		c-1.42,0-2.81-0.86-2.81-2.39c0-1.2,0.58-1.9,1.37-2.29c0.8-0.39,1.82-0.47,2.7-0.47h1.15c0-1.29-0.58-1.73-1.81-1.73
		c-0.89,0-1.78,0.34-2.48,0.87L131.54,41.67z M133.99,47.94c0.64,0,1.14-0.28,1.47-0.72c0.34-0.45,0.44-1.03,0.44-1.65H135
		c-0.94,0-2.32,0.16-2.32,1.39C132.66,47.64,133.24,47.94,133.99,47.94z"/>
	<path class="st1" d="M140.7,42.78h-1.54v-1.53h1.54v-1.61l2.09-0.67v2.28h1.86v1.53h-1.86v3.74c0,0.69,0.19,1.33,0.98,1.33
		c0.38,0,0.73-0.08,0.95-0.22l0.06,1.65c-0.44,0.12-0.92,0.19-1.54,0.19c-1.64,0-2.54-1.01-2.54-2.6V42.78z"/>
	<path class="st1" d="M152.68,48.83c-0.76,0.42-1.64,0.64-2.76,0.64c-2.65,0-4.2-1.53-4.2-4.16c0-2.32,1.23-4.24,3.73-4.24
		c2.98,0,3.82,2.04,3.82,4.85h-5.55c0.09,1.29,1,2.03,2.29,2.03c1.01,0,1.89-0.38,2.67-0.81V48.83z M151.27,44.48
		c-0.06-1.01-0.53-1.89-1.7-1.89s-1.76,0.81-1.86,1.89H151.27z"/>
	<path class="st1" d="M167.67,49.12c-0.79,0.19-1.65,0.34-2.48,0.34c-3.53,0-5.97-1.76-5.97-5.44c0-3.73,2.28-5.82,5.97-5.82
		c0.72,0,1.67,0.14,2.46,0.45l-0.16,1.84c-0.83-0.47-1.57-0.58-2.35-0.58c-2.25,0-3.65,1.71-3.65,3.95c0,2.21,1.37,3.88,3.7,3.88
		c0.86,0,1.87-0.19,2.38-0.45L167.67,49.12z"/>
	<path class="st1" d="M169.25,37.58h2.09v4.76h0.03c0.53-0.78,1.44-1.28,2.53-1.28c1.9,0,2.73,1.34,2.73,3.15v5.07h-2.09v-4.29
		c0-0.98-0.02-2.31-1.36-2.31c-1.51,0-1.84,1.64-1.84,2.67v3.93h-2.09V37.58z"/>
	<path class="st1" d="M179.29,41.67c0.81-0.37,1.9-0.61,2.79-0.61c2.45,0,3.46,1.01,3.46,3.38v1.03c0,0.81,0.02,1.42,0.03,2.01
		c0.02,0.61,0.05,1.17,0.09,1.79h-1.84c-0.08-0.42-0.08-0.95-0.09-1.2h-0.03c-0.48,0.89-1.53,1.39-2.48,1.39
		c-1.42,0-2.81-0.86-2.81-2.39c0-1.2,0.58-1.9,1.37-2.29s1.82-0.47,2.7-0.47h1.15c0-1.29-0.58-1.73-1.81-1.73
		c-0.89,0-1.78,0.34-2.48,0.87L179.29,41.67z M181.74,47.94c0.64,0,1.14-0.28,1.46-0.72c0.34-0.45,0.44-1.03,0.44-1.65h-0.9
		c-0.94,0-2.32,0.16-2.32,1.39C180.41,47.64,180.99,47.94,181.74,47.94z"/>
	<path class="st1" d="M187.76,41.25h1.98v1.09h0.03c0.65-0.92,1.54-1.28,2.63-1.28c1.9,0,2.73,1.34,2.73,3.15v5.07h-2.09v-4.29
		c0-0.98-0.02-2.31-1.36-2.31c-1.51,0-1.84,1.64-1.84,2.67v3.93h-2.09L187.76,41.25L187.76,41.25z"/>
	<path class="st1" d="M204.83,41.25v7.25c0,2.18-0.87,4.24-4.24,4.24c-0.83,0-1.78-0.12-2.78-0.55l0.17-1.78
		c0.64,0.34,1.68,0.7,2.34,0.7c2.31,0,2.42-1.73,2.42-3.12h-0.03c-0.39,0.69-1.32,1.28-2.49,1.28c-2.37,0-3.28-1.9-3.28-4.05
		c0-1.93,1-4.16,3.4-4.16c1.06,0,1.89,0.36,2.46,1.28h0.03v-1.09H204.83z M202.74,45.18c0-1.37-0.53-2.5-1.75-2.5
		c-1.42,0-1.87,1.31-1.87,2.54c0,1.09,0.58,2.43,1.78,2.43C202.21,47.66,202.74,46.52,202.74,45.18z"/>
	<path class="st1" d="M213.58,48.83c-0.76,0.42-1.64,0.64-2.76,0.64c-2.65,0-4.2-1.53-4.2-4.16c0-2.32,1.23-4.24,3.73-4.24
		c2.98,0,3.82,2.04,3.82,4.85h-5.55c0.09,1.29,1,2.03,2.29,2.03c1.01,0,1.89-0.38,2.67-0.81V48.83z M212.18,44.48
		c-0.06-1.01-0.53-1.89-1.7-1.89s-1.76,0.81-1.86,1.89H212.18z"/>
	<path class="st1" d="M216.25,47.1h2.26l-1.42,3.9h-1.84L216.25,47.1z"/>
	<path class="st1" d="M101.79,56.59h2.46l4.27,10.88h-2.42l-0.94-2.5h-4.41l-0.95,2.5h-2.26L101.79,56.59z M102.99,58.78h-0.03
		l-1.58,4.49h3.18L102.99,58.78z"/>
	<path class="st1" d="M117.28,59.45v7.25c0,2.18-0.87,4.24-4.24,4.24c-0.83,0-1.78-0.12-2.78-0.55l0.17-1.78
		c0.64,0.34,1.68,0.7,2.34,0.7c2.31,0,2.42-1.73,2.42-3.12h-0.03c-0.39,0.69-1.32,1.28-2.49,1.28c-2.37,0-3.28-1.9-3.28-4.05
		c0-1.93,1-4.16,3.4-4.16c1.06,0,1.89,0.36,2.46,1.28h0.03v-1.09L117.28,59.45L117.28,59.45z M115.19,63.38
		c0-1.37-0.53-2.5-1.75-2.5c-1.42,0-1.87,1.31-1.87,2.54c0,1.09,0.58,2.43,1.78,2.43C114.66,65.86,115.19,64.72,115.19,63.38z"/>
	<path class="st1" d="M119.64,59.45h1.86v1.82h0.03c0.09-0.75,0.95-2.01,2.2-2.01c0.2,0,0.42,0,0.64,0.06v2.11
		c-0.19-0.11-0.56-0.17-0.94-0.17c-1.7,0-1.7,2.12-1.7,3.28v2.95h-2.09V59.45z"/>
	<path class="st1" d="M125.86,55.99h2.09v2h-2.09V55.99z M125.86,59.45h2.09v8.03h-2.09V59.45z"/>
	<path class="st1" d="M135.52,61.18c-0.37-0.17-0.78-0.3-1.42-0.3c-1.29,0-2.12,1.03-2.12,2.54c0,1.48,0.7,2.62,2.17,2.62
		c0.59,0,1.25-0.22,1.61-0.37l0.09,1.73c-0.61,0.19-1.23,0.27-2.09,0.27c-2.63,0-3.96-1.79-3.96-4.24c0-2.32,1.37-4.16,3.88-4.16
		c0.84,0,1.45,0.09,2.03,0.27L135.52,61.18z"/>
	<path class="st1" d="M144.77,67.48h-1.98v-1.09h-0.03c-0.64,0.78-1.54,1.28-2.63,1.28c-1.9,0-2.73-1.34-2.73-3.15v-5.07h2.09v4.29
		c0,0.98,0.02,2.31,1.36,2.31c1.51,0,1.84-1.64,1.84-2.67v-3.93h2.09L144.77,67.48L144.77,67.48z"/>
	<path class="st1" d="M147.12,55.78h2.09v11.7h-2.09V55.78z"/>
	<path class="st1" d="M152.26,60.98h-1.54v-1.53h1.54v-1.61l2.09-0.67v2.28h1.86v1.53h-1.86v3.74c0,0.69,0.19,1.33,0.98,1.33
		c0.38,0,0.73-0.08,0.95-0.22l0.06,1.65c-0.44,0.12-0.92,0.19-1.54,0.19c-1.64,0-2.54-1.01-2.54-2.6V60.98z"/>
	<path class="st1" d="M165.17,67.48h-1.98v-1.09h-0.03c-0.64,0.78-1.54,1.28-2.63,1.28c-1.9,0-2.73-1.34-2.73-3.15v-5.07h2.09v4.29
		c0,0.98,0.02,2.31,1.36,2.31c1.51,0,1.84-1.64,1.84-2.67v-3.93h2.09L165.17,67.48L165.17,67.48z"/>
	<path class="st1" d="M167.53,59.45h1.86v1.82h0.03c0.09-0.75,0.95-2.01,2.2-2.01c0.2,0,0.42,0,0.64,0.06v2.11
		c-0.19-0.11-0.56-0.17-0.94-0.17c-1.7,0-1.7,2.12-1.7,3.28v2.95h-2.09V59.45z"/>
	<path class="st1" d="M180.15,67.03c-0.77,0.42-1.64,0.64-2.76,0.64c-2.65,0-4.19-1.53-4.19-4.16c0-2.32,1.23-4.24,3.73-4.24
		c2.98,0,3.82,2.04,3.82,4.85h-5.55c0.09,1.29,1,2.03,2.29,2.03c1.01,0,1.89-0.38,2.67-0.81L180.15,67.03L180.15,67.03z
		 M178.74,62.68c-0.06-1.01-0.53-1.89-1.7-1.89s-1.76,0.81-1.86,1.89H178.74z"/>
	<path class="st1" d="M187.39,59.87c0.81-0.37,1.9-0.61,2.79-0.61c2.45,0,3.46,1.01,3.46,3.38v1.03c0,0.81,0.02,1.42,0.03,2.01
		c0.02,0.61,0.05,1.17,0.09,1.79h-1.84c-0.08-0.42-0.08-0.95-0.09-1.2h-0.03c-0.48,0.89-1.53,1.39-2.48,1.39
		c-1.42,0-2.81-0.86-2.81-2.39c0-1.2,0.58-1.9,1.37-2.29s1.82-0.47,2.7-0.47h1.15c0-1.29-0.58-1.73-1.81-1.73
		c-0.89,0-1.78,0.34-2.48,0.87L187.39,59.87z M189.84,66.14c0.64,0,1.14-0.28,1.46-0.72c0.34-0.45,0.44-1.03,0.44-1.65h-0.9
		c-0.94,0-2.32,0.16-2.32,1.39C188.51,65.84,189.09,66.14,189.84,66.14z"/>
	<path class="st1" d="M195.86,59.45h1.98v1.09h0.03c0.65-0.92,1.54-1.28,2.63-1.28c1.9,0,2.73,1.34,2.73,3.15v5.07h-2.09v-4.29
		c0-0.98-0.02-2.31-1.36-2.31c-1.51,0-1.84,1.64-1.84,2.67v3.93h-2.09L195.86,59.45L195.86,59.45z"/>
	<path class="st1" d="M210.89,66.57h-0.03c-0.62,0.78-1.48,1.09-2.46,1.09c-2.46,0-3.37-2.03-3.37-4.23c0-2.21,0.9-4.18,3.37-4.18
		c1.04,0,1.78,0.36,2.4,1.12h0.03v-4.6h2.09v11.7h-2.03L210.89,66.57L210.89,66.57z M208.98,66.04c1.39,0,1.84-1.47,1.84-2.6
		c0-1.12-0.53-2.56-1.87-2.56c-1.36,0-1.73,1.48-1.73,2.56C207.21,64.55,207.6,66.04,208.98,66.04z"/>
	<path class="st1" d="M98.67,74.79h6.05v1.71h-3.87v2.68h3.68v1.72h-3.68v4.77h-2.18V74.79z"/>
	<path class="st1" d="M110.12,77.46c2.39,0,4.21,1.61,4.21,4.26c0,2.31-1.54,4.15-4.21,4.15c-2.65,0-4.2-1.84-4.2-4.15
		C105.93,79.07,107.75,77.46,110.12,77.46z M110.12,84.24c1.61,0,2.03-1.43,2.03-2.78c0-1.23-0.65-2.39-2.03-2.39
		c-1.36,0-2.01,1.19-2.01,2.39C108.11,82.79,108.53,84.24,110.12,84.24z"/>
	<path class="st1" d="M119.81,77.46c2.39,0,4.21,1.61,4.21,4.26c0,2.31-1.54,4.15-4.21,4.15c-2.65,0-4.19-1.84-4.19-4.15
		C115.61,79.07,117.44,77.46,119.81,77.46z M119.81,84.24c1.61,0,2.03-1.43,2.03-2.78c0-1.23-0.65-2.39-2.03-2.39
		c-1.36,0-2.01,1.19-2.01,2.39C117.79,82.79,118.22,84.24,119.81,84.24z"/>
	<path class="st1" d="M131.16,84.77h-0.03c-0.62,0.78-1.48,1.09-2.46,1.09c-2.46,0-3.37-2.03-3.37-4.23c0-2.21,0.9-4.18,3.37-4.18
		c1.04,0,1.78,0.36,2.4,1.12h0.03v-4.6h2.09v11.7h-2.03L131.16,84.77L131.16,84.77z M129.25,84.24c1.39,0,1.84-1.47,1.84-2.6
		c0-1.12-0.53-2.56-1.87-2.56c-1.36,0-1.73,1.48-1.73,2.56C127.48,82.75,127.87,84.24,129.25,84.24z"/>
	<path class="st1" d="M146.03,76.79c-0.69-0.3-1.45-0.47-2.21-0.47c-0.75,0-1.71,0.33-1.71,1.51c0,1.89,4.77,1.09,4.77,4.74
		c0,2.39-1.89,3.29-4.09,3.29c-1.19,0-1.71-0.16-2.79-0.42l0.2-1.96c0.75,0.41,1.61,0.67,2.46,0.67c0.83,0,1.93-0.42,1.93-1.4
		c0-2.07-4.77-1.22-4.77-4.82c0-2.43,1.89-3.32,3.8-3.32c0.94,0,1.81,0.12,2.6,0.39L146.03,76.79z"/>
	<path class="st1" d="M155.27,85.23c-0.77,0.42-1.64,0.64-2.76,0.64c-2.65,0-4.19-1.53-4.19-4.16c0-2.32,1.23-4.24,3.73-4.24
		c2.98,0,3.82,2.04,3.82,4.85h-5.55c0.09,1.29,1,2.03,2.29,2.03c1.01,0,1.89-0.38,2.67-0.81L155.27,85.23L155.27,85.23z
		 M153.86,80.88c-0.06-1.01-0.53-1.89-1.7-1.89s-1.76,0.81-1.86,1.89H153.86z"/>
	<path class="st1" d="M162.86,79.38c-0.38-0.17-0.78-0.3-1.42-0.3c-1.29,0-2.12,1.03-2.12,2.54c0,1.48,0.7,2.62,2.17,2.62
		c0.59,0,1.25-0.22,1.61-0.37l0.09,1.73c-0.61,0.19-1.23,0.27-2.09,0.27c-2.64,0-3.96-1.79-3.96-4.24c0-2.32,1.37-4.16,3.88-4.16
		c0.84,0,1.45,0.09,2.03,0.27L162.86,79.38z"/>
	<path class="st1" d="M172.11,85.68h-1.98v-1.09h-0.03c-0.64,0.78-1.54,1.28-2.64,1.28c-1.9,0-2.73-1.34-2.73-3.15v-5.07h2.09v4.29
		c0,0.98,0.02,2.31,1.36,2.31c1.51,0,1.84-1.64,1.84-2.67v-3.93h2.09V85.68z"/>
	<path class="st1" d="M174.47,77.65h1.86v1.82h0.03c0.09-0.75,0.95-2.01,2.2-2.01c0.2,0,0.42,0,0.64,0.06v2.11
		c-0.19-0.11-0.56-0.17-0.94-0.17c-1.7,0-1.7,2.12-1.7,3.28v2.95h-2.09V77.65z"/>
	<path class="st1" d="M180.7,74.19h2.09v2h-2.09V74.19z M180.7,77.65h2.09v8.03h-2.09V77.65z"/>
	<path class="st1" d="M185.83,79.18h-1.54v-1.53h1.54v-1.61l2.09-0.67v2.28h1.86v1.53h-1.86v3.74c0,0.69,0.19,1.33,0.98,1.33
		c0.38,0,0.73-0.08,0.95-0.22l0.06,1.65c-0.44,0.12-0.92,0.19-1.54,0.19c-1.64,0-2.54-1.01-2.54-2.6V79.18z"/>
	<path class="st1" d="M194.7,83.51h0.03l1.93-5.86h2.12l-3.01,7.97c-0.67,1.78-1.15,3.52-3.34,3.52c-0.5,0-1-0.08-1.48-0.22
		l0.14-1.54c0.27,0.09,0.56,0.14,1.08,0.14c0.84,0,1.36-0.58,1.36-1.43l-3.07-8.44h2.31L194.7,83.51z"/>
</g>
<g>
	<path class="st0" d="M250.07,12.94c7.21-6.04,16.48-8.02,25.02-6.19c-5.89-0.08-11.84,1.88-16.71,5.96
		c-10.81,9.05-12.23,25.16-3.17,35.96c9.06,10.8,25.16,12.23,35.96,3.17c2-1.68,3.68-3.6,5.04-5.68c-1.73,4.42-4.57,8.48-8.46,11.75
		c-12.41,10.4-30.92,8.77-41.32-3.65C236.02,41.85,237.66,23.34,250.07,12.94"/>
	<path class="st0" d="M285.14,14.12c5.82,3.33,9.44,9.04,10.32,15.2c-1.41-3.96-4.18-7.45-8.11-9.7
		c-8.73-4.99-19.85-1.96-24.84,6.76s-1.96,19.84,6.76,24.84c1.62,0.93,3.32,1.57,5.04,1.96c-3.38-0.07-6.8-0.96-9.94-2.76
		c-10.02-5.73-13.5-18.51-7.77-28.53C262.34,11.86,275.12,8.38,285.14,14.12"/>
	<path class="st0" d="M289.72,42.5c-2.26,3.73-6.03,5.98-10.04,6.45c2.59-0.85,4.91-2.59,6.43-5.11c3.38-5.58,1.6-12.85-3.98-16.24
		c-5.58-3.38-12.85-1.6-16.24,3.98c-0.63,1.04-1.08,2.13-1.36,3.24c0.1-2.2,0.74-4.4,1.95-6.41c3.89-6.41,12.25-8.46,18.66-4.57
		C291.57,27.73,293.61,36.09,289.72,42.5"/>
</g>
<g>
	<path class="st1" d="M248.54,85.47c-1.02,0.24-2.12,0.44-3.18,0.44c-4.52,0-7.66-2.26-7.66-6.98c0-4.78,2.92-7.46,7.66-7.46
		c0.92,0,2.14,0.18,3.16,0.58l-0.2,2.36c-1.06-0.6-2.02-0.74-3.02-0.74c-2.88,0-4.68,2.2-4.68,5.06c0,2.84,1.76,4.98,4.74,4.98
		c1.1,0,2.4-0.24,3.06-0.58L248.54,85.47z"/>
	<path class="st1" d="M260.86,85.47c-1.02,0.24-2.12,0.44-3.18,0.44c-4.52,0-7.66-2.26-7.66-6.98c0-4.78,2.92-7.46,7.66-7.46
		c0.92,0,2.14,0.18,3.16,0.58l-0.2,2.36c-1.06-0.6-2.02-0.74-3.02-0.74c-2.88,0-4.68,2.2-4.68,5.06c0,2.84,1.76,4.98,4.74,4.98
		c1.1,0,2.4-0.24,3.06-0.58L260.86,85.47z"/>
	<path class="st1" d="M267.42,71.71h3.16l5.48,13.96h-3.1l-1.2-3.2h-5.66l-1.22,3.2h-2.9L267.42,71.71z M268.96,74.51h-0.04
		l-2.02,5.76h4.08L268.96,74.51z"/>
	<path class="st1" d="M278.76,71.71h7.76v2.2h-4.96v3.44h4.72v2.2h-4.72v6.12h-2.8L278.76,71.71L278.76,71.71z"/>
	<path class="st1" d="M297.16,74.27c-0.88-0.38-1.86-0.6-2.84-0.6c-0.96,0-2.2,0.42-2.2,1.94c0,2.42,6.12,1.4,6.12,6.08
		c0,3.06-2.42,4.22-5.24,4.22c-1.52,0-2.2-0.2-3.58-0.54l0.26-2.52c0.96,0.52,2.06,0.86,3.16,0.86c1.06,0,2.48-0.54,2.48-1.8
		c0-2.66-6.12-1.56-6.12-6.18c0-3.12,2.42-4.26,4.88-4.26c1.2,0,2.32,0.16,3.34,0.5L297.16,74.27z"/>
</g>
<path class="st1" d="M37.86,29.1c-0.8-1.02-2.7-2.7-3.69-3.69c-1.53-1.53-1.93-1.99-1.93-4.6V9.69c0-1.59-2.44-1.36-2.44,0.06
	c0,0-0.17,19.35,0,21c0.17,1.64-0.64,2.93,1.99,4.6c2.91,1.85,7.09,3.06,7.09,3.06s0.06-4.26,0.12-5.85
	C39.05,30.98,38.65,30.12,37.86,29.1 M36.63,35.15c0,0.01-0.01,0.02-0.01,0.02c-4.08-1.66-4.79-1.34-4.29-7.54
	C37.16,30.58,36.82,31.67,36.63,35.15 M41.42,32.56c0.06,1.59,0.11,5.85,0.11,5.85s4.18-1.22,7.09-3.06
	c2.63-1.67,1.82-2.95,1.99-4.6c0.17-1.65,0-21,0-21c0-1.42-2.44-1.65-2.44-0.06v11.12c0,2.61-0.4,3.06-1.93,4.6
	c-0.99,0.99-2.89,2.67-3.69,3.69C41.76,30.12,41.36,30.98,41.42,32.56 M48.07,27.63c0.51,6.2-0.21,5.87-4.28,7.54
	c0,0-0.01-0.01-0.01-0.02C43.59,31.67,43.25,30.58,48.07,27.63 M43.43,17.79c-1.42-2.54,0,0-1.96-3.31V2.2c0-1.92-2.42-1.77-2.42,0
	l0.03,12.26c0,0-2.07,3.48-2.65,4.87c-0.58,1.38-1.36,3.05,0.61,5.28c0.15,0.17,0.39,0.64,3.26,3.33l0.06-0.06
	c0,0-0.02-0.02,2.5-2.5C45.97,22.29,44.86,20.33,43.43,17.79 M40.28,24.94c-4.7-2.52-1.34-5.92,0-8.18l0.12,0.19
	C43.85,22.12,42.91,22.9,40.28,24.94 M38.81,44.1c-0.12-2.41-0.97-4.54-5.9-6.39c-4.14-1.55-10-1.89-14.26-2.57
	c-4.26-0.69-11.33-1.85-14.86-5.22c2.65,8.81,9.29,12.5,16.03,13.94c7.63,1.63,14.47,2.32,18.63,5.21l0.42,0.29
	C38.63,47.33,38.93,46.52,38.81,44.1 M36.7,45.27c-3.65-1.4-6.08-1.76-12.66-3.08c-6.57-1.32-10.5-2.53-14.05-6.27
	c5.71,2.19,14.85,2.98,19.84,4.04C34.81,41.02,36.17,42.31,36.7,45.27L36.7,45.27z M41.48,49.37l0.42-0.29
	c4.16-2.89,11.01-3.58,18.63-5.21c6.74-1.44,13.38-5.13,16.03-13.94c-3.54,3.38-10.6,4.54-14.86,5.22s-10.12,1.02-14.26,2.57
	c-4.93,1.85-5.79,3.98-5.9,6.39C41.42,46.52,41.72,47.34,41.48,49.37 M43.65,45.27c0.53-2.96,1.89-4.25,6.88-5.31
	s14.13-1.85,19.84-4.04c-3.55,3.74-7.48,4.95-14.05,6.27C49.73,43.51,47.3,43.87,43.65,45.27L43.65,45.27z M38.56,55.3
	c0.05-4.74-2.66-6.07-6.71-7.13c-4.04-1.06-9.69-1.86-14.48-3.25c-4.79-1.38-7.45-2.29-10.7-5.8c0.69,6.87,5.48,11.71,11.39,13.79
	c5.91,2.07,5.59,1.65,8.78,2.45c3.2,0.8,3.78,1.97,3.78,3.94v4.04h7.93C38.72,54.19,38.51,60.04,38.56,55.3 M36.26,60.77h-3.23
	c0,0,0.07-1.34-0.12-3.64c-0.25-3.04-3.79-3.3-9.62-4.92c-4-1.11-9.22-2.55-11.55-6.54c1.42,0.62,4.26,1.82,8.9,2.78
	c4.41,0.91,6.93,1.42,10.99,2.27c3.87,0.8,4.62,3.17,4.62,5.78L36.26,60.77L36.26,60.77z M41.65,63.35h7.93V59.3
	c0-1.97,0.59-3.14,3.78-3.94c3.2-0.8,2.88-0.37,8.79-2.45c5.91-2.08,10.7-6.92,11.39-13.79c-3.25,3.51-5.91,4.42-10.7,5.8
	c-4.79,1.38-10.43,2.18-14.48,3.25c-4.05,1.06-6.76,2.39-6.71,7.13C41.7,60.05,41.49,54.2,41.65,63.35 M43.95,56.51
	c0-2.61,0.76-4.98,4.62-5.78c4.06-0.84,6.58-1.36,10.99-2.27c4.64-0.96,7.48-2.16,8.9-2.78c-2.33,4-7.55,5.43-11.55,6.54
	c-5.82,1.62-9.37,1.88-9.62,4.92c-0.19,2.3-0.12,3.64-0.12,3.64h-3.23L43.95,56.51L43.95,56.51z M22.54,85.52
	c-1.02,0.24-2.11,0.44-3.17,0.44c-4.51,0-7.64-2.26-7.64-6.96c0-4.77,2.91-7.44,7.64-7.44c0.92,0,2.13,0.18,3.15,0.58l-0.2,2.35
	c-1.06-0.6-2.01-0.74-3.01-0.74c-2.87,0-4.67,2.19-4.67,5.05c0,2.83,1.76,4.97,4.73,4.97c1.1,0,2.39-0.24,3.05-0.58L22.54,85.52z
	 M35.47,74.49c-1.08-0.5-2.47-0.74-3.59-0.74c-3.25,0-5.05,2.19-5.05,5.05c0,2.83,1.75,4.97,4.73,4.97c0.76,0,1.36-0.08,1.84-0.2
	v-3.63h-2.95v-2.19h5.63v7.5c-1.48,0.4-3.01,0.72-4.51,0.72c-4.51,0-7.64-2.26-7.64-6.96c0-4.77,2.91-7.44,7.64-7.44
	c1.62,0,2.89,0.22,4.09,0.58L35.47,74.49z M38.76,71.79h2.79v13.92h-2.79V71.79z M52.08,80.33h-4.07l2.01-5.75h0.04L52.08,80.33z
	 M43.11,85.72H46l1.21-3.19h5.65l1.2,3.19h3.09l-5.46-13.93h-3.15L43.11,85.72z M61.5,73.99h0.92c1.4,0,2.96,0.14,2.96,1.82
	c0,1.74-1.58,1.94-2.96,1.94H61.5V73.99z M58.71,85.72h2.79v-5.79h0.9c1.18,0,1.54,0.4,1.94,1.44l1.68,4.35h3.11l-2.23-5.45
	c-0.28-0.62-0.72-1.38-1.48-1.44V78.8c1.78-0.24,2.87-1.6,2.87-3.23c0-3.87-3.57-3.77-6.56-3.77h-3.01v13.92H58.71z"/>
<g>
	<path class="st1" d="M98.2,23.86h1.64c1.33,0,2.6,0.21,2.6,1.81c0,0.82-0.6,1.39-1.38,1.53v0.02c0.3,0.12,0.44,0.26,0.65,0.67
		l1.27,2.67h-1.09l-1.03-2.32c-0.3-0.65-0.61-0.65-1.12-0.65h-0.57v2.98H98.2V23.86z M99.17,26.74h0.81c0.91,0,1.45-0.4,1.45-1.05
		c0-0.6-0.46-0.99-1.34-0.99h-0.92V26.74z"/>
	<path class="st1" d="M104.42,23.86h3.75v0.84h-2.79v1.96h2.54v0.84h-2.54v2.21h2.79v0.84h-3.75V23.86z"/>
	<path class="st1" d="M112.99,24.87c-0.49-0.19-0.76-0.28-1.26-0.28c-0.54,0-1.17,0.19-1.17,0.89c0,1.29,2.88,0.99,2.88,3.2
		c0,1.43-1.1,2-2.45,2c-0.47,0-0.93-0.13-1.37-0.28l0.1-0.89c0.33,0.13,0.9,0.33,1.39,0.33c0.55,0,1.31-0.31,1.31-1.09
		c0-1.5-2.88-1.08-2.88-3.17c0-1.19,0.94-1.82,2.15-1.82c0.44,0,0.97,0.08,1.43,0.24L112.99,24.87z"/>
	<path class="st1" d="M115.03,23.86h3.75v0.84h-2.79v1.96h2.54v0.84h-2.54v2.21h2.79v0.84h-3.75V23.86z"/>
	<path class="st1" d="M122.69,23.86h1.01l2.83,6.7h-1.04l-0.68-1.69h-3.28l-0.68,1.69h-1.01L122.69,23.86z M123.15,24.76l-1.33,3.32
		h2.67L123.15,24.76z"/>
	<path class="st1" d="M127.68,23.86h1.64c1.32,0,2.6,0.21,2.6,1.81c0,0.82-0.61,1.39-1.38,1.53v0.02c0.3,0.12,0.44,0.26,0.65,0.67
		l1.27,2.67h-1.09l-1.03-2.32c-0.3-0.65-0.62-0.65-1.12-0.65h-0.58v2.98h-0.96L127.68,23.86L127.68,23.86z M128.64,26.74h0.82
		c0.91,0,1.45-0.4,1.45-1.05c0-0.6-0.46-0.99-1.34-0.99h-0.92v2.04H128.64z"/>
	<path class="st1" d="M138.47,24.96c-0.42-0.25-0.89-0.37-1.38-0.37c-1.54,0-2.57,1.11-2.57,2.62c0,1.57,1.13,2.62,2.52,2.62
		c0.48,0,1.12-0.12,1.46-0.33l0.06,0.93c-0.51,0.21-1.13,0.24-1.53,0.24c-2.12,0-3.53-1.36-3.53-3.49c0-2.06,1.5-3.44,3.54-3.44
		c0.52,0,1.03,0.08,1.51,0.29L138.47,24.96z"/>
	<path class="st1" d="M139.99,23.86h0.96v2.8h3.21v-2.8h0.96v6.7h-0.96v-3.05h-3.21v3.05h-0.96V23.86z"/>
	<path class="st1" d="M149.97,23.86h1.76c1.37,0,2.52,0.48,2.52,2.01c0,1.49-1.16,2.02-2.37,2.02h-0.94v2.68h-0.96L149.97,23.86
		L149.97,23.86z M150.93,27.04h0.95c0.6,0,1.34-0.3,1.34-1.18c0-0.84-0.88-1.15-1.48-1.15h-0.81V27.04z"/>
	<path class="st1" d="M155.54,23.86h1.64c1.33,0,2.6,0.21,2.6,1.81c0,0.82-0.6,1.39-1.38,1.53v0.02c0.3,0.12,0.44,0.26,0.65,0.67
		l1.27,2.67h-1.09l-1.03-2.32c-0.3-0.65-0.61-0.65-1.12-0.65h-0.57v2.98h-0.96L155.54,23.86L155.54,23.86z M156.51,26.74h0.81
		c0.91,0,1.45-0.4,1.45-1.05c0-0.6-0.46-0.99-1.34-0.99h-0.92V26.74z"/>
	<path class="st1" d="M164.59,23.74c2.04,0,3.22,1.48,3.22,3.46c0,2.04-1.18,3.46-3.22,3.46c-2.04,0-3.22-1.43-3.22-3.46
		C161.36,25.22,162.55,23.74,164.59,23.74z M164.59,29.83c1.54,0,2.21-1.29,2.21-2.62c0-1.36-0.73-2.63-2.21-2.62
		c-1.48-0.01-2.21,1.26-2.21,2.62C162.38,28.54,163.04,29.83,164.59,29.83z"/>
	<path class="st1" d="M174.5,25.05c-0.47-0.31-0.98-0.46-1.84-0.46c-1.54,0-2.57,1.12-2.57,2.62c0,1.57,1.13,2.62,2.52,2.62
		c0.66,0,0.84-0.07,1.08-0.12v-2.03h-1.41v-0.79h2.37v3.48c-0.36,0.12-1,0.3-2.04,0.3c-2.12,0-3.53-1.36-3.53-3.49
		c0-2.06,1.5-3.44,3.54-3.44c0.98,0,1.41,0.14,1.97,0.34L174.5,25.05z"/>
	<path class="st1" d="M176.53,23.86h1.64c1.33,0,2.6,0.21,2.6,1.81c0,0.82-0.6,1.39-1.38,1.53v0.02c0.3,0.12,0.44,0.26,0.65,0.67
		l1.27,2.67h-1.09l-1.03-2.32c-0.3-0.65-0.61-0.65-1.12-0.65h-0.57v2.98h-0.96L176.53,23.86L176.53,23.86z M177.49,26.74h0.81
		c0.91,0,1.45-0.4,1.45-1.05c0-0.6-0.46-0.99-1.34-0.99h-0.92V26.74z"/>
	<path class="st1" d="M184.81,23.86h1.01l2.83,6.7h-1.04l-0.68-1.69h-3.28l-0.68,1.69h-1.01L184.81,23.86z M185.28,24.76l-1.33,3.32
		h2.67L185.28,24.76z"/>
	<path class="st1" d="M189.87,23.86h1.58l2.1,5.57l2.06-5.57h1.58v6.7h-0.96v-5.8h-0.02l-2.22,5.8h-0.94l-2.22-5.8h-0.02v5.8h-0.96
		v-6.7H189.87z"/>
	<path class="st1" d="M204.95,23.74c2.04,0,3.22,1.48,3.22,3.46c0,2.04-1.18,3.46-3.22,3.46c-2.04,0-3.22-1.43-3.22-3.46
		C201.73,25.22,202.92,23.74,204.95,23.74z M204.95,29.83c1.54,0,2.21-1.29,2.21-2.62c0-1.36-0.73-2.63-2.21-2.62
		c-1.48-0.01-2.21,1.26-2.21,2.62C202.75,28.54,203.41,29.83,204.95,29.83z"/>
	<path class="st1" d="M209.77,23.86h1.3l2.96,5.39h0.02v-5.39h0.96v6.7h-1.23l-3.03-5.51h-0.02v5.51h-0.96L209.77,23.86
		L209.77,23.86z"/>
	<path class="st1" d="M106.59,49.12c-0.79,0.19-1.65,0.34-2.48,0.34c-3.53,0-5.97-1.76-5.97-5.44c0-3.73,2.28-5.82,5.97-5.82
		c0.72,0,1.67,0.14,2.46,0.45l-0.16,1.84c-0.83-0.47-1.57-0.58-2.35-0.58c-2.25,0-3.65,1.71-3.65,3.95c0,2.21,1.37,3.88,3.7,3.88
		c0.86,0,1.87-0.19,2.38-0.45L106.59,49.12z"/>
	<path class="st1" d="M108.22,37.58h2.09v11.7h-2.09V37.58z"/>
	<path class="st1" d="M112.71,37.79h2.09v2h-2.09V37.79z M112.71,41.25h2.09v8.03h-2.09V41.25z"/>
	<path class="st1" d="M117.13,41.25h1.95v1.12h0.03c0.65-0.98,1.61-1.31,2.38-1.31c1.12,0,1.92,0.42,2.37,1.42
		c0.48-0.97,1.53-1.42,2.51-1.42c1.98,0,2.54,1.36,2.54,3.15v5.07h-2.09v-4.79c0-0.75,0-1.81-1.2-1.81c-1.39,0-1.56,1.65-1.56,2.7
		v3.9h-2.09v-4.79c0-0.75,0-1.81-1.2-1.81c-1.39,0-1.56,1.65-1.56,2.7v3.9h-2.09L117.13,41.25L117.13,41.25z"/>
	<path class="st1" d="M131.54,41.67c0.81-0.37,1.9-0.61,2.79-0.61c2.45,0,3.46,1.01,3.46,3.38v1.03c0,0.81,0.02,1.42,0.03,2.01
		c0.01,0.61,0.04,1.17,0.09,1.79h-1.84c-0.08-0.42-0.08-0.95-0.09-1.2h-0.03c-0.48,0.89-1.53,1.39-2.48,1.39
		c-1.42,0-2.81-0.86-2.81-2.39c0-1.2,0.58-1.9,1.37-2.29c0.8-0.39,1.82-0.47,2.7-0.47h1.15c0-1.29-0.58-1.73-1.81-1.73
		c-0.89,0-1.78,0.34-2.48,0.87L131.54,41.67z M133.99,47.94c0.64,0,1.14-0.28,1.47-0.72c0.34-0.45,0.44-1.03,0.44-1.65H135
		c-0.94,0-2.32,0.16-2.32,1.39C132.66,47.64,133.24,47.94,133.99,47.94z"/>
	<path class="st1" d="M140.7,42.78h-1.54v-1.53h1.54v-1.61l2.09-0.67v2.28h1.86v1.53h-1.86v3.74c0,0.69,0.19,1.33,0.98,1.33
		c0.38,0,0.73-0.08,0.95-0.22l0.06,1.65c-0.44,0.12-0.92,0.19-1.54,0.19c-1.64,0-2.54-1.01-2.54-2.6V42.78z"/>
	<path class="st1" d="M152.68,48.83c-0.76,0.42-1.64,0.64-2.76,0.64c-2.65,0-4.2-1.53-4.2-4.16c0-2.32,1.23-4.24,3.73-4.24
		c2.98,0,3.82,2.04,3.82,4.85h-5.55c0.09,1.29,1,2.03,2.29,2.03c1.01,0,1.89-0.38,2.67-0.81V48.83z M151.27,44.48
		c-0.06-1.01-0.53-1.89-1.7-1.89s-1.76,0.81-1.86,1.89H151.27z"/>
	<path class="st1" d="M167.67,49.12c-0.79,0.19-1.65,0.34-2.48,0.34c-3.53,0-5.97-1.76-5.97-5.44c0-3.73,2.28-5.82,5.97-5.82
		c0.72,0,1.67,0.14,2.46,0.45l-0.16,1.84c-0.83-0.47-1.57-0.58-2.35-0.58c-2.25,0-3.65,1.71-3.65,3.95c0,2.21,1.37,3.88,3.7,3.88
		c0.86,0,1.87-0.19,2.38-0.45L167.67,49.12z"/>
	<path class="st1" d="M169.25,37.58h2.09v4.76h0.03c0.53-0.78,1.44-1.28,2.53-1.28c1.9,0,2.73,1.34,2.73,3.15v5.07h-2.09v-4.29
		c0-0.98-0.02-2.31-1.36-2.31c-1.51,0-1.84,1.64-1.84,2.67v3.93h-2.09V37.58z"/>
	<path class="st1" d="M179.29,41.67c0.81-0.37,1.9-0.61,2.79-0.61c2.45,0,3.46,1.01,3.46,3.38v1.03c0,0.81,0.02,1.42,0.03,2.01
		c0.02,0.61,0.05,1.17,0.09,1.79h-1.84c-0.08-0.42-0.08-0.95-0.09-1.2h-0.03c-0.48,0.89-1.53,1.39-2.48,1.39
		c-1.42,0-2.81-0.86-2.81-2.39c0-1.2,0.58-1.9,1.37-2.29s1.82-0.47,2.7-0.47h1.15c0-1.29-0.58-1.73-1.81-1.73
		c-0.89,0-1.78,0.34-2.48,0.87L179.29,41.67z M181.74,47.94c0.64,0,1.14-0.28,1.46-0.72c0.34-0.45,0.44-1.03,0.44-1.65h-0.9
		c-0.94,0-2.32,0.16-2.32,1.39C180.41,47.64,180.99,47.94,181.74,47.94z"/>
	<path class="st1" d="M187.76,41.25h1.98v1.09h0.03c0.65-0.92,1.54-1.28,2.63-1.28c1.9,0,2.73,1.34,2.73,3.15v5.07h-2.09v-4.29
		c0-0.98-0.02-2.31-1.36-2.31c-1.51,0-1.84,1.64-1.84,2.67v3.93h-2.09L187.76,41.25L187.76,41.25z"/>
	<path class="st1" d="M204.83,41.25v7.25c0,2.18-0.87,4.24-4.24,4.24c-0.83,0-1.78-0.12-2.78-0.55l0.17-1.78
		c0.64,0.34,1.68,0.7,2.34,0.7c2.31,0,2.42-1.73,2.42-3.12h-0.03c-0.39,0.69-1.32,1.28-2.49,1.28c-2.37,0-3.28-1.9-3.28-4.05
		c0-1.93,1-4.16,3.4-4.16c1.06,0,1.89,0.36,2.46,1.28h0.03v-1.09H204.83z M202.74,45.18c0-1.37-0.53-2.5-1.75-2.5
		c-1.42,0-1.87,1.31-1.87,2.54c0,1.09,0.58,2.43,1.78,2.43C202.21,47.66,202.74,46.52,202.74,45.18z"/>
	<path class="st1" d="M213.58,48.83c-0.76,0.42-1.64,0.64-2.76,0.64c-2.65,0-4.2-1.53-4.2-4.16c0-2.32,1.23-4.24,3.73-4.24
		c2.98,0,3.82,2.04,3.82,4.85h-5.55c0.09,1.29,1,2.03,2.29,2.03c1.01,0,1.89-0.38,2.67-0.81V48.83z M212.18,44.48
		c-0.06-1.01-0.53-1.89-1.7-1.89s-1.76,0.81-1.86,1.89H212.18z"/>
	<path class="st1" d="M216.25,47.1h2.26l-1.42,3.9h-1.84L216.25,47.1z"/>
	<path class="st1" d="M101.79,56.59h2.46l4.27,10.88h-2.42l-0.94-2.5h-4.41l-0.95,2.5h-2.26L101.79,56.59z M102.99,58.78h-0.03
		l-1.58,4.49h3.18L102.99,58.78z"/>
	<path class="st1" d="M117.28,59.45v7.25c0,2.18-0.87,4.24-4.24,4.24c-0.83,0-1.78-0.12-2.78-0.55l0.17-1.78
		c0.64,0.34,1.68,0.7,2.34,0.7c2.31,0,2.42-1.73,2.42-3.12h-0.03c-0.39,0.69-1.32,1.28-2.49,1.28c-2.37,0-3.28-1.9-3.28-4.05
		c0-1.93,1-4.16,3.4-4.16c1.06,0,1.89,0.36,2.46,1.28h0.03v-1.09L117.28,59.45L117.28,59.45z M115.19,63.38
		c0-1.37-0.53-2.5-1.75-2.5c-1.42,0-1.87,1.31-1.87,2.54c0,1.09,0.58,2.43,1.78,2.43C114.66,65.86,115.19,64.72,115.19,63.38z"/>
	<path class="st1" d="M119.64,59.45h1.86v1.82h0.03c0.09-0.75,0.95-2.01,2.2-2.01c0.2,0,0.42,0,0.64,0.06v2.11
		c-0.19-0.11-0.56-0.17-0.94-0.17c-1.7,0-1.7,2.12-1.7,3.28v2.95h-2.09V59.45z"/>
	<path class="st1" d="M125.86,55.99h2.09v2h-2.09V55.99z M125.86,59.45h2.09v8.03h-2.09V59.45z"/>
	<path class="st1" d="M135.52,61.18c-0.37-0.17-0.78-0.3-1.42-0.3c-1.29,0-2.12,1.03-2.12,2.54c0,1.48,0.7,2.62,2.17,2.62
		c0.59,0,1.25-0.22,1.61-0.37l0.09,1.73c-0.61,0.19-1.23,0.27-2.09,0.27c-2.63,0-3.96-1.79-3.96-4.24c0-2.32,1.37-4.16,3.88-4.16
		c0.84,0,1.45,0.09,2.03,0.27L135.52,61.18z"/>
	<path class="st1" d="M144.77,67.48h-1.98v-1.09h-0.03c-0.64,0.78-1.54,1.28-2.63,1.28c-1.9,0-2.73-1.34-2.73-3.15v-5.07h2.09v4.29
		c0,0.98,0.02,2.31,1.36,2.31c1.51,0,1.84-1.64,1.84-2.67v-3.93h2.09L144.77,67.48L144.77,67.48z"/>
	<path class="st1" d="M147.12,55.78h2.09v11.7h-2.09V55.78z"/>
	<path class="st1" d="M152.26,60.98h-1.54v-1.53h1.54v-1.61l2.09-0.67v2.28h1.86v1.53h-1.86v3.74c0,0.69,0.19,1.33,0.98,1.33
		c0.38,0,0.73-0.08,0.95-0.22l0.06,1.65c-0.44,0.12-0.92,0.19-1.54,0.19c-1.64,0-2.54-1.01-2.54-2.6V60.98z"/>
	<path class="st1" d="M165.17,67.48h-1.98v-1.09h-0.03c-0.64,0.78-1.54,1.28-2.63,1.28c-1.9,0-2.73-1.34-2.73-3.15v-5.07h2.09v4.29
		c0,0.98,0.02,2.31,1.36,2.31c1.51,0,1.84-1.64,1.84-2.67v-3.93h2.09L165.17,67.48L165.17,67.48z"/>
	<path class="st1" d="M167.53,59.45h1.86v1.82h0.03c0.09-0.75,0.95-2.01,2.2-2.01c0.2,0,0.42,0,0.64,0.06v2.11
		c-0.19-0.11-0.56-0.17-0.94-0.17c-1.7,0-1.7,2.12-1.7,3.28v2.95h-2.09V59.45z"/>
	<path class="st1" d="M180.15,67.03c-0.77,0.42-1.64,0.64-2.76,0.64c-2.65,0-4.19-1.53-4.19-4.16c0-2.32,1.23-4.24,3.73-4.24
		c2.98,0,3.82,2.04,3.82,4.85h-5.55c0.09,1.29,1,2.03,2.29,2.03c1.01,0,1.89-0.38,2.67-0.81L180.15,67.03L180.15,67.03z
		 M178.74,62.68c-0.06-1.01-0.53-1.89-1.7-1.89s-1.76,0.81-1.86,1.89H178.74z"/>
	<path class="st1" d="M187.39,59.87c0.81-0.37,1.9-0.61,2.79-0.61c2.45,0,3.46,1.01,3.46,3.38v1.03c0,0.81,0.02,1.42,0.03,2.01
		c0.02,0.61,0.05,1.17,0.09,1.79h-1.84c-0.08-0.42-0.08-0.95-0.09-1.2h-0.03c-0.48,0.89-1.53,1.39-2.48,1.39
		c-1.42,0-2.81-0.86-2.81-2.39c0-1.2,0.58-1.9,1.37-2.29s1.82-0.47,2.7-0.47h1.15c0-1.29-0.58-1.73-1.81-1.73
		c-0.89,0-1.78,0.34-2.48,0.87L187.39,59.87z M189.84,66.14c0.64,0,1.14-0.28,1.46-0.72c0.34-0.45,0.44-1.03,0.44-1.65h-0.9
		c-0.94,0-2.32,0.16-2.32,1.39C188.51,65.84,189.09,66.14,189.84,66.14z"/>
	<path class="st1" d="M195.86,59.45h1.98v1.09h0.03c0.65-0.92,1.54-1.28,2.63-1.28c1.9,0,2.73,1.34,2.73,3.15v5.07h-2.09v-4.29
		c0-0.98-0.02-2.31-1.36-2.31c-1.51,0-1.84,1.64-1.84,2.67v3.93h-2.09L195.86,59.45L195.86,59.45z"/>
	<path class="st1" d="M210.89,66.57h-0.03c-0.62,0.78-1.48,1.09-2.46,1.09c-2.46,0-3.37-2.03-3.37-4.23c0-2.21,0.9-4.18,3.37-4.18
		c1.04,0,1.78,0.36,2.4,1.12h0.03v-4.6h2.09v11.7h-2.03L210.89,66.57L210.89,66.57z M208.98,66.04c1.39,0,1.84-1.47,1.84-2.6
		c0-1.12-0.53-2.56-1.87-2.56c-1.36,0-1.73,1.48-1.73,2.56C207.21,64.55,207.6,66.04,208.98,66.04z"/>
	<path class="st1" d="M98.67,74.79h6.05v1.71h-3.87v2.68h3.68v1.72h-3.68v4.77h-2.18V74.79z"/>
	<path class="st1" d="M110.12,77.46c2.39,0,4.21,1.61,4.21,4.26c0,2.31-1.54,4.15-4.21,4.15c-2.65,0-4.2-1.84-4.2-4.15
		C105.93,79.07,107.75,77.46,110.12,77.46z M110.12,84.24c1.61,0,2.03-1.43,2.03-2.78c0-1.23-0.65-2.39-2.03-2.39
		c-1.36,0-2.01,1.19-2.01,2.39C108.11,82.79,108.53,84.24,110.12,84.24z"/>
	<path class="st1" d="M119.81,77.46c2.39,0,4.21,1.61,4.21,4.26c0,2.31-1.54,4.15-4.21,4.15c-2.65,0-4.19-1.84-4.19-4.15
		C115.61,79.07,117.44,77.46,119.81,77.46z M119.81,84.24c1.61,0,2.03-1.43,2.03-2.78c0-1.23-0.65-2.39-2.03-2.39
		c-1.36,0-2.01,1.19-2.01,2.39C117.79,82.79,118.22,84.24,119.81,84.24z"/>
	<path class="st1" d="M131.16,84.77h-0.03c-0.62,0.78-1.48,1.09-2.46,1.09c-2.46,0-3.37-2.03-3.37-4.23c0-2.21,0.9-4.18,3.37-4.18
		c1.04,0,1.78,0.36,2.4,1.12h0.03v-4.6h2.09v11.7h-2.03L131.16,84.77L131.16,84.77z M129.25,84.24c1.39,0,1.84-1.47,1.84-2.6
		c0-1.12-0.53-2.56-1.87-2.56c-1.36,0-1.73,1.48-1.73,2.56C127.48,82.75,127.87,84.24,129.25,84.24z"/>
	<path class="st1" d="M146.03,76.79c-0.69-0.3-1.45-0.47-2.21-0.47c-0.75,0-1.71,0.33-1.71,1.51c0,1.89,4.77,1.09,4.77,4.74
		c0,2.39-1.89,3.29-4.09,3.29c-1.19,0-1.71-0.16-2.79-0.42l0.2-1.96c0.75,0.41,1.61,0.67,2.46,0.67c0.83,0,1.93-0.42,1.93-1.4
		c0-2.07-4.77-1.22-4.77-4.82c0-2.43,1.89-3.32,3.8-3.32c0.94,0,1.81,0.12,2.6,0.39L146.03,76.79z"/>
	<path class="st1" d="M155.27,85.23c-0.77,0.42-1.64,0.64-2.76,0.64c-2.65,0-4.19-1.53-4.19-4.16c0-2.32,1.23-4.24,3.73-4.24
		c2.98,0,3.82,2.04,3.82,4.85h-5.55c0.09,1.29,1,2.03,2.29,2.03c1.01,0,1.89-0.38,2.67-0.81L155.27,85.23L155.27,85.23z
		 M153.86,80.88c-0.06-1.01-0.53-1.89-1.7-1.89s-1.76,0.81-1.86,1.89H153.86z"/>
	<path class="st1" d="M162.86,79.38c-0.38-0.17-0.78-0.3-1.42-0.3c-1.29,0-2.12,1.03-2.12,2.54c0,1.48,0.7,2.62,2.17,2.62
		c0.59,0,1.25-0.22,1.61-0.37l0.09,1.73c-0.61,0.19-1.23,0.27-2.09,0.27c-2.64,0-3.96-1.79-3.96-4.24c0-2.32,1.37-4.16,3.88-4.16
		c0.84,0,1.45,0.09,2.03,0.27L162.86,79.38z"/>
	<path class="st1" d="M172.11,85.68h-1.98v-1.09h-0.03c-0.64,0.78-1.54,1.28-2.64,1.28c-1.9,0-2.73-1.34-2.73-3.15v-5.07h2.09v4.29
		c0,0.98,0.02,2.31,1.36,2.31c1.51,0,1.84-1.64,1.84-2.67v-3.93h2.09V85.68z"/>
	<path class="st1" d="M174.47,77.65h1.86v1.82h0.03c0.09-0.75,0.95-2.01,2.2-2.01c0.2,0,0.42,0,0.64,0.06v2.11
		c-0.19-0.11-0.56-0.17-0.94-0.17c-1.7,0-1.7,2.12-1.7,3.28v2.95h-2.09V77.65z"/>
	<path class="st1" d="M180.7,74.19h2.09v2h-2.09V74.19z M180.7,77.65h2.09v8.03h-2.09V77.65z"/>
	<path class="st1" d="M185.83,79.18h-1.54v-1.53h1.54v-1.61l2.09-0.67v2.28h1.86v1.53h-1.86v3.74c0,0.69,0.19,1.33,0.98,1.33
		c0.38,0,0.73-0.08,0.95-0.22l0.06,1.65c-0.44,0.12-0.92,0.19-1.54,0.19c-1.64,0-2.54-1.01-2.54-2.6V79.18z"/>
	<path class="st1" d="M194.7,83.51h0.03l1.93-5.86h2.12l-3.01,7.97c-0.67,1.78-1.15,3.52-3.34,3.52c-0.5,0-1-0.08-1.48-0.22
		l0.14-1.54c0.27,0.09,0.56,0.14,1.08,0.14c0.84,0,1.36-0.58,1.36-1.43l-3.07-8.44h2.31L194.7,83.51z"/>
</g>
</svg>
