<?xml version="1.0" encoding="utf-8"?>
<!-- Generator: Adobe Illustrator 24.1.0, SVG Export Plug-In . SVG Version: 6.00 Build 0)  -->

<svg id="print-logo" width="134px" height="60px" viewBox="0 0 512 232" version="1.1" xmlns="http://www.w3.org/2000/svg" xmlns:xlink="http://www.w3.org/1999/xlink">
	<g id="dark-logo" stroke="none" stroke-width="1" fill="none" fill-rule="evenodd">
		<path d="M510.880863,167.514714 L332.061605,149.077449 L332.05362,149.080637 L331.962587,149.071075 L416.596175,130.362885 C417.217435,130.229016 417.634271,129.655292 417.568791,129.028976 C417.503311,128.399473 416.977875,127.924557 416.350226,127.914995 L317.632068,126.633678 L317.633665,126.633678 L317.569783,126.633678 L393.012226,73.8223663 C393.531274,73.462195 393.698967,72.7673512 393.387538,72.2063765 C393.286922,72.0262908 393.138395,71.8940155 392.973896,71.7872391 C392.930775,71.7585529 392.892446,71.7362414 392.846131,71.7123362 C392.692812,71.6358396 392.529911,71.5880293 392.357427,71.5800609 C392.336665,71.5784672 392.320694,71.5641241 392.299932,71.5641241 C392.293544,71.5641241 392.288753,71.5673115 392.282365,71.5673115 C392.130643,71.5689052 391.975727,71.5975914 391.827199,71.6597448 L288.658005,114.132865 L288.654811,114.137646 L288.586137,114.166332 L305.323441,69.4365636 C305.540643,68.8819635 305.317053,68.2397112 304.791617,67.938506 C304.615939,67.8333232 304.422693,67.7950749 304.227851,67.7855129 C304.205492,67.7839192 304.186327,67.7679824 304.163968,67.7679824 C304.138415,67.7679824 304.114459,67.7823255 304.088906,67.7839192 C303.972319,67.7918876 303.862121,67.8157928 303.753521,67.8556347 C303.707206,67.8715715 303.662488,67.8811336 303.619367,67.9034451 C303.472436,67.9751606 303.335088,68.0691876 303.221696,68.2014629 L269.887628,106.852943 L269.887628,106.854536 L269.863672,106.883223 L269.865269,106.878442 L269.779028,106.980437 L257.328261,1.09485699 C257.256393,0.471728777 256.724569,0 256.090531,0 C255.456494,0 254.927864,0.471728777 254.854398,1.09485699 L242.4212,106.923065 L242.4212,106.921471 L242.414812,106.980437 L208.965755,68.2014629 C208.85396,68.0707813 208.716612,67.9767543 208.569681,67.9034451 C208.524963,67.8811336 208.478648,67.8715715 208.432333,67.8556347 C208.323732,67.8157928 208.215132,67.7918876 208.10174,67.7839192 C208.076186,67.7823255 208.05223,67.7679824 208.026677,67.7679824 C208.004318,67.7679824 207.985153,67.7839192 207.962794,67.7855129 C207.769549,67.7950749 207.574706,67.8333232 207.399028,67.938506 C206.876786,68.2397112 206.643614,68.8724015 206.857621,69.4333762 L223.424039,114.166332 L223.380919,114.147208 L223.366545,114.140834 L223.35856,114.136053 L223.35856,114.137646 L120.36664,71.6597448 C120.219709,71.599185 120.066391,71.5704988 119.914669,71.5673115 C119.90828,71.5673115 119.903489,71.5641241 119.897101,71.5641241 C119.877936,71.5641241 119.860368,71.5784672 119.841203,71.5784672 C119.667123,71.5864356 119.502624,71.634246 119.347709,71.7107425 C119.301393,71.733054 119.261467,71.7553655 119.218346,71.7840517 C119.053847,71.8908282 118.903723,72.0231035 118.803107,72.2063765 C118.498067,72.7673512 118.656177,73.4542266 119.172031,73.8223663 L194.435602,126.633678 L194.379705,126.633678 L194.381302,126.633678 L95.8420164,127.914995 C95.2095762,127.924557 94.6809457,128.399473 94.6218541,129.028976 C94.5563742,129.655292 94.9700156,130.229016 95.5816938,130.362885 L179.966138,149.015296 L179.964541,149.015296 L180.218476,149.071075 L1.11653658,167.514714 C0.455349158,167.586429 -0.0333545921,168.155372 0.00178097167,168.815155 C0.02893118,169.473344 0.583114844,169.996071 1.24110813,169.996071 L146.536247,169.986509 L218.049895,162.504189 L187.366966,153.979604 C187.068313,153.89992 186.873471,153.598715 186.92298,153.289541 C186.966101,152.981961 187.228021,152.758846 187.541047,152.758846 L187.553823,152.758846 L188.574351,152.792313 L228.207267,154.027414 L195.957611,131.424275 C195.697289,131.237814 195.622226,130.89358 195.765963,130.613093 C195.880952,130.409102 196.091765,130.297544 196.318549,130.297544 C196.396806,130.297544 196.473465,130.313481 196.554916,130.340574 L197.513158,130.734212 L197.514755,130.737399 L241.006195,148.64875 L233.87687,129.41624 C233.777851,129.134159 233.89284,128.818611 234.146775,128.665618 C234.244196,128.606652 234.352797,128.579559 234.464592,128.579559 C234.638673,128.579559 234.812753,128.651275 234.937325,128.799487 L249.271038,145.426332 L254.638794,99.8152594 C254.673929,99.5028984 254.943834,99.2638467 255.255263,99.2638467 C255.571483,99.2638467 255.838194,99.5028984 255.870136,99.8152594 L261.241086,145.426332 L275.574798,128.799487 C275.69937,128.651275 275.873451,128.579559 276.047532,128.579559 C276.151341,128.579559 276.264733,128.606652 276.35896,128.665618 C276.472352,128.730958 276.542624,128.836141 276.59373,128.947699 C276.608103,128.976385 276.622477,129.006665 276.63206,129.038538 C276.665598,129.159658 276.67518,129.29034 276.628865,129.41624 L269.493152,148.64875 L313.037295,130.721463 L313.042086,130.715088 L313.954014,130.340574 C314.029076,130.313481 314.110527,130.297544 314.193574,130.297544 C314.410776,130.297544 314.623186,130.409102 314.739773,130.613093 C314.889897,130.89358 314.80685,131.237814 314.548124,131.424275 L282.31923,154.014665 L323.145158,152.566011 L323.148352,152.566011 L323.169114,152.566011 L323.175502,152.566011 C323.523663,152.566011 323.795166,152.840124 323.795166,153.189139 C323.795166,153.476001 323.595532,153.719834 323.319238,153.788362 L292.893437,162.397413 L365.585724,169.996071 L510.756291,169.996071 C511.415882,169.996071 511.96208,169.473344 511.998813,168.815155 C512.02756,168.155372 511.530871,167.586429 510.880863,167.514714" id="mark" fill="url(#radialGradient-1)"></path>
		<path d="M73.7370004,202.214 L73.7370004,204.804 L61.1570004,204.804 L61.1570004,214.609 L70.1480004,214.609 L70.1480004,217.199 L61.1570004,217.199 L61.1570004,228.41 L74.5880004,228.41 L74.5880004,231 L58.1230004,231 L58.1230004,202.214 L73.7370004,202.214 Z M85.1030003,204.841 L85.1030003,231 L82.0690003,231 L82.0690003,202.214 L86.8790003,202.214 L98.3490003,224.895 L98.4230003,224.895 L98.4230003,202.214 L101.457,202.214 L101.457,231 L98.4230003,231 L85.1770003,204.841 L85.1030003,204.841 Z M124.959,202.214 L124.959,204.804 L112.379,204.804 L112.379,214.609 L121.37,214.609 L121.37,217.199 L112.379,217.199 L112.379,228.41 L125.81,228.41 L125.81,231 L109.345,231 L109.345,202.214 L124.959,202.214 Z M133.291,202.214 L140.099,202.214 C149.053,202.214 150.57,206.95 150.57,210.28 C150.57,213.721 148.387,216.496 145.131,217.569 L150.644,231 L147.277,231 L142.06,218.05 L136.325,218.05 L136.325,231 L133.291,231 L133.291,202.214 Z M136.325,204.804 L136.325,215.46 L140.395,215.46 C146.352,215.46 147.536,212.833 147.536,210.169 C147.536,206.21 145.057,204.804 140.95,204.804 L136.325,204.804 Z M176.958,209.984 L174.035,210.687 C173.221,207.32 171.704,204.101 167.486,204.101 C163.49,204.101 160.086,207.875 160.086,216.607 C160.086,225.339 163.49,229.113 167.486,229.113 C172.814,229.113 174.22,224.155 173.924,219.789 L168.078,219.789 L168.078,217.199 L176.958,217.199 L176.958,231 L174.368,231 L174.368,228.188 C172.814,230.334 170.335,231.592 167.486,231.592 C161.492,231.592 157.052,226.079 157.052,216.607 C157.052,207.135 161.492,201.622 167.486,201.622 C172.777,201.622 175.996,205.248 176.958,209.984 Z M202.125,202.214 L193.911,218.938 L193.911,231 L190.877,231 L190.877,218.938 L182.293,202.214 L185.475,202.214 L192.431,216.015 L192.505,216.015 L199.054,202.214 L202.125,202.214 Z M236.179,202.214 L236.179,204.804 L224.709,204.804 L224.709,214.313 L233.404,214.313 L233.404,216.903 L224.709,216.903 L224.709,231 L221.675,231 L221.675,202.214 L236.179,202.214 Z M252.762,201.622 C258.756,201.622 263.196,207.135 263.196,216.607 C263.196,226.079 258.756,231.592 252.762,231.592 C246.768,231.592 242.328,226.079 242.328,216.607 C242.328,207.135 246.768,201.622 252.762,201.622 Z M252.762,204.101 C248.766,204.101 245.362,207.875 245.362,216.607 C245.362,225.339 248.766,229.113 252.762,229.113 C256.758,229.113 260.162,225.339 260.162,216.607 C260.162,207.875 256.758,204.101 252.762,204.101 Z M288.585,202.214 L288.585,221.972 C288.585,229.705 283.516,231.592 279.446,231.592 C275.376,231.592 270.307,229.705 270.307,221.972 L270.307,202.214 L273.341,202.214 L273.341,219.863 C273.341,224.34 273.674,228.706 279.446,228.706 C285.218,228.706 285.551,224.34 285.551,219.863 L285.551,202.214 L288.585,202.214 Z M299.359,204.841 L299.359,231 L296.325,231 L296.325,202.214 L301.135,202.214 L312.605,224.895 L312.679,224.895 L312.679,202.214 L315.713,202.214 L315.713,231 L312.679,231 L299.433,204.841 L299.359,204.841 Z M323.601,202.214 L330.705,202.214 C339.067,202.214 342.841,208.245 342.841,216.459 C342.841,225.635 339.067,231 329.928,231 L323.601,231 L323.601,202.214 Z M326.635,204.804 L326.635,228.41 L329.484,228.41 C336.662,228.336 339.807,224.71 339.807,216.348 C339.807,208.985 336.847,204.878 330.89,204.804 L326.635,204.804 Z M360.238,202.214 L368.526,231 L365.418,231 L362.791,221.824 L353.43,221.824 L350.951,231 L347.843,231 L355.946,202.214 L360.238,202.214 Z M362.088,219.234 L358.055,204.138 L357.981,204.138 L354.207,219.234 L362.088,219.234 Z M388.883,202.214 L388.883,204.804 L381.15,204.804 L381.15,231 L378.116,231 L378.116,204.804 L370.383,204.804 L370.383,202.214 L388.883,202.214 Z M398.103,202.214 L398.103,231 L395.069,231 L395.069,202.214 L398.103,202.214 Z M415.796,201.622 C421.79,201.622 426.23,207.135 426.23,216.607 C426.23,226.079 421.79,231.592 415.796,231.592 C409.802,231.592 405.362,226.079 405.362,216.607 C405.362,207.135 409.802,201.622 415.796,201.622 Z M415.796,204.101 C411.8,204.101 408.396,207.875 408.396,216.607 C408.396,225.339 411.8,229.113 415.796,229.113 C419.792,229.113 423.196,225.339 423.196,216.607 C423.196,207.875 419.792,204.101 415.796,204.101 Z M436.523,204.841 L436.523,231 L433.489,231 L433.489,202.214 L438.299,202.214 L449.769,224.895 L449.843,224.895 L449.843,202.214 L452.877,202.214 L452.877,231 L449.843,231 L436.597,204.841 L436.523,204.841 Z" id="ENERGY-FOUNDATION" fill="#606060"></path>
	</g>
</svg>
