<svg xmlns="http://www.w3.org/2000/svg" viewBox="0 0 5631.01 787.41"><defs><style>.cls-1,.cls-2{fill:#fff;}.cls-1{fill-rule:evenodd;}.cls-3{fill:#039;}.cls-4{fill:#fc0;}</style></defs><g id="Ebene_2" data-name="Ebene 2"><g id="EU_flag" data-name="EU flag"><path class="cls-1" d="M394,700.17c113.36,0,212.28-61.68,265.07-153.37l-37.79-21.67c-45.57,78.35-130,131.14-227.28,131.14C249,656.27,131.7,538.46,131.7,394,131.7,249,249,131.14,394,131.14c97.25,0,181.71,52.79,227.28,131.15l37.79-21.68C606.26,148.92,507.34,87.24,394,87.24,225.05,87.24,87.8,224.5,87.8,394,87.8,562.91,225.05,700.17,394,700.17Z"/><rect class="cls-2" x="415.66" y="262.29" width="22.23" height="22.23"/><rect class="cls-2" x="415.66" y="306.18" width="22.23" height="175.04"/><path class="cls-1" d="M481.23,262.29h22.22v43.89H590.7v21.68H503.45V437.33c0,12.22,9.45,22.22,21.68,22.22H590.7v21.68H525.13c-22.79,0-43.9-18.34-43.9-43.9V327.86H448.44V306.18h32.79Z"/><path class="cls-2" d="M369,371.76H222.83c.56-16.12,4.45-27.23,12.23-33.35,5-4.44,11.67-7.22,21.11-8.89,8.89-2.22,22.23-2.78,40-2.78,17.23,0,30.56.56,40,2.78,8.89,1.67,16.12,4.45,21.12,8.89Q369,347.59,369,371.76ZM222.83,394H394q0-29.18-3.33-43.34a64.75,64.75,0,0,0-11.67-25c-7.22-8.33-16.12-14.44-27.78-17.22-11.12-2.78-30-4.45-55.57-4.45-26.12,0-44.46,1.67-56.13,4.45a48.33,48.33,0,0,0-27.23,17.22,52.1,52.1,0,0,0-11.67,25c-2.22,9.45-3.33,23.89-3.89,43.34.56,18.9,1.67,33.34,3.89,42.79a52.1,52.1,0,0,0,11.67,25A48.28,48.28,0,0,0,239.5,479c11.67,3.34,30,4.45,56.13,4.45,25.56,0,44.45-1.11,55.57-4.45,11.66-2.77,20.56-8.89,27.78-17.22a61.67,61.67,0,0,0,10-18.9H362.86a57.48,57.48,0,0,1-5.55,6.67c-5,3.89-12.23,7.23-21.12,8.89-9.45,1.67-22.78,2.23-40,2.23-17.78,0-31.12-.56-40-2.23-9.44-1.66-16.11-5-21.11-8.89-6.67-5.55-10.56-15-11.67-27.78C222.83,412.88,222.83,402.87,222.83,394Z"/><path class="cls-1" d="M394,787.41c217.28,0,394-176.15,394-393.43C788,176.15,611.26,0,394,0,322.3,0,255.06,18.89,197.27,52.79l21.67,37.79c51.68-30,111.14-46.68,175-46.68C587.36,43.9,744.07,200.6,744.07,394c0,192.83-156.71,350.09-350.09,350.09S43.9,586.81,43.9,394H0C0,611.26,176.71,787.41,394,787.41Z"/><path class="cls-2" d="M1075.17,421.49h22.68q-.9,23.82-2.82,32.8-4.23,19.47-26,24-17.68,3.58-62.91,3.58-58.7,0-79.31-4.1-19.6-4-26.4-20.56t-6.79-60.54q0-41.89,5.13-60.86,6.15-22.42,31.64-26.14,24.6-3.72,72.14-3.72,45.36,0,65,4.49a36.94,36.94,0,0,1,16.85,8.52,27.85,27.85,0,0,1,9,14.67q1.94,7.82,2.18,30.62h-21.65c-.08-3-.13-5-.13-6q0-12.56-2.43-17.87t-9.49-8.14q-12.94-5.25-60.47-5.25-34.47,0-51.77,1.85t-22.55,6q-5,4.11-7.37,16.91t-2.37,35.62q0,10.77.9,27.81t1.8,23.45q1.41,10.13,6.47,14.67t15.95,5.57q19.86,2.06,56.76,2.05,11.26,0,29.54-.7t23.25-1.35q9.74-1.27,14.48-3.91A13.76,13.76,0,0,0,1073,447Q1074.65,442.38,1075.17,421.49Z"/><path class="cls-2" d="M1122,306.43h19.22V481.32H1122Z"/><path class="cls-2" d="M1166.62,306.43h19.22v22.8h-19.22Zm0,53.3h19.22V481.32h-19.22Z"/><path class="cls-2" d="M1214.3,359.73h19.35v16q9.11-11,18.32-14.28t31.52-3.27q29.87,0,42.86,4.36a35.9,35.9,0,0,1,20.18,16.78,32.36,32.36,0,0,1,18.2-16.53q12.3-4.6,38.44-4.61,24.86,0,37.21,3.2t20.06,11.53a32.82,32.82,0,0,1,7.69,14.93q1.8,8.26,1.79,29.54v63.93H1450.7V412.9q0-22.42-6.66-29-9-8.83-41-8.84-18.33,0-27.93,2.44t-14.61,8.2q-5,5.89-6.79,15.69t-1.8,32v47.92h-19.22V412.9q0-12.94-1.4-19.09a18.7,18.7,0,0,0-5.26-9.74q-9.35-9-41.26-9-18.45,0-28.38,2.5t-15.31,8.52q-4.61,5.26-6.08,14.35t-1.48,32.93v47.92H1214.3Z"/><path class="cls-2" d="M1511.05,396.24h-20c-.17-2.22-.25-4-.25-5.25q0-19.1,14.35-26t53.81-6.92q31,0,44.59,2.82t21.27,10.76a30.26,30.26,0,0,1,8.33,15.12q1.92,8.72,1.92,30.5v64.06H1616l.38-14.22h-1q-7.18,10-17.23,12.88t-38,2.88q-31.9,0-44.33-1.54t-18.83-6.4a24.59,24.59,0,0,1-8.91-11q-2.49-6.4-2.5-17.94,0-14.1,3.78-21.66T1502.08,413q9.74-4.23,45.49-4.23,37.41,0,48.94,2.24t17.81,10.83H1616V408.8q0-16-5.77-23.06-5.12-6.28-15.57-8.52T1560.51,375q-31.14,0-40.29,3.66t-9.17,15.95Zm49.2,29.6q-23.7,0-33.18.83t-13.46,3.14q-7.56,4.5-7.56,16.53t9,16.15q7.31,3.45,49.2,3.46,30.63,0,40.49-4t9.87-16.14q0-11.79-11-15.89T1560.25,425.84Z"/><path class="cls-2" d="M1671,329.62h19.22v30.11h85.08v16.4h-85.08v52.79q.27,17.29.9,21.14a16.94,16.94,0,0,0,3.72,7.69q3.57,4.49,10.76,6.34t21,1.86q12.94,0,18.84-1.8a16.91,16.91,0,0,0,9.22-6.53,19.83,19.83,0,0,0,2.89-7.95,118.44,118.44,0,0,0,.7-15.63v-7.69h19.09V434q0,14-1.34,21.21A33.64,33.64,0,0,1,1771,468q-5.37,7.94-16,11.4t-29.86,3.46q-19.72,0-30.81-3.2t-16.47-10.51a30.92,30.92,0,0,1-5.38-12.43q-1.41-7-1.41-21.4V376.13h-29.85v-16.4H1671Z"/><path class="cls-2" d="M1926.26,443.78h20.11q-.51,21.78-15.37,30.43t-51.77,8.65q-30.48,0-46.31-2.37t-23.9-8q-18.45-13.07-18.45-51.64,0-27,7.81-40.61a37.23,37.23,0,0,1,21.47-17.49q14-4.55,46.83-4.55,31.39,0,45.35,3.33t22.3,12.81a43.36,43.36,0,0,1,9.48,18.45q2.57,10.52,2.82,32H1811.2q.77,22.68,9,31.13,5.5,5.78,17.62,7.88t39.39,2.12q20.64,0,30.24-1.93t14.35-7Q1925.36,453,1926.26,443.78Zm-.9-35.36q-.12-17.81-9.48-24.86-6.15-4.74-17.24-6.6t-32.48-1.86q-18.71,0-28.51,1.73t-15.31,6.09q-9.09,7.05-10.5,25.5Z"/><path class="cls-2" d="M1960.23,407.9h102.89v22.68H1960.23Z"/><path class="cls-2" d="M2076.19,306.43h23.32v75.21h30.37l113.39-75.21h40.87l-130,85.33,136.84,89.56h-41.25l-119.8-79.18h-30.37v79.18h-23.32Z"/><path class="cls-2" d="M2302.34,306.43h23.32V481.32h-23.32Z"/><path class="cls-2" d="M2529.9,421.49h22.67q-.89,23.82-2.81,32.8-4.23,19.47-26,24-17.68,3.58-62.92,3.58-58.68,0-79.31-4.1-19.61-4-26.39-20.56t-6.79-60.54q0-41.89,5.12-60.86,6.15-22.42,31.65-26.14,24.6-3.72,72.14-3.72,45.35,0,65,4.49a37,37,0,0,1,16.85,8.52,27.91,27.91,0,0,1,9,14.67q1.92,7.82,2.18,30.62h-21.66q-.12-4.48-.12-6,0-12.56-2.44-17.87t-9.48-8.14q-12.95-5.25-60.48-5.25-34.47,0-51.76,1.85t-22.55,6q-5,4.11-7.37,16.91T2372,387.27q0,10.77.9,27.81t1.79,23.45q1.41,10.13,6.48,14.67c3.36,3,8.69,4.89,15.94,5.57q19.88,2.06,56.76,2.05,11.28,0,29.54-.7t23.25-1.35q9.74-1.27,14.48-3.91a13.77,13.77,0,0,0,6.54-7.88Q2529.39,442.38,2529.9,421.49Z"/><path class="cls-2" d="M4304.51,561.73a21.48,21.48,0,0,1-.19,3.09,6.46,6.46,0,0,1-.69,2.21,3.39,3.39,0,0,1-1.13,1.27,2.61,2.61,0,0,1-1.43.4h-60.95a6.92,6.92,0,0,1-4.27-1.53q-2-1.51-2-5.34V448.55q0-3.82,2-5.34a6.92,6.92,0,0,1,4.27-1.53h60.27a2.56,2.56,0,0,1,1.42.4,2.75,2.75,0,0,1,1,1.27,10,10,0,0,1,.63,2.21,18.76,18.76,0,0,1,.25,3.29,17.39,17.39,0,0,1-.25,3.09,9,9,0,0,1-.63,2.16,2.84,2.84,0,0,1-1,1.23,2.63,2.63,0,0,1-1.42.39h-49.66v39.85h42.6a2.51,2.51,0,0,1,1.42.44,3.62,3.62,0,0,1,1.08,1.23,6.32,6.32,0,0,1,.63,2.16,21.76,21.76,0,0,1,.2,3.24,19.09,19.09,0,0,1-.2,3,6.33,6.33,0,0,1-.63,2.07,2.85,2.85,0,0,1-1.08,1.12,3,3,0,0,1-1.42.35h-42.6v45.44h50.34a2.69,2.69,0,0,1,1.43.39,3.67,3.67,0,0,1,1.13,1.23,5.9,5.9,0,0,1,.69,2.16A23.23,23.23,0,0,1,4304.51,561.73Z"/><path class="cls-2" d="M4406.42,566.25a2.49,2.49,0,0,1-.34,1.32,2.75,2.75,0,0,1-1.23.93,8.87,8.87,0,0,1-2.31.59,26.14,26.14,0,0,1-3.48.2,27.83,27.83,0,0,1-3.68-.2,8.13,8.13,0,0,1-2.27-.59,2.47,2.47,0,0,1-1.13-.93,2.8,2.8,0,0,1-.29-1.32V554.56q-7.54,8.36-14.92,12.18a32.06,32.06,0,0,1-14.92,3.83,33.76,33.76,0,0,1-14.87-3,26.07,26.07,0,0,1-9.76-8,32.5,32.5,0,0,1-5.36-11.78,70.9,70.9,0,0,1-1.61-16.34V477.9a2.4,2.4,0,0,1,.34-1.32,2.93,2.93,0,0,1,1.33-1,8.24,8.24,0,0,1,2.55-.6c1.05-.09,2.35-.14,3.92-.14s2.89.05,3.93.14a7.69,7.69,0,0,1,2.5.6,3.31,3.31,0,0,1,1.33,1,2.19,2.19,0,0,1,.39,1.32v51.44a54.83,54.83,0,0,0,1.13,12.41,23.23,23.23,0,0,0,3.44,8,15.85,15.85,0,0,0,5.84,5.1,17.77,17.77,0,0,0,8.24,1.81,20.63,20.63,0,0,0,12.12-4.32,69.16,69.16,0,0,0,12.82-12.65V477.9a2.4,2.4,0,0,1,.34-1.32,2.89,2.89,0,0,1,1.32-1,8.25,8.25,0,0,1,2.51-.6c1-.09,2.33-.14,4-.14s2.88.05,3.92.14a7.17,7.17,0,0,1,2.46.6,4,4,0,0,1,1.32,1,2,2,0,0,1,.45,1.32Z"/><path class="cls-2" d="M4488.59,483.7c0,1.43,0,2.64-.1,3.63a9.41,9.41,0,0,1-.39,2.3,3.51,3.51,0,0,1-.74,1.28,1.69,1.69,0,0,1-1.22.44,5.52,5.52,0,0,1-1.92-.44c-.76-.3-1.61-.59-2.55-.88s-2-.57-3.19-.84a17.81,17.81,0,0,0-3.83-.39,12.32,12.32,0,0,0-4.81,1,18.92,18.92,0,0,0-5,3.24,40.3,40.3,0,0,0-5.45,6c-1.89,2.49-4,5.53-6.27,9.12v58.12a2.2,2.2,0,0,1-.4,1.32,3.06,3.06,0,0,1-1.28.93,8.86,8.86,0,0,1-2.45.59,33.56,33.56,0,0,1-4,.2,32.63,32.63,0,0,1-3.93-.2,9.87,9.87,0,0,1-2.51-.59,2.68,2.68,0,0,1-1.27-.93,2.4,2.4,0,0,1-.34-1.32V477.9a2.8,2.8,0,0,1,.29-1.32,2.61,2.61,0,0,1,1.18-1,6.79,6.79,0,0,1,2.26-.6c.92-.09,2.12-.14,3.63-.14s2.63.05,3.58.14a5.88,5.88,0,0,1,2.21.6,3.09,3.09,0,0,1,1.13,1,2.49,2.49,0,0,1,.34,1.32v12.86a70.46,70.46,0,0,1,6.83-8.64,37.65,37.65,0,0,1,6-5.25,18.82,18.82,0,0,1,5.65-2.65,22,22,0,0,1,5.64-.73,28.28,28.28,0,0,1,2.89.15,25.74,25.74,0,0,1,3.39.53,28.26,28.26,0,0,1,3.19.89,6.42,6.42,0,0,1,2,1,2.66,2.66,0,0,1,.79.93,5.93,5.93,0,0,1,.34,1.13,13,13,0,0,1,.2,2C4488.57,481,4488.59,482.19,4488.59,483.7Z"/><path class="cls-2" d="M4586.78,521.09a66.14,66.14,0,0,1-2.85,19.88,43.58,43.58,0,0,1-8.49,15.65,38.58,38.58,0,0,1-14.13,10.27,49.18,49.18,0,0,1-19.68,3.68,50.91,50.91,0,0,1-19-3.25,34.56,34.56,0,0,1-13.5-9.42,40,40,0,0,1-8.05-15,69.56,69.56,0,0,1-2.65-20,67.06,67.06,0,0,1,2.8-19.87,43.19,43.19,0,0,1,8.44-15.65,37.79,37.79,0,0,1,14.09-10.21,49.59,49.59,0,0,1,19.73-3.63,51.16,51.16,0,0,1,19,3.23,34.72,34.72,0,0,1,13.49,9.43,40.27,40.27,0,0,1,8.1,15A68.15,68.15,0,0,1,4586.78,521.09ZM4570,522.17a66.1,66.1,0,0,0-1.34-13.55,33.32,33.32,0,0,0-4.41-11.18,21.76,21.76,0,0,0-8.32-7.61,31.69,31.69,0,0,0-25.5-.24,22.7,22.7,0,0,0-8.57,7.21,32.14,32.14,0,0,0-5,11,56,56,0,0,0-1.64,13.94,66.5,66.5,0,0,0,1.34,13.64,32.11,32.11,0,0,0,4.46,11.14,22.4,22.4,0,0,0,8.37,7.56,27.6,27.6,0,0,0,13.07,2.8,28,28,0,0,0,12.38-2.55,22.89,22.89,0,0,0,8.62-7.17,31.28,31.28,0,0,0,4.95-11A58.62,58.62,0,0,0,4570,522.17Z"/><path class="cls-2" d="M4692.51,520.7a79.38,79.38,0,0,1-2.5,20.8,45.59,45.59,0,0,1-7.36,15.67,33,33,0,0,1-12,9.91,37.14,37.14,0,0,1-16.4,3.49,32,32,0,0,1-7.27-.79,27.67,27.67,0,0,1-6.52-2.46,37.07,37.07,0,0,1-6.33-4.22q-3.15-2.55-6.67-6v44.17a2.36,2.36,0,0,1-.4,1.38,2.89,2.89,0,0,1-1.28,1,8.86,8.86,0,0,1-2.45.59,33.44,33.44,0,0,1-4,.2,32.63,32.63,0,0,1-3.93-.2,9.87,9.87,0,0,1-2.51-.59,2.55,2.55,0,0,1-1.27-1,2.67,2.67,0,0,1-.34-1.38V477.9a3.06,3.06,0,0,1,.29-1.42,2.38,2.38,0,0,1,1.18-.93A7.7,7.7,0,0,1,4615,475c.92-.09,2-.14,3.33-.14s2.51.05,3.39.14a7.67,7.67,0,0,1,2.21.55,2.25,2.25,0,0,1,1.57,2.35v11.88a96.16,96.16,0,0,1,7.75-7.17,47.51,47.51,0,0,1,7.51-5.05,36.35,36.35,0,0,1,7.76-3.05,33.6,33.6,0,0,1,8.39-1q9.61,0,16.39,3.72a30.81,30.81,0,0,1,11,10.21,45.51,45.51,0,0,1,6.24,15.07A82,82,0,0,1,4692.51,520.7Zm-16.78,1.87a81.14,81.14,0,0,0-1-13.11,37.63,37.63,0,0,0-3.56-11.24,21,21,0,0,0-6.76-7.85,18.07,18.07,0,0,0-10.57-2.95,21.32,21.32,0,0,0-6.22.94,25.54,25.54,0,0,0-6.23,2.94,45.06,45.06,0,0,0-6.61,5.3,81.7,81.7,0,0,0-7.3,8.1v35.14a69.88,69.88,0,0,0,12.73,12.46,21.29,21.29,0,0,0,12.65,4.32,18.48,18.48,0,0,0,10.51-2.94,22.27,22.27,0,0,0,7.11-7.85,39.21,39.21,0,0,0,4-11A59.8,59.8,0,0,0,4675.73,522.57Z"/><path class="cls-2" d="M4792.84,518.25c0,2.55-.64,4.36-1.92,5.45a6.67,6.67,0,0,1-4.39,1.61h-58.18a53.8,53.8,0,0,0,1.49,13.25,25.42,25.42,0,0,0,4.92,10.11,22.23,22.23,0,0,0,9,6.48,35.76,35.76,0,0,0,13.52,2.26,55,55,0,0,0,11.24-1,67.19,67.19,0,0,0,8.54-2.31q3.6-1.27,5.91-2.3a9.55,9.55,0,0,1,3.51-1,2.32,2.32,0,0,1,1.23.34,2.25,2.25,0,0,1,.84,1A7.79,7.79,0,0,1,4789,554a28,28,0,0,1,.14,3,20.33,20.33,0,0,1-.1,2.21,13.63,13.63,0,0,1-.25,1.66,4.06,4.06,0,0,1-.49,1.33,5,5,0,0,1-.87,1.12,14.48,14.48,0,0,1-3.19,1.77,45.86,45.86,0,0,1-6.87,2.41,97.87,97.87,0,0,1-9.78,2.11,71.41,71.41,0,0,1-11.82.94,54.79,54.79,0,0,1-19.1-3.05,35.37,35.37,0,0,1-13.78-9,38.65,38.65,0,0,1-8.45-15,70.24,70.24,0,0,1-2.84-21,66,66,0,0,1,3-20.47,43.26,43.26,0,0,1,8.48-15.41,37.23,37.23,0,0,1,13.4-9.72,44,44,0,0,1,17.57-3.38q10.39,0,17.72,3.34a33.46,33.46,0,0,1,12,9,36.36,36.36,0,0,1,6.91,13.25,58.17,58.17,0,0,1,2.21,16.25Zm-16.29-4.82q.28-12.75-5.68-20t-17.73-7.26a23.46,23.46,0,0,0-10.56,2.25,23,23,0,0,0-7.61,6,27.53,27.53,0,0,0-4.74,8.69,36.56,36.56,0,0,0-1.88,10.35Z"/><path class="cls-2" d="M4884.83,566.34a2.07,2.07,0,0,1-.78,1.77,5.41,5.41,0,0,1-2.16.88,20.11,20.11,0,0,1-4,.3,22.09,22.09,0,0,1-4.08-.3,4.83,4.83,0,0,1-2.21-.88,2.22,2.22,0,0,1-.68-1.77v-8.83a43.88,43.88,0,0,1-12.91,9.62,34.19,34.19,0,0,1-15.06,3.44,41.08,41.08,0,0,1-12.62-1.83,27.15,27.15,0,0,1-9.62-5.25,23.55,23.55,0,0,1-6.19-8.44,28,28,0,0,1-2.2-11.38,26.23,26.23,0,0,1,3.05-13,25.18,25.18,0,0,1,8.72-9.13,43.25,43.25,0,0,1,14-5.45,86.55,86.55,0,0,1,18.55-1.81h12.17v-6.87a34.13,34.13,0,0,0-1.08-9,15.65,15.65,0,0,0-3.48-6.53,15,15,0,0,0-6.24-3.92,28.84,28.84,0,0,0-9.42-1.33,37.82,37.82,0,0,0-10.75,1.42,57.93,57.93,0,0,0-8.34,3.14q-3.59,1.73-6,3.15a8.37,8.37,0,0,1-3.58,1.42,2.46,2.46,0,0,1-1.38-.4,3.32,3.32,0,0,1-1-1.17,6,6,0,0,1-.63-2,20.43,20.43,0,0,1,.14-6.57,5.64,5.64,0,0,1,1.67-2.7,21.51,21.51,0,0,1,4.57-3,50.15,50.15,0,0,1,7.46-3.14,68.82,68.82,0,0,1,9.22-2.35,54.33,54.33,0,0,1,10.11-.93,53.47,53.47,0,0,1,16.2,2.15A26,26,0,0,1,4877,482a24.56,24.56,0,0,1,6,10.35,50.3,50.3,0,0,1,1.86,14.43ZM4868.74,526H4854.9a52.24,52.24,0,0,0-11.58,1.13,23.81,23.81,0,0,0-8.15,3.33,13.75,13.75,0,0,0-4.76,5.3,15.86,15.86,0,0,0-1.52,7.12q0,6.87,4.37,11t12.22,4.07a22.76,22.76,0,0,0,11.83-3.24,50.94,50.94,0,0,0,11.43-9.91Z"/><path class="cls-2" d="M4991.26,566.25a2.2,2.2,0,0,1-.4,1.32,3.06,3.06,0,0,1-1.28.93,9,9,0,0,1-2.45.59,32.63,32.63,0,0,1-3.93.2,33.44,33.44,0,0,1-4-.2,8.86,8.86,0,0,1-2.45-.59,3.06,3.06,0,0,1-1.28-.93,2.13,2.13,0,0,1-.39-1.32V514.51a50.45,50.45,0,0,0-1.18-12.16,25,25,0,0,0-3.44-8,14.89,14.89,0,0,0-5.84-5.1,18.49,18.49,0,0,0-8.29-1.77,20.91,20.91,0,0,0-12.17,4.32,65.65,65.65,0,0,0-12.76,12.66v61.75a2.19,2.19,0,0,1-.39,1.32,3.2,3.2,0,0,1-1.28.93,9,9,0,0,1-2.46.59,33.44,33.44,0,0,1-4,.2,32.75,32.75,0,0,1-3.93-.2,9.68,9.68,0,0,1-2.5-.59,2.58,2.58,0,0,1-1.27-.93,2.4,2.4,0,0,1-.35-1.32V477.9a2.8,2.8,0,0,1,.29-1.32,2.64,2.64,0,0,1,1.19-1,6.73,6.73,0,0,1,2.25-.6c.92-.09,2.13-.14,3.64-.14s2.63.05,3.57.14a5.82,5.82,0,0,1,2.21.6,3,3,0,0,1,1.13,1,2.4,2.4,0,0,1,.34,1.32v11.69q7.47-8.35,14.88-12.23a32,32,0,0,1,15-3.87,33.41,33.41,0,0,1,14.88,3,26.64,26.64,0,0,1,9.76,8,31.7,31.7,0,0,1,5.35,11.73,69.72,69.72,0,0,1,1.63,16.15Z"/><path class="cls-2" d="M5164.82,521.78a58.78,58.78,0,0,1-3.39,20.66,42.36,42.36,0,0,1-9.67,15.37,40.74,40.74,0,0,1-15.31,9.51,60.52,60.52,0,0,1-20.52,3.25,57.26,57.26,0,0,1-19.14-3.05,40.7,40.7,0,0,1-14.82-9,39.47,39.47,0,0,1-9.52-14.87,58.85,58.85,0,0,1-3.33-20.61V444.23a2.42,2.42,0,0,1,.39-1.37,2.63,2.63,0,0,1,1.38-.93,13.87,13.87,0,0,1,2.55-.59,26.8,26.8,0,0,1,4.11-.24,27.51,27.51,0,0,1,4,.24,13.22,13.22,0,0,1,2.6.59,2.61,2.61,0,0,1,1.32.93,2.35,2.35,0,0,1,.4,1.37V521a49.4,49.4,0,0,0,2.16,15.4,29.12,29.12,0,0,0,6.23,11,26,26,0,0,0,9.82,6.57,35.53,35.53,0,0,0,12.91,2.21,37.25,37.25,0,0,0,13.1-2.15,25.08,25.08,0,0,0,9.72-6.48,29.06,29.06,0,0,0,6.08-10.7,47.85,47.85,0,0,0,2.11-14.93V444.23a2.43,2.43,0,0,1,.4-1.37,2.6,2.6,0,0,1,1.37-.93,14.34,14.34,0,0,1,2.6-.59,27.19,27.19,0,0,1,4.07-.24,26.43,26.43,0,0,1,4,.24,13.11,13.11,0,0,1,2.55.59,3,3,0,0,1,1.38.93,2.24,2.24,0,0,1,.44,1.37Z"/><path class="cls-2" d="M5273.31,566.25a2.13,2.13,0,0,1-.4,1.32,3.06,3.06,0,0,1-1.28.93,8.86,8.86,0,0,1-2.45.59,32.63,32.63,0,0,1-3.93.2,33.44,33.44,0,0,1-4-.2,8.86,8.86,0,0,1-2.45-.59,3.06,3.06,0,0,1-1.28-.93,2.13,2.13,0,0,1-.39-1.32V514.51a50.45,50.45,0,0,0-1.18-12.16,25,25,0,0,0-3.44-8,14.86,14.86,0,0,0-5.83-5.1,18.56,18.56,0,0,0-8.3-1.77,20.91,20.91,0,0,0-12.17,4.32,65.65,65.65,0,0,0-12.76,12.66v61.75a2.19,2.19,0,0,1-.39,1.32,3.2,3.2,0,0,1-1.28.93,8.94,8.94,0,0,1-2.46.59,33.44,33.44,0,0,1-4,.2,32.75,32.75,0,0,1-3.93-.2,9.68,9.68,0,0,1-2.5-.59,2.68,2.68,0,0,1-1.27-.93,2.4,2.4,0,0,1-.34-1.32V477.9a2.8,2.8,0,0,1,.28-1.32,2.64,2.64,0,0,1,1.19-1,6.8,6.8,0,0,1,2.25-.6c.92-.09,2.13-.14,3.64-.14s2.63.05,3.57.14a5.82,5.82,0,0,1,2.21.6,3,3,0,0,1,1.13,1,2.4,2.4,0,0,1,.34,1.32v11.69q7.47-8.35,14.88-12.23a32,32,0,0,1,15-3.87c5.88,0,10.85,1,14.87,3a26.64,26.64,0,0,1,9.76,8,31.88,31.88,0,0,1,5.36,11.73,70.32,70.32,0,0,1,1.62,16.15Z"/><path class="cls-2" d="M5321.51,448.06c0,3.8-.72,6.38-2.16,7.76s-4.09,2.06-8,2.06-6.39-.68-7.8-2-2.11-3.87-2.11-7.6.72-6.38,2.16-7.75,4.09-2.07,8-2.07,6.39.68,7.81,2S5321.51,444.33,5321.51,448.06Zm-1.86,118.19a2.19,2.19,0,0,1-.39,1.32,3.2,3.2,0,0,1-1.28.93,9,9,0,0,1-2.46.59,33.44,33.44,0,0,1-4,.2,32.75,32.75,0,0,1-3.93-.2,9.68,9.68,0,0,1-2.5-.59,2.63,2.63,0,0,1-1.27-.93,2.4,2.4,0,0,1-.34-1.32V477.9a2.53,2.53,0,0,1,.34-1.28,2.56,2.56,0,0,1,1.27-1,9.73,9.73,0,0,1,2.5-.58,30.78,30.78,0,0,1,3.93-.2,31.48,31.48,0,0,1,4,.2,9.08,9.08,0,0,1,2.46.58,3.09,3.09,0,0,1,1.28,1,2.32,2.32,0,0,1,.39,1.28Z"/><path class="cls-2" d="M5432.34,521.09a66.14,66.14,0,0,1-2.85,19.88,43.58,43.58,0,0,1-8.49,15.65,38.66,38.66,0,0,1-14.13,10.27,49.21,49.21,0,0,1-19.68,3.68,51,51,0,0,1-19-3.25,34.6,34.6,0,0,1-13.49-9.42,40,40,0,0,1-8.06-15,69.92,69.92,0,0,1-2.64-20,67.39,67.39,0,0,1,2.79-19.87,43.34,43.34,0,0,1,8.44-15.65,37.91,37.91,0,0,1,14.1-10.21,49.54,49.54,0,0,1,19.72-3.63,51.09,51.09,0,0,1,19,3.23,34.76,34.76,0,0,1,13.5,9.43,40.41,40.41,0,0,1,8.1,15A68.15,68.15,0,0,1,5432.34,521.09Zm-16.78,1.08a65.4,65.4,0,0,0-1.35-13.55,33.1,33.1,0,0,0-4.4-11.18,21.83,21.83,0,0,0-8.32-7.61,31.68,31.68,0,0,0-25.5-.24,22.81,22.81,0,0,0-8.58,7.21,32.31,32.31,0,0,0-5,11,55.58,55.58,0,0,0-1.64,13.94,66.5,66.5,0,0,0,1.34,13.64,32.3,32.3,0,0,0,4.45,11.14,22.55,22.55,0,0,0,8.37,7.56,27.64,27.64,0,0,0,13.08,2.8,28,28,0,0,0,12.38-2.55,23,23,0,0,0,8.62-7.17,31.28,31.28,0,0,0,4.95-11A58.62,58.62,0,0,0,5415.56,522.17Z"/><path class="cls-2" d="M5532.87,566.25a2.19,2.19,0,0,1-.39,1.32,3.2,3.2,0,0,1-1.28.93,9,9,0,0,1-2.46.59,32.57,32.57,0,0,1-3.92.2,33.74,33.74,0,0,1-4-.2,9,9,0,0,1-2.45-.59,3.06,3.06,0,0,1-1.28-.93,2.19,2.19,0,0,1-.39-1.32V514.51a50.45,50.45,0,0,0-1.18-12.16,25.24,25.24,0,0,0-3.43-8,15,15,0,0,0-5.84-5.1,18.5,18.5,0,0,0-8.3-1.77,20.91,20.91,0,0,0-12.17,4.32A66.21,66.21,0,0,0,5473,504.5v61.75a2.19,2.19,0,0,1-.39,1.32,3.06,3.06,0,0,1-1.28.93,9,9,0,0,1-2.45.59,33.74,33.74,0,0,1-4,.2,32.57,32.57,0,0,1-3.92-.2,9.77,9.77,0,0,1-2.51-.59,2.68,2.68,0,0,1-1.27-.93,2.4,2.4,0,0,1-.34-1.32V477.9a2.68,2.68,0,0,1,.29-1.32,2.55,2.55,0,0,1,1.18-1,6.8,6.8,0,0,1,2.25-.6c.92-.09,2.13-.14,3.64-.14s2.63.05,3.58.14a5.77,5.77,0,0,1,2.2.6,2.94,2.94,0,0,1,1.13,1,2.4,2.4,0,0,1,.35,1.32v11.69q7.45-8.35,14.87-12.23a32,32,0,0,1,15-3.87q8.83,0,14.87,3a26.64,26.64,0,0,1,9.76,8,31.88,31.88,0,0,1,5.36,11.73,69.77,69.77,0,0,1,1.62,16.15Z"/><path class="cls-2" d="M4318.65,332c0,1.05,0,2-.1,2.75a12.11,12.11,0,0,1-.34,2.06,7.25,7.25,0,0,1-.64,1.57,8.81,8.81,0,0,1-1.38,1.67,27.93,27.93,0,0,1-4.12,3,48.3,48.3,0,0,1-7.81,3.93,64.63,64.63,0,0,1-10.69,3.24,61.89,61.89,0,0,1-13.2,1.32,57.93,57.93,0,0,1-22.34-4.12,45.08,45.08,0,0,1-17-12.17,55.43,55.43,0,0,1-10.8-19.88,99.78,99.78,0,0,1,.29-55.41A61.43,61.43,0,0,1,4242,239a49,49,0,0,1,17.61-13.1,58.59,58.59,0,0,1,33.43-3.49,69.51,69.51,0,0,1,9.62,2.61,44,44,0,0,1,7.85,3.63,25.85,25.85,0,0,1,4.76,3.39,10.9,10.9,0,0,1,1.72,2,6.93,6.93,0,0,1,.64,1.62,16.7,16.7,0,0,1,.39,2.2,26.63,26.63,0,0,1,.15,3.05,24,24,0,0,1-.2,3.33,9.53,9.53,0,0,1-.59,2.32,3.54,3.54,0,0,1-.94,1.37,2.07,2.07,0,0,1-1.33.44c-.92,0-2.2-.64-3.85-1.92a63.72,63.72,0,0,0-6.36-4.21,51.31,51.31,0,0,0-9.48-4.23,41.48,41.48,0,0,0-13.37-1.91,34.74,34.74,0,0,0-15.44,3.39,32.67,32.67,0,0,0-11.9,10,49.35,49.35,0,0,0-7.65,16,88.35,88.35,0,0,0-.09,43,44.33,44.33,0,0,0,7.5,15.51,31.29,31.29,0,0,0,12,9.43,38.92,38.92,0,0,0,16.08,3.19,42.73,42.73,0,0,0,13.28-1.87,52.17,52.17,0,0,0,9.66-4.17c2.67-1.54,4.85-2.93,6.57-4.17s3.06-1.87,4-1.87a2.26,2.26,0,0,1,1.19.3,2.08,2.08,0,0,1,.79,1.12,10.89,10.89,0,0,1,.44,2.31C4318.59,329.28,4318.65,330.52,4318.65,332Z"/><path class="cls-2" d="M4421.72,302.39a66.07,66.07,0,0,1-2.85,19.87,43.63,43.63,0,0,1-8.49,15.66,38.53,38.53,0,0,1-14.13,10.26,49.18,49.18,0,0,1-19.68,3.68,51.08,51.08,0,0,1-19-3.24,34.66,34.66,0,0,1-13.5-9.42,40.1,40.1,0,0,1-8.05-15,69.56,69.56,0,0,1-2.65-20,67.46,67.46,0,0,1,2.79-19.88,43.42,43.42,0,0,1,8.44-15.65,38.13,38.13,0,0,1,14.1-10.21,49.57,49.57,0,0,1,19.72-3.63,51,51,0,0,1,19,3.24,34.69,34.69,0,0,1,13.49,9.43,40.41,40.41,0,0,1,8.1,15A68.1,68.1,0,0,1,4421.72,302.39Zm-16.78,1.08a66.1,66.1,0,0,0-1.34-13.55,33.38,33.38,0,0,0-4.41-11.19,21.81,21.81,0,0,0-8.32-7.6,31.63,31.63,0,0,0-25.5-.25,22.7,22.7,0,0,0-8.57,7.21,32.28,32.28,0,0,0-5,11.05,56,56,0,0,0-1.64,13.93,66.53,66.53,0,0,0,1.34,13.65,32.38,32.38,0,0,0,4.45,11.14,22.64,22.64,0,0,0,8.37,7.56,27.67,27.67,0,0,0,13.08,2.8,28,28,0,0,0,12.38-2.55,23,23,0,0,0,8.62-7.17,31.37,31.37,0,0,0,5-11A58.62,58.62,0,0,0,4404.94,303.47Z"/><path class="cls-2" d="M4485.73,300.43c0,2.55-.3,4.32-.88,5.3a2.82,2.82,0,0,1-2.55,1.47h-41a2.85,2.85,0,0,1-2.64-1.53c-.6-1-.89-2.76-.89-5.24s.29-4.23.89-5.21a2.88,2.88,0,0,1,2.64-1.47h41a3.34,3.34,0,0,1,1.42.29,2.39,2.39,0,0,1,1.07,1.14,7.48,7.48,0,0,1,.7,2.1A18.36,18.36,0,0,1,4485.73,300.43Z"/><path class="cls-2" d="M4554.91,222.88a18.11,18.11,0,0,1-.2,3,11.88,11.88,0,0,1-.44,1.82,1.75,1.75,0,0,1-.63.93,1.82,1.82,0,0,1-1,.25,4.57,4.57,0,0,1-1.71-.44c-.7-.3-1.53-.62-2.51-1a26.5,26.5,0,0,0-3.49-1,21.47,21.47,0,0,0-4.66-.45,14.59,14.59,0,0,0-6.18,1.18,9.5,9.5,0,0,0-4.13,3.68,18,18,0,0,0-2.25,6.48A57.61,57.61,0,0,0,4527,247v9.62h19.73a2.44,2.44,0,0,1,1.33.34,3.07,3.07,0,0,1,1,1.18,7.69,7.69,0,0,1,.68,2.11,16.37,16.37,0,0,1,.25,3.13,10.83,10.83,0,0,1-.89,5.11,2.62,2.62,0,0,1-2.35,1.57H4527v77.45a2.17,2.17,0,0,1-.39,1.32,3,3,0,0,1-1.33.93,9.24,9.24,0,0,1-2.5.6,40.64,40.64,0,0,1-7.85,0,9.43,9.43,0,0,1-2.51-.6,3,3,0,0,1-1.32-.93,2.17,2.17,0,0,1-.39-1.32V270.09h-12.47a2.5,2.5,0,0,1-2.35-1.57,12.07,12.07,0,0,1-.79-5.11,21.16,21.16,0,0,1,.2-3.13,7.5,7.5,0,0,1,.59-2.11,2.51,2.51,0,0,1,1-1.18,2.65,2.65,0,0,1,1.37-.34h12.47v-9.13a64.14,64.14,0,0,1,1.71-15.86,27.52,27.52,0,0,1,5.25-10.84,21.07,21.07,0,0,1,8.89-6.24,35.84,35.84,0,0,1,12.61-2,35,35,0,0,1,6.68.64,27.59,27.59,0,0,1,5,1.37,7.86,7.86,0,0,1,2.36,1.33,4.53,4.53,0,0,1,1,1.52,8,8,0,0,1,.54,2.26A29.05,29.05,0,0,1,4554.91,222.88Z"/><path class="cls-2" d="M4644,347.54a2.46,2.46,0,0,1-.34,1.32,2.68,2.68,0,0,1-1.23.93,8.46,8.46,0,0,1-2.31.6,28.17,28.17,0,0,1-3.48.19,30,30,0,0,1-3.68-.19,7.77,7.77,0,0,1-2.27-.6,2.41,2.41,0,0,1-1.13-.93,2.77,2.77,0,0,1-.29-1.32V335.86q-7.55,8.34-14.92,12.17a32.06,32.06,0,0,1-14.92,3.83q-8.84,0-14.87-2.94a26.18,26.18,0,0,1-9.76-8,32.53,32.53,0,0,1-5.36-11.77,70.94,70.94,0,0,1-1.61-16.35V259.2a2.38,2.38,0,0,1,.34-1.32,2.93,2.93,0,0,1,1.33-1,8.27,8.27,0,0,1,2.55-.59c1.05-.1,2.35-.14,3.92-.14s2.89,0,3.93.14a7.71,7.71,0,0,1,2.5.59,3.32,3.32,0,0,1,1.33,1,2.17,2.17,0,0,1,.39,1.32v51.44a54.73,54.73,0,0,0,1.13,12.4,23.15,23.15,0,0,0,3.44,8,15.85,15.85,0,0,0,5.84,5.1,17.78,17.78,0,0,0,8.24,1.82,20.7,20.7,0,0,0,12.12-4.32,69.25,69.25,0,0,0,12.82-12.66V259.2a2.38,2.38,0,0,1,.34-1.32,2.9,2.9,0,0,1,1.32-1,8.27,8.27,0,0,1,2.51-.59c1-.1,2.33-.14,4-.14s2.88,0,3.92.14a7.2,7.2,0,0,1,2.46.59,4,4,0,0,1,1.32,1,2,2,0,0,1,.45,1.32Z"/><path class="cls-2" d="M4750.36,347.54a2.17,2.17,0,0,1-.39,1.32,3.1,3.1,0,0,1-1.28.93,8.64,8.64,0,0,1-2.46.6,35.09,35.09,0,0,1-3.92.19,36.34,36.34,0,0,1-4-.19,8.56,8.56,0,0,1-2.45-.6,3,3,0,0,1-1.28-.93,2.17,2.17,0,0,1-.39-1.32V295.81a50.6,50.6,0,0,0-1.18-12.17,25.34,25.34,0,0,0-3.43-8,15.12,15.12,0,0,0-5.84-5.1,18.64,18.64,0,0,0-8.3-1.77,20.92,20.92,0,0,0-12.16,4.32,66,66,0,0,0-12.77,12.67v61.74a2.17,2.17,0,0,1-.39,1.32,3,3,0,0,1-1.28.93,8.56,8.56,0,0,1-2.45.6,36.34,36.34,0,0,1-4,.19,35.09,35.09,0,0,1-3.92-.19,9.33,9.33,0,0,1-2.51-.6,2.61,2.61,0,0,1-1.27-.93,2.38,2.38,0,0,1-.34-1.32V259.2a2.77,2.77,0,0,1,.29-1.32,2.62,2.62,0,0,1,1.18-1,6.81,6.81,0,0,1,2.25-.59,46.61,46.61,0,0,1,7.22,0,5.78,5.78,0,0,1,2.2.59,3.07,3.07,0,0,1,1.14,1,2.46,2.46,0,0,1,.34,1.32v11.68q7.47-8.34,14.87-12.22a31.93,31.93,0,0,1,15-3.88q8.84,0,14.87,3a26.74,26.74,0,0,1,9.76,8,31.85,31.85,0,0,1,5.36,11.74,69.74,69.74,0,0,1,1.62,16.14Z"/><path class="cls-2" d="M4856,347.54a2.69,2.69,0,0,1-.34,1.38,2.38,2.38,0,0,1-1.18.93,9.76,9.76,0,0,1-2.21.54,25.89,25.89,0,0,1-3.34.19,27,27,0,0,1-3.43-.19,10.89,10.89,0,0,1-2.26-.54,2.79,2.79,0,0,1-1.28-.93,2.45,2.45,0,0,1-.39-1.38V335.86a59.83,59.83,0,0,1-14.48,11.78,33,33,0,0,1-16.44,4.22q-9.72,0-16.58-3.79a31.15,31.15,0,0,1-11.15-10.2,45.05,45.05,0,0,1-6.23-15.11,82.88,82.88,0,0,1-2-18.31,79.4,79.4,0,0,1,2.45-20.56,45.78,45.78,0,0,1,7.27-15.66,32.31,32.31,0,0,1,11.92-10,37,37,0,0,1,16.44-3.48,29.94,29.94,0,0,1,14.19,3.39,50.57,50.57,0,0,1,12.71,10V216.79a2.85,2.85,0,0,1,.34-1.32,2.24,2.24,0,0,1,1.33-1,14.47,14.47,0,0,1,2.5-.59,24.27,24.27,0,0,1,3.88-.25,25.86,25.86,0,0,1,4,.25,11.72,11.72,0,0,1,2.45.59,2.74,2.74,0,0,1,1.33,1,2.32,2.32,0,0,1,.44,1.32Zm-16.29-62.14A63.84,63.84,0,0,0,4827,273a22.2,22.2,0,0,0-12.81-4.27,18.25,18.25,0,0,0-10.51,2.94,22.77,22.77,0,0,0-7,7.76,37.38,37.38,0,0,0-3.92,10.89,62.38,62.38,0,0,0-1.23,12.37,82.6,82.6,0,0,0,1,13.06,38,38,0,0,0,3.59,11.34,21.75,21.75,0,0,0,6.77,7.95,17.93,17.93,0,0,0,10.6,3,22.17,22.17,0,0,0,6.23-.87,23.63,23.63,0,0,0,6.13-2.95,47,47,0,0,0,6.59-5.35,83.24,83.24,0,0,0,7.26-8.1Z"/><path class="cls-2" d="M4961.7,299.54c0,2.55-.64,4.36-1.92,5.45a6.6,6.6,0,0,1-4.39,1.61h-58.17a54.25,54.25,0,0,0,1.48,13.25,25.6,25.6,0,0,0,4.92,10.12,22.36,22.36,0,0,0,9,6.48,35.9,35.9,0,0,0,13.51,2.26,55,55,0,0,0,11.25-1,65.93,65.93,0,0,0,8.53-2.3c2.4-.85,4.38-1.62,5.92-2.31a9.65,9.65,0,0,1,3.5-1,2.23,2.23,0,0,1,1.23.34,2.27,2.27,0,0,1,.84,1,7.56,7.56,0,0,1,.45,1.91,25.58,25.58,0,0,1,.15,3,20,20,0,0,1-.11,2.21,16.71,16.71,0,0,1-.24,1.67,4.4,4.4,0,0,1-.49,1.33,5.92,5.92,0,0,1-.88,1.12,14.94,14.94,0,0,1-3.19,1.77,47.13,47.13,0,0,1-6.87,2.4,94.33,94.33,0,0,1-9.77,2.11,70.43,70.43,0,0,1-11.82.94,54.75,54.75,0,0,1-19.1-3.05,35.37,35.37,0,0,1-13.79-9,38.71,38.71,0,0,1-8.45-15,70.21,70.21,0,0,1-2.83-21,66.34,66.34,0,0,1,2.94-20.47,43.5,43.5,0,0,1,8.48-15.41,37.2,37.2,0,0,1,13.4-9.71,44,44,0,0,1,17.58-3.39q10.4,0,17.72,3.34a33.56,33.56,0,0,1,12,9,36.22,36.22,0,0,1,6.92,13.25,58.12,58.12,0,0,1,2.2,16.25Zm-16.29-4.81q.29-12.75-5.68-20T4922,267.45a23.39,23.39,0,0,0-10.56,2.25,22.93,22.93,0,0,0-7.6,6,27.5,27.5,0,0,0-4.75,8.7,36.14,36.14,0,0,0-1.87,10.35Z"/><path class="cls-2" d="M5062.62,347.54a2.69,2.69,0,0,1-.34,1.38,2.43,2.43,0,0,1-1.18.93,9.9,9.9,0,0,1-2.21.54,26,26,0,0,1-3.34.19,27.13,27.13,0,0,1-3.44-.19,10.94,10.94,0,0,1-2.25-.54,2.69,2.69,0,0,1-1.28-.93,2.45,2.45,0,0,1-.39-1.38V335.86a59.83,59.83,0,0,1-14.48,11.78,33,33,0,0,1-16.44,4.22q-9.72,0-16.58-3.79a31.06,31.06,0,0,1-11.15-10.2,44.85,44.85,0,0,1-6.23-15.11,82.88,82.88,0,0,1-2-18.31,79.39,79.39,0,0,1,2.46-20.56,46,46,0,0,1,7.26-15.66,32.42,32.42,0,0,1,11.93-10,37,37,0,0,1,16.44-3.48,29.9,29.9,0,0,1,14.18,3.39,50.43,50.43,0,0,1,12.72,10V216.79a2.73,2.73,0,0,1,.34-1.32,2.25,2.25,0,0,1,1.32-1,14.61,14.61,0,0,1,2.51-.59,24.22,24.22,0,0,1,3.87-.25,26.09,26.09,0,0,1,4,.25,11.88,11.88,0,0,1,2.45.59,2.71,2.71,0,0,1,1.32,1,2.26,2.26,0,0,1,.45,1.32Zm-16.29-62.14A63.86,63.86,0,0,0,5033.61,273a22.14,22.14,0,0,0-12.8-4.27,18.23,18.23,0,0,0-10.51,2.94,22.77,22.77,0,0,0-7,7.76,37.39,37.39,0,0,0-3.93,10.89,63.12,63.12,0,0,0-1.22,12.37,82.6,82.6,0,0,0,1,13.06,37.73,37.73,0,0,0,3.59,11.34,21.75,21.75,0,0,0,6.77,7.95,17.91,17.91,0,0,0,10.6,3,22.17,22.17,0,0,0,6.23-.87,23.79,23.79,0,0,0,6.13-2.95,46.36,46.36,0,0,0,6.58-5.35,82,82,0,0,0,7.27-8.1Z"/><path class="cls-2" d="M5220.08,302.19a78.94,78.94,0,0,1-2.49,20.66,46,46,0,0,1-7.37,15.65,32.63,32.63,0,0,1-11.92,9.93,36.8,36.8,0,0,1-16.2,3.43,34.25,34.25,0,0,1-7.81-.84,27.94,27.94,0,0,1-7-2.7,42.11,42.11,0,0,1-6.87-4.71,84.22,84.22,0,0,1-7.27-6.87v10.8a2.45,2.45,0,0,1-.39,1.38,2.64,2.64,0,0,1-1.28.93,10.82,10.82,0,0,1-2.21.54,25.55,25.55,0,0,1-3.38.19,26.11,26.11,0,0,1-3.34-.19,10.78,10.78,0,0,1-2.25-.54,2.17,2.17,0,0,1-1.19-.93,3.15,3.15,0,0,1-.29-1.38V216.4a2.66,2.66,0,0,1,.35-1.37,2.45,2.45,0,0,1,1.27-1,9.28,9.28,0,0,1,2.5-.59,32.75,32.75,0,0,1,3.93-.2,33.44,33.44,0,0,1,4,.2,8.68,8.68,0,0,1,2.46.59,2.93,2.93,0,0,1,1.28,1,2.42,2.42,0,0,1,.39,1.37v52.9a64.39,64.39,0,0,1,7.61-6.76,45.25,45.25,0,0,1,7.21-4.47,32.31,32.31,0,0,1,7.06-2.51,35.26,35.26,0,0,1,7.46-.78q9.63,0,16.44,3.83a31.78,31.78,0,0,1,11.1,10.26,44.84,44.84,0,0,1,6.23,15.06A82.17,82.17,0,0,1,5220.08,302.19Zm-16.78,1.86a83.27,83.27,0,0,0-1-13.15,37.42,37.42,0,0,0-3.61-11.29,21.93,21.93,0,0,0-6.81-7.9,17.94,17.94,0,0,0-10.57-3,22.38,22.38,0,0,0-6.23.88,23.19,23.19,0,0,0-6.22,2.95,46,46,0,0,0-6.56,5.3A76.72,76.72,0,0,0,5155,286v35.24a67,67,0,0,0,12.84,12.42,21.94,21.94,0,0,0,12.73,4.27,18.19,18.19,0,0,0,10.48-2.95,22.41,22.41,0,0,0,7-7.8,37.29,37.29,0,0,0,4-10.89A60.42,60.42,0,0,0,5203.3,304.05Z"/><path class="cls-2" d="M5284.47,350l-11.78,32.49a4.43,4.43,0,0,1-3,2.4,23.71,23.71,0,0,1-7.31.84,28.45,28.45,0,0,1-4.13-.24,5.83,5.83,0,0,1-2.4-.84,2.1,2.1,0,0,1-.94-1.57,5.14,5.14,0,0,1,.49-2.36L5267.58,350a5,5,0,0,1-1.66-1.28,4.67,4.67,0,0,1-1.08-1.86l-31.51-84.42a9.8,9.8,0,0,1-.78-3.23,2.37,2.37,0,0,1,.78-1.87,4.92,4.92,0,0,1,2.55-.93,36.64,36.64,0,0,1,4.71-.24c2,0,3.51,0,4.62.14a9.89,9.89,0,0,1,2.65.54,2.78,2.78,0,0,1,1.42,1.13,14.06,14.06,0,0,1,.93,2l25.23,70.87h.29l24.34-71.26a4.43,4.43,0,0,1,1.43-2.41,6.34,6.34,0,0,1,2.5-.78,36.25,36.25,0,0,1,4.81-.24,34.53,34.53,0,0,1,4.51.24,5.28,5.28,0,0,1,2.61.93,2.28,2.28,0,0,1,.83,1.87,9.49,9.49,0,0,1-.59,2.94Z"/><path class="cls-2" d="M5427.61,341.06a20.68,20.68,0,0,1-.4,4.52A5.05,5.05,0,0,1,5426,348a7.5,7.5,0,0,1-2.36,1.47,18.5,18.5,0,0,1-3.59,1.13c-1.34.29-2.76.54-4.26.74a36.1,36.1,0,0,1-4.52.29,34.28,34.28,0,0,1-11.78-1.81,19.09,19.09,0,0,1-8-5.5,22.57,22.57,0,0,1-4.57-9.32,54.86,54.86,0,0,1-1.43-13.31V270.09h-12.36a2.66,2.66,0,0,1-2.36-1.57,11,11,0,0,1-.88-5.11,16.37,16.37,0,0,1,.25-3.13,9,9,0,0,1,.63-2.11,2.44,2.44,0,0,1,1-1.18,2.92,2.92,0,0,1,1.42-.34h12.26v-21a2.46,2.46,0,0,1,.36-1.28,2.67,2.67,0,0,1,1.27-1,8.14,8.14,0,0,1,2.5-.64,32.75,32.75,0,0,1,3.93-.2,33.68,33.68,0,0,1,4,.2,7.7,7.7,0,0,1,2.46.64,3.21,3.21,0,0,1,1.27,1,2.32,2.32,0,0,1,.39,1.28v21h22.68a2.65,2.65,0,0,1,1.37.34,2.83,2.83,0,0,1,1,1.18,6.57,6.57,0,0,1,.64,2.11,21.16,21.16,0,0,1,.2,3.13,10.83,10.83,0,0,1-.89,5.11,2.64,2.64,0,0,1-2.35,1.57h-22.68v49.27c0,6.1.9,10.69,2.7,13.8s5,4.66,9.68,4.66a17,17,0,0,0,4-.44c1.17-.3,2.22-.6,3.14-.93s1.7-.64,2.35-.93a4.36,4.36,0,0,1,1.77-.45,2,2,0,0,1,.93.24,1.67,1.67,0,0,1,.69.94,11.58,11.58,0,0,1,.44,1.87A18.3,18.3,0,0,1,5427.61,341.06Z"/><path class="cls-2" d="M5525.68,347.54a2.17,2.17,0,0,1-.39,1.32,3,3,0,0,1-1.28.93,8.56,8.56,0,0,1-2.45.6,35.28,35.28,0,0,1-3.93.19,36,36,0,0,1-4-.19,8.55,8.55,0,0,1-2.46-.6,3.1,3.1,0,0,1-1.28-.93,2.17,2.17,0,0,1-.38-1.32V295.81a50.53,50.53,0,0,0-1.19-12.17,25.12,25.12,0,0,0-3.43-8,15,15,0,0,0-5.84-5.1,18.64,18.64,0,0,0-8.3-1.77c-4.06,0-8.11,1.45-12.16,4.32a65.74,65.74,0,0,0-12.76,12.67v61.74a2.11,2.11,0,0,1-.4,1.32,3,3,0,0,1-1.28.93,8.47,8.47,0,0,1-2.45.6,36,36,0,0,1-4,.19,35.15,35.15,0,0,1-3.93-.19,9.43,9.43,0,0,1-2.51-.6,2.61,2.61,0,0,1-1.27-.93,2.46,2.46,0,0,1-.34-1.32V216.4A2.75,2.75,0,0,1,5450,215a2.5,2.5,0,0,1,1.27-1,9.47,9.47,0,0,1,2.51-.59,32.63,32.63,0,0,1,3.93-.2,33.44,33.44,0,0,1,4,.2,8.51,8.51,0,0,1,2.45.59,2.82,2.82,0,0,1,1.28,1,2.35,2.35,0,0,1,.4,1.37v52.9a52.09,52.09,0,0,1,14-10.93,31.08,31.08,0,0,1,14.23-3.59q8.84,0,14.87,3a26.7,26.7,0,0,1,9.77,8,31.83,31.83,0,0,1,5.35,11.74,70.23,70.23,0,0,1,1.62,16.24Z"/><path class="cls-2" d="M5631,299.54c0,2.55-.64,4.36-1.92,5.45a6.62,6.62,0,0,1-4.39,1.61h-58.18a54.25,54.25,0,0,0,1.48,13.25,25.61,25.61,0,0,0,4.93,10.12,22.26,22.26,0,0,0,9,6.48,36,36,0,0,0,13.52,2.26,54.93,54.93,0,0,0,11.24-1,65.67,65.67,0,0,0,8.54-2.3q3.6-1.28,5.91-2.31a9.69,9.69,0,0,1,3.51-1,2.23,2.23,0,0,1,1.23.34,2.34,2.34,0,0,1,.84,1,8,8,0,0,1,.45,1.91,28.25,28.25,0,0,1,.14,3,20.2,20.2,0,0,1-.1,2.21,14.12,14.12,0,0,1-.25,1.67,4.15,4.15,0,0,1-.49,1.33,5.85,5.85,0,0,1-.87,1.12,14.94,14.94,0,0,1-3.19,1.77,47.13,47.13,0,0,1-6.87,2.4,95.14,95.14,0,0,1-9.78,2.11,70.35,70.35,0,0,1-11.82.94,54.79,54.79,0,0,1-19.1-3.05,35.26,35.26,0,0,1-13.78-9,38.58,38.58,0,0,1-8.45-15,70.2,70.2,0,0,1-2.84-21,66,66,0,0,1,2.95-20.47,43.34,43.34,0,0,1,8.48-15.41,37.2,37.2,0,0,1,13.4-9.71,43.87,43.87,0,0,1,17.57-3.39q10.39,0,17.72,3.34a33.6,33.6,0,0,1,12,9,36.2,36.2,0,0,1,6.91,13.25A58.12,58.12,0,0,1,5631,296.6Zm-16.29-4.81q.28-12.75-5.68-20t-17.73-7.25a23.33,23.33,0,0,0-10.56,2.25,23,23,0,0,0-7.61,6,27.47,27.47,0,0,0-4.74,8.7,36.15,36.15,0,0,0-1.88,10.35Z"/><rect class="cls-2" x="3294.16" y="111.16" width="826.68" height="565.08"/><rect class="cls-3" x="3313.52" y="131.04" width="787.97" height="525.33"/><polygon class="cls-4" points="3690.72 245.51 3707.33 233.38 3723.96 245.51 3717.65 225.89 3734.53 213.76 3713.71 213.76 3707.33 193.9 3700.97 213.79 3680.17 213.76 3697.03 225.89 3690.72 245.51"/><polygon class="cls-4" points="3604.67 268.63 3621.29 256.5 3637.92 268.63 3631.6 249.01 3648.48 236.88 3627.65 236.88 3621.28 216.99 3614.91 236.89 3594.11 236.88 3610.97 249.01 3604.67 268.63"/><polygon class="cls-4" points="3558.34 280.1 3551.98 300 3531.15 299.97 3548.03 312.11 3541.7 331.74 3558.34 319.6 3574.95 331.74 3568.64 312.11 3585.51 299.97 3564.7 299.97 3558.34 280.1"/><polygon class="cls-4" points="3535.23 405.54 3551.85 417.67 3545.55 398.05 3562.42 385.92 3541.6 385.92 3535.23 366.04 3528.87 385.96 3508.06 385.92 3524.93 398.05 3518.61 417.67 3535.23 405.54"/><polygon class="cls-4" points="3564.7 472.11 3558.34 452.24 3551.95 472.13 3531.16 472.11 3548.02 484.25 3541.71 503.87 3558.34 491.72 3574.97 503.87 3568.63 484.25 3585.51 472.11 3564.7 472.11"/><polygon class="cls-4" points="3627.79 535.19 3621.42 515.33 3615.04 535.22 3594.24 535.19 3611.1 547.33 3604.8 566.95 3621.42 554.81 3638.05 566.95 3631.72 547.33 3648.61 535.19 3627.79 535.19"/><polygon class="cls-4" points="3713.72 558.05 3707.36 538.17 3700.99 558.08 3680.18 558.05 3697.05 570.18 3690.73 589.82 3707.36 577.67 3723.98 589.82 3717.65 570.18 3734.54 558.05 3713.72 558.05"/><polygon class="cls-4" points="3799.66 535.19 3793.3 515.33 3786.91 535.22 3766.14 535.19 3782.98 547.33 3776.68 566.95 3793.3 554.81 3809.94 566.95 3803.58 547.33 3820.49 535.19 3799.66 535.19"/><polygon class="cls-4" points="3862.76 472.11 3856.39 452.24 3850 472.13 3829.21 472.11 3846.09 484.25 3839.76 503.87 3856.39 491.72 3873.02 503.87 3866.66 484.25 3883.56 472.11 3862.76 472.11"/><polygon class="cls-4" points="3906.42 385.67 3885.6 385.67 3879.21 365.8 3872.86 385.7 3852.04 385.67 3868.93 397.81 3862.61 417.43 3879.21 405.28 3895.85 417.43 3889.53 397.81 3906.42 385.67"/><polygon class="cls-4" points="3839.75 331.47 3856.37 319.34 3873.02 331.47 3866.67 311.85 3883.56 299.73 3862.76 299.73 3856.37 279.86 3850 299.76 3829.21 299.73 3846.09 311.85 3839.75 331.47"/><polygon class="cls-4" points="3793.54 217.01 3787.18 236.91 3766.36 236.87 3783.23 249.02 3776.91 268.65 3793.57 256.5 3810.16 268.65 3803.86 249.02 3820.73 236.87 3799.9 236.87 3793.54 217.01"/></g></g></svg>