<svg width="246.37" height="48" version="1.1" xml:space="preserve" xmlns="http://www.w3.org/2000/svg"><style type="text/css">
	.st0{fill:#231F20;stroke:#231F20;stroke-width:5.236728e-02;stroke-miterlimit:10;}
	.st1{fill:#FDB913;}
	.st2{fill:#FDB913;stroke:#FDB913;stroke-width:0.385;stroke-miterlimit:10;}
	.st3{fill:none;stroke:#99999A;stroke-width:1.1551;stroke-miterlimit:10;}
	.st4{fill:#81C67C;}
</style><g transform="matrix(.82759 0 0 .82759 -.49655 -1.0759)"><path class="st0" d="m74.6 7.7c-0.1-0.5-0.3-0.8-0.5-0.9-0.1-0.1-0.4-0.1-0.5-0.1s-0.2 0-0.2-0.1 0.1-0.1 0.3-0.1h1.4 1.4c0.2 0 0.3 0 0.3 0.1s-0.1 0.1-0.2 0.1h-0.3c-0.1 0-0.1 0.1-0.1 0.3s0.1 0.6 0.3 1.1c0.2 0.8 1.4 4.5 1.6 5.2l2.3-6.3c0.1-0.3 0.2-0.4 0.3-0.4s0.2 0.2 0.4 0.6l2.6 6.2c0.2-0.8 1.2-4.1 1.6-5.5 0.1-0.3 0.1-0.5 0.1-0.7s-0.1-0.4-0.6-0.4c-0.1 0-0.2 0-0.2-0.1s0.1-0.1 0.3-0.1h1.3 1c0.1 0 0.2 0 0.2 0.1s-0.1 0.1-0.2 0.1-0.3 0-0.4 0.1c-0.3 0.1-0.4 0.6-0.7 1.3-0.6 1.6-1.9 5.5-2.5 7.3-0.1 0.4-0.2 0.6-0.4 0.6-0.1 0-0.2-0.1-0.4-0.6l-2.6-6.2c-0.2 0.6-1.9 5-2.4 6.1-0.2 0.5-0.3 0.7-0.4 0.7s-0.2-0.1-0.3-0.5z"/><path class="st0" d="m89.3 11.2c0-2.1 1.4-4.8 5.1-4.8 3.1 0 5 1.8 5 4.6s-2 5-5.1 5c-3.5 0-5-2.6-5-4.8zm8.4 0.2c0-2.8-1.6-4.5-3.6-4.5-1.4 0-3 0.8-3 3.9 0 2.6 1.4 4.6 3.8 4.6 0.8 0 2.8-0.4 2.8-4z"/><path class="st0" d="m103.7 10.1v-2.6c0-0.4-0.1-0.6-0.5-0.7h-0.5c-0.1 0-0.2 0-0.2-0.1s0.1-0.1 0.3-0.1h1.7 1.7c0.8 0 1.6 0.1 2.3 0.5 0.3 0.2 0.8 0.9 0.8 1.7 0 0.9-0.4 1.7-1.6 2.8 1.1 1.4 1.9 2.5 2.7 3.2 0.7 0.7 1.2 0.8 1.4 0.8h0.3c0.1 0 0.1 0 0.1 0.1s-0.1 0.1-0.2 0.1h-1.2c-0.7 0-1-0.1-1.3-0.2-0.5-0.3-1-0.9-1.7-1.8-0.5-0.7-1.1-1.5-1.2-1.7-0.1-0.1-0.1-0.1-0.2-0.1h-1.1c-0.1 0-0.1 0-0.1 0.1v0.2c0 1.1 0 2.1 0.1 2.6 0 0.4 0.1 0.6 0.5 0.7h0.6c0.1 0 0.1 0 0.1 0.1s-0.1 0.1-0.2 0.1h-1.8-1.5c-0.2 0-0.2 0-0.2-0.1s0-0.1 0.2-0.1h0.4c0.2 0 0.3-0.3 0.4-0.7 0.1-0.5 0.1-1.5 0.1-2.6v-2.2zm1.4 1c0 0.1 0 0.2 0.1 0.2 0.3 0.1 0.6 0.1 0.9 0.1 0.5 0 0.7 0 0.9-0.2 0.4-0.3 0.7-0.8 0.7-1.8 0-1.7-1.2-2.3-1.9-2.3h-0.7c-0.1 0-0.1 0.1-0.1 0.2v3.8z"/><path class="st0" d="m117.3 12.3c0 1.6 0 2.4 0.3 2.6 0.2 0.2 0.5 0.3 1.5 0.3 0.7 0 1.1 0 1.4-0.3 0.1-0.2 0.3-0.5 0.3-0.7 0-0.1 0-0.2 0.1-0.2s0.1 0.1 0.1 0.2-0.1 1.1-0.2 1.4-0.1 0.3-0.8 0.3h-2.1-1.5-0.7-0.8c-0.2 0-0.2 0-0.2-0.1s0-0.1 0.2-0.1h0.4c0.2 0 0.3-0.3 0.4-0.7 0.1-0.5 0.1-1.5 0.1-2.6v-2.2-2.6c0-0.4-0.1-0.6-0.5-0.7h-0.4c-0.1 0-0.2 0-0.2-0.1s0.1-0.1 0.3-0.1h1.7 1.7c0.2 0 0.3 0 0.3 0.1s-0.1 0.1-0.2 0.1h-0.5c-0.3 0.1-0.4 0.3-0.5 0.7v2.6 2.1z"/><path class="st0" d="m125.3 10.1v-2.6c0-0.4-0.1-0.6-0.5-0.7h-0.5c-0.1 0-0.2 0-0.2-0.1s0.1-0.1 0.3-0.1h1.8 1.9c1.5 0 3.6 0 4.9 1.4 0.6 0.6 1.2 1.7 1.2 3.1 0 1.6-0.7 2.7-1.3 3.4-0.6 0.6-1.8 1.5-4.1 1.5-0.4 0-0.9 0-1.4-0.1-0.5 0-0.9-0.1-1.2-0.1h-0.7-0.8c-0.2 0-0.2 0-0.2-0.1s0-0.1 0.2-0.1h0.4c0.2 0 0.3-0.3 0.4-0.7 0.1-0.5 0.1-1.5 0.1-2.6v-2.2zm1.5 1.4v2.5c0 0.3 0 0.8 0.1 0.9 0.2 0.2 0.6 0.5 1.6 0.5 1.3 0 2.1-0.2 2.8-0.9 0.8-0.7 1-1.8 1-3.1 0-1.6-0.7-2.6-1.2-3.1-1.1-1.1-2.5-1.2-3.5-1.2-0.2 0-0.7 0-0.8 0.1-0.1 0-0.1 0.1-0.1 0.2v2.5 1.6z"/><path class="st0" d="m75.7 30.1v-2.6c0-0.4-0.1-0.6-0.5-0.7h-0.5c-0.1 0-0.2 0-0.2-0.1s0.1-0.1 0.3-0.1h1.7 1.7c0.8 0 1.6 0.1 2.3 0.5 0.3 0.2 0.8 0.9 0.8 1.7 0 0.9-0.4 1.7-1.6 2.8 1.1 1.4 1.9 2.5 2.7 3.2 0.7 0.7 1.2 0.8 1.4 0.8h0.3c0.1 0 0.1 0 0.1 0.1s-0.1 0.1-0.2 0.1h-1.2c-0.7 0-1-0.1-1.3-0.2-0.5-0.3-1-0.9-1.7-1.8-0.5-0.7-1.1-1.5-1.2-1.7-0.1-0.1-0.1-0.1-0.2-0.1h-1.1c-0.1 0-0.1 0-0.1 0.1v0.2c0 1.1 0 2.1 0.1 2.6 0 0.4 0.1 0.6 0.5 0.7h0.6c0.1 0 0.1 0 0.1 0.1s-0.1 0.1-0.2 0.1h-1.8-1.5c-0.2 0-0.2 0-0.2-0.1s0-0.1 0.2-0.1h0.4c0.2 0 0.3-0.3 0.4-0.7 0.1-0.5 0.1-1.5 0.1-2.6v-2.2zm1.5 1c0 0.1 0 0.2 0.1 0.2 0.3 0.1 0.6 0.1 0.9 0.1 0.5 0 0.7 0 0.9-0.2 0.4-0.3 0.7-0.8 0.7-1.8 0-1.7-1.2-2.3-1.9-2.3h-0.7c-0.1 0-0.1 0.1-0.1 0.2v3.8z"/><path class="st0" d="m87.8 30.1v-2.6c0-0.4-0.1-0.6-0.5-0.7h-0.5c-0.1 0-0.2 0-0.2-0.1s0.1-0.1 0.3-0.1h1 0.8 3.1c0.2 0 0.4 0 0.5-0.1h0.2c0.1 0 0.1 0 0.1 0.1s-0.1 0.2-0.1 0.8c0 0.1 0 0.7-0.1 0.8 0 0.1 0 0.1-0.1 0.1s-0.1-0.1-0.1-0.2 0-0.3-0.1-0.4c-0.1-0.2-0.2-0.4-0.8-0.4h-1.7c-0.1 0-0.1 0-0.1 0.1v3.1c0 0.1 0 0.1 0.1 0.1h2c0.3 0 0.5-0.1 0.6-0.2s0.1-0.2 0.2-0.2c0 0 0.1 0 0.1 0.1s0 0.3-0.1 0.9v0.8c0 0.1 0 0.2-0.1 0.2s-0.1 0-0.1-0.1v-0.4c-0.1-0.2-0.2-0.4-0.7-0.5h-1.7c-0.1 0-0.1 0-0.1 0.1v1 1.9c0 0.8 0.2 1 1.5 1 0.3 0 0.8 0 1.2-0.1 0.3-0.1 0.5-0.4 0.6-0.9 0-0.1 0-0.2 0.1-0.2s0.1 0.1 0.1 0.2c0 0.3-0.1 1.1-0.2 1.4s-0.2 0.3-0.7 0.3h-2.1-1.3-0.7-0.9c-0.2 0-0.2 0-0.2-0.1s0-0.1 0.2-0.1h0.4c0.2 0 0.3-0.3 0.4-0.7 0.1-0.5 0.1-1.5 0.1-2.6v-2.3z"/><path class="st0" d="m96.6 35.7c-0.2-0.1-0.2-0.1-0.2-0.4 0-0.7 0-1.4 0.1-1.6 0-0.2 0-0.3 0.1-0.3s0.1 0.1 0.1 0.2c0 0.2 0 0.4 0.1 0.6 0.3 0.9 1 1.2 1.8 1.2 1.1 0 1.7-0.8 1.7-1.4s-0.2-1.2-1.2-2l-0.6-0.4c-1.4-1.1-1.8-1.9-1.8-2.9 0-1.4 1.1-2.3 2.8-2.3 0.8 0 1.3 0.1 1.6 0.2 0.1 0 0.2 0.1 0.2 0.1v1.5c0 0.3 0 0.4-0.1 0.4s-0.1-0.1-0.1-0.2-0.1-0.5-0.3-0.8c-0.2-0.2-0.5-0.6-1.3-0.6-0.9 0-1.5 0.5-1.5 1.3 0 0.6 0.3 1 1.3 1.8l0.3 0.3c1.5 1.1 2 2 2 3.1 0 0.7-0.3 1.6-1.2 2.1-0.6 0.4-1.3 0.5-2 0.5-0.7-0.1-1.3-0.1-1.8-0.4z"/><path class="st0" d="m104.8 31.2c0-2.1 1.4-4.8 5.1-4.8 3.1 0 5 1.8 5 4.6s-2 5-5.1 5c-3.5 0-5-2.6-5-4.8zm8.4 0.2c0-2.8-1.6-4.5-3.6-4.5-1.4 0-3 0.8-3 3.9 0 2.6 1.4 4.6 3.8 4.6 0.8 0 2.8-0.4 2.8-4z"/><path class="st0" d="m118.7 30.1v-2.6c0-0.4-0.1-0.6-0.5-0.7h-0.5c-0.1 0-0.2 0-0.2-0.1s0.1-0.1 0.3-0.1h1.8 1.5c0.2 0 0.3 0 0.3 0.1s-0.1 0.1-0.2 0.1h-0.4c-0.3 0.1-0.4 0.3-0.5 0.7v2.6 1.7c0 1.8 0.4 2.5 1 3s1.1 0.5 1.5 0.5c0.5 0 1.2-0.2 1.7-0.7 0.7-0.7 0.7-1.8 0.7-3.1v-1.5-2.6c0-0.4-0.1-0.6-0.5-0.7h-0.4c-0.1 0-0.2 0-0.2-0.1s0.1-0.1 0.3-0.1h1.4 1.4c0.2 0 0.3 0 0.3 0.1s-0.1 0.1-0.2 0.1h-0.4c-0.3 0.1-0.4 0.3-0.5 0.7v2.6 1.3c0 1.4-0.1 2.8-1.2 3.7-0.9 0.8-1.8 0.9-2.6 0.9-0.7 0-1.8 0-2.7-0.8-0.6-0.6-1.1-1.5-1.1-3.3v-1.7z"/><path class="st0" d="m131.8 30.1v-2.6c0-0.4-0.1-0.6-0.5-0.7h-0.5c-0.1 0-0.2 0-0.2-0.1s0.1-0.1 0.3-0.1h1.7 1.7c0.8 0 1.6 0.1 2.3 0.5 0.3 0.2 0.8 0.9 0.8 1.7 0 0.9-0.4 1.7-1.6 2.8 1.1 1.4 1.9 2.5 2.7 3.2 0.7 0.7 1.2 0.8 1.4 0.8h0.3c0.1 0 0.1 0 0.1 0.1s-0.1 0.1-0.2 0.1h-1.2c-0.7 0-1-0.1-1.3-0.2-0.5-0.3-1-0.9-1.7-1.8-0.5-0.7-1.1-1.5-1.2-1.7-0.1-0.1-0.1-0.1-0.2-0.1h-1.1c-0.1 0-0.1 0-0.1 0.1v0.2c0 1.1 0 2.1 0.1 2.6 0 0.4 0.1 0.6 0.5 0.7h0.6c0.1 0 0.1 0 0.1 0.1s-0.1 0.1-0.2 0.1h-1.8-1.5c-0.2 0-0.2 0-0.2-0.1s0-0.1 0.2-0.1h0.4c0.2 0 0.3-0.3 0.4-0.7 0.1-0.5 0.1-1.5 0.1-2.6v-2.2zm1.5 1c0 0.1 0 0.2 0.1 0.2 0.3 0.1 0.6 0.1 0.9 0.1 0.5 0 0.7 0 0.9-0.2 0.4-0.3 0.7-0.8 0.7-1.8 0-1.7-1.2-2.3-1.9-2.3h-0.7c-0.1 0-0.1 0.1-0.1 0.2v3.8z"/><path class="st0" d="m143.1 34.7c-1.2-1.1-1.5-2.4-1.5-3.6 0-0.8 0.3-2.3 1.4-3.4 0.9-0.8 2.1-1.3 3.9-1.3 0.8 0 1.2 0 1.8 0.1 0.5 0.1 0.9 0.2 1.2 0.2 0.1 0 0.2 0.1 0.2 0.1 0 0.1 0 0.2-0.1 0.7v1.3c0 0.2 0 0.3-0.1 0.3s-0.1-0.1-0.1-0.3c0-0.4-0.2-0.8-0.5-1.1-0.4-0.4-1.4-0.8-2.5-0.8s-1.8 0.3-2.3 0.8c-0.9 0.8-1.1 2-1.1 3.2 0 2.9 2.2 4.4 3.9 4.4 1.1 0 1.8-0.1 2.3-0.7 0.2-0.2 0.4-0.6 0.4-0.8s0.1-0.2 0.2-0.2 0.1 0.1 0.1 0.2-0.1 1.2-0.3 1.6c-0.1 0.2-0.1 0.3-0.3 0.4-0.5 0.2-1.4 0.3-2.2 0.3-1.8-0.1-3.3-0.4-4.4-1.4z"/><path class="st0" d="m154.7 30.1v-2.6c0-0.4-0.1-0.6-0.5-0.7h-0.5c-0.1 0-0.2 0-0.2-0.1s0.1-0.1 0.3-0.1h1 0.8 3.1c0.2 0 0.4 0 0.5-0.1h0.2c0.1 0 0.1 0 0.1 0.1s-0.1 0.2-0.1 0.8c0 0.1 0 0.7-0.1 0.8 0 0.1 0 0.1-0.1 0.1s-0.1-0.1-0.1-0.2 0-0.3-0.1-0.4c-0.1-0.2-0.2-0.4-0.8-0.4h-1.7c-0.1 0-0.1 0-0.1 0.1v3.1c0 0.1 0 0.1 0.1 0.1h2c0.3 0 0.5-0.1 0.6-0.2s0.1-0.2 0.2-0.2c0 0 0.1 0 0.1 0.1s0 0.3-0.1 0.9v0.8c0 0.1 0 0.2-0.1 0.2s-0.1 0-0.1-0.1v-0.4c-0.1-0.2-0.2-0.4-0.7-0.5h-1.7c-0.1 0-0.1 0-0.1 0.1v1 1.9c0 0.8 0.2 1 1.5 1 0.3 0 0.8 0 1.2-0.1 0.3-0.1 0.5-0.4 0.6-0.9 0-0.1 0-0.2 0.1-0.2s0.1 0.1 0.1 0.2c0 0.3-0.1 1.1-0.2 1.4s-0.2 0.3-0.7 0.3h-2.1-1.3-0.7-0.8c-0.2 0-0.2 0-0.2-0.1s0-0.1 0.2-0.1h0.4c0.2 0 0.3-0.3 0.4-0.7 0.1-0.5 0.1-1.5 0.1-2.6v-2.3z"/><path class="st0" d="m163.5 35.7c-0.2-0.1-0.2-0.1-0.2-0.4 0-0.7 0-1.4 0.1-1.6 0-0.2 0-0.3 0.1-0.3s0.1 0.1 0.1 0.2c0 0.2 0 0.4 0.1 0.6 0.3 0.9 1 1.2 1.8 1.2 1.1 0 1.7-0.8 1.7-1.4s-0.2-1.2-1.2-2l-0.6-0.4c-1.4-1.1-1.8-1.9-1.8-2.9 0-1.4 1.1-2.3 2.8-2.3 0.8 0 1.3 0.1 1.6 0.2 0.1 0 0.2 0.1 0.2 0.1v1.5c0 0.3 0 0.4-0.1 0.4s-0.1-0.1-0.1-0.2-0.1-0.5-0.3-0.8c-0.2-0.2-0.5-0.6-1.3-0.6-0.9 0-1.5 0.5-1.5 1.3 0 0.6 0.3 1 1.3 1.8l0.3 0.3c1.5 1.1 2 2 2 3.1 0 0.7-0.3 1.6-1.2 2.1-0.6 0.4-1.3 0.5-2 0.5-0.7-0.1-1.3-0.1-1.8-0.4z"/><path class="st0" d="m75.7 50.2v-2.6c0-0.4-0.1-0.6-0.4-0.7h-0.4c-0.1 0-0.2 0-0.2-0.1s0.1-0.1 0.3-0.1h1.6 1.5c0.2 0 0.3 0 0.3 0.1s-0.1 0.1-0.2 0.1h-0.4c-0.3 0.1-0.4 0.3-0.5 0.7v2.6 2.2 2.7c0 0.3 0.1 0.6 0.5 0.6h0.6c0.1 0 0.2 0 0.2 0.1s-0.1 0.1-0.2 0.1h-1.9-1.6c-0.2 0-0.2 0-0.2-0.1s0-0.1 0.2-0.1h0.4c0.2 0 0.3-0.3 0.4-0.6 0.1-0.5 0.1-1.5 0.1-2.7v-2.2z"/><path class="st0" d="m84 54.2c0 1 0.2 1.3 0.4 1.4s0.4 0.1 0.6 0.1c0.1 0 0.2 0 0.2 0.1s-0.1 0.1-0.3 0.1h-1.5-1.3c-0.2 0-0.3 0-0.3-0.1s0.1-0.1 0.2-0.1c0.2 0 0.4 0 0.6-0.1 0.3-0.1 0.4-0.5 0.4-1.5l0.1-7.3c0-0.2 0-0.4 0.2-0.4 0.1 0 0.2 0.2 0.5 0.4 0.1 0.2 2 2.2 3.8 4 0.8 0.8 2.5 2.6 2.7 2.8h0.1l-0.2-5.6c0-0.8-0.1-1-0.4-1.1-0.2-0.1-0.5-0.1-0.7-0.1-0.1 0-0.2 0-0.2-0.1s0.1-0.1 0.3-0.1h1.5 1.2c0.2 0 0.3 0 0.3 0.1s-0.1 0.1-0.2 0.1h-0.4c-0.3 0.1-0.4 0.4-0.5 1l-0.1 7.9c0 0.3 0 0.4-0.2 0.4-0.1 0-0.3-0.1-0.4-0.3-0.8-0.7-2.4-2.4-3.6-3.6-1.3-1.3-2.7-2.9-2.9-3.1z"/><path class="st0" d="m95.7 55.7c-0.2-0.1-0.2-0.1-0.2-0.4 0-0.7 0-1.4 0.1-1.6 0-0.2 0-0.3 0.1-0.3s0.1 0.1 0.1 0.2c0 0.2 0 0.4 0.1 0.6 0.3 0.9 1 1.2 1.8 1.2 1.1 0 1.7-0.8 1.7-1.4s-0.2-1.2-1.2-2l-0.6-0.4c-1.4-1.1-1.8-1.9-1.8-2.9 0-1.4 1.1-2.3 2.8-2.3 0.8 0 1.3 0.1 1.6 0.2 0.1 0 0.2 0.1 0.2 0.1v1.5c0 0.3 0 0.4-0.1 0.4s-0.1-0.1-0.1-0.2-0.1-0.5-0.3-0.8c-0.2-0.2-0.5-0.6-1.3-0.6-0.9 0-1.5 0.5-1.5 1.3 0 0.6 0.3 1 1.3 1.8l0.3 0.3c1.5 1.1 2 2 2 3.1 0 0.7-0.3 1.6-1.2 2.1-0.6 0.4-1.3 0.5-2 0.5s-1.3-0.1-1.8-0.4z"/><path class="st0" d="m107.1 47.3h-1.8c-0.7 0-1 0.1-1.2 0.4-0.1 0.2-0.2 0.3-0.2 0.4s-0.1 0.1-0.1 0.1c-0.1 0-0.1-0.1-0.1-0.2 0-0.2 0.2-1.3 0.3-1.4 0-0.2 0.1-0.2 0.1-0.2 0.1 0 0.2 0.1 0.5 0.1 0.4 0 0.8 0.1 1.2 0.1h4.9c0.4 0 0.7 0 0.8-0.1 0.2 0 0.3-0.1 0.3-0.1 0.1 0 0.1 0.1 0.1 0.3v1.4c0 0.1 0 0.2-0.1 0.2s-0.1-0.1-0.1-0.2v-0.1c0-0.3-0.4-0.7-1.5-0.7h-1.6v5c0 1.1 0 2.1 0.1 2.6 0 0.3 0.1 0.6 0.5 0.7h0.6c0.1 0 0.2 0 0.2 0.1s-0.1 0.1-0.2 0.1h-1.9-1.6c-0.2 0-0.2 0-0.2-0.1s0-0.1 0.2-0.1h0.4c0.2 0 0.3-0.3 0.4-0.7 0.1-0.5 0.1-1.5 0.1-2.6v-5z"/><path class="st0" d="m116.3 50.2v-2.6c0-0.4-0.1-0.6-0.4-0.7h-0.4c-0.1 0-0.2 0-0.2-0.1s0.1-0.1 0.3-0.1h1.6 1.5c0.2 0 0.3 0 0.3 0.1s-0.1 0.1-0.2 0.1h-0.4c-0.3 0.1-0.4 0.3-0.5 0.7v2.6 2.2 2.7c0 0.3 0.1 0.6 0.5 0.6h0.6c0.1 0 0.2 0 0.2 0.1s-0.1 0.1-0.2 0.1h-1.9-1.6c-0.2 0-0.2 0-0.2-0.1s0-0.1 0.2-0.1h0.4c0.2 0 0.3-0.3 0.4-0.6 0.1-0.5 0.1-1.5 0.1-2.7v-2.2z"/><path class="st0" d="m125.5 47.3h-1.8c-0.7 0-1 0.1-1.2 0.4-0.1 0.2-0.2 0.3-0.2 0.4s-0.1 0.1-0.1 0.1c-0.1 0-0.1-0.1-0.1-0.2 0-0.2 0.2-1.3 0.3-1.4 0-0.2 0.1-0.2 0.1-0.2 0.1 0 0.2 0.1 0.5 0.1 0.4 0 0.8 0.1 1.2 0.1h4.9c0.4 0 0.7 0 0.8-0.1 0.2 0 0.3-0.1 0.3-0.1 0.1 0 0.1 0.1 0.1 0.3v1.4c0 0.1 0 0.2-0.1 0.2s-0.1-0.1-0.1-0.2v-0.1c0-0.3-0.4-0.7-1.5-0.7h-1.6v5c0 1.1 0 2.1 0.1 2.6 0 0.3 0.1 0.6 0.5 0.7h0.6c0.1 0 0.2 0 0.2 0.1s-0.1 0.1-0.2 0.1h-1.9-1.6c-0.2 0-0.2 0-0.2-0.1s0-0.1 0.2-0.1h0.4c0.2 0 0.3-0.3 0.4-0.7 0.1-0.5 0.1-1.5 0.1-2.6v-5z"/><path class="st0" d="m134.4 50.2v-2.6c0-0.4-0.1-0.6-0.5-0.7h-0.5c-0.1 0-0.2 0-0.2-0.1s0.1-0.1 0.3-0.1h1.8 1.5c0.2 0 0.3 0 0.3 0.1s-0.1 0.1-0.2 0.1h-0.4c-0.3 0.1-0.4 0.3-0.5 0.7v2.6 1.7c0 1.8 0.4 2.5 1 3s1.1 0.5 1.5 0.5c0.5 0 1.2-0.2 1.7-0.7 0.7-0.7 0.7-1.8 0.7-3.1v-1.5-2.6c0-0.4-0.1-0.6-0.5-0.7h-0.4c-0.1 0-0.2 0-0.2-0.1s0.1-0.1 0.3-0.1h1.4 1.4c0.2 0 0.3 0 0.3 0.1s-0.1 0.1-0.2 0.1h-0.4c-0.3 0.1-0.4 0.3-0.5 0.7v2.6 1.3c0 1.4-0.1 2.8-1.2 3.7-0.9 0.8-1.8 0.9-2.6 0.9-0.7 0-1.8 0-2.7-0.8-0.6-0.6-1.1-1.5-1.1-3.3v-1.7z"/><path class="st0" d="m149.4 47.3h-1.8c-0.7 0-1 0.1-1.2 0.4-0.1 0.2-0.2 0.3-0.2 0.4s-0.1 0.1-0.1 0.1c-0.1 0-0.1-0.1-0.1-0.2 0-0.2 0.2-1.3 0.3-1.4 0-0.2 0.1-0.2 0.1-0.2 0.1 0 0.2 0.1 0.5 0.1 0.4 0 0.8 0.1 1.2 0.1h4.9c0.4 0 0.7 0 0.8-0.1 0.2 0 0.3-0.1 0.3-0.1 0.1 0 0.1 0.1 0.1 0.3v1.4c0 0.1 0 0.2-0.1 0.2s-0.1-0.1-0.1-0.2v-0.1c0-0.3-0.4-0.7-1.5-0.7h-1.6v5c0 1.1 0 2.1 0.1 2.6 0 0.3 0.1 0.6 0.5 0.7h0.6c0.1 0 0.2 0 0.2 0.1s-0.1 0.1-0.2 0.1h-1.9-1.6c-0.2 0-0.2 0-0.2-0.1s0-0.1 0.2-0.1h0.4c0.2 0 0.3-0.3 0.4-0.7 0.1-0.5 0.1-1.5 0.1-2.6v-5z"/><path class="st0" d="m158.6 50.2v-2.6c0-0.4-0.1-0.6-0.5-0.7h-0.5c-0.1 0-0.2 0-0.2-0.1s0.1-0.1 0.3-0.1h1 0.8 3.1c0.2 0 0.4 0 0.5-0.1h0.2c0.1 0 0.1 0 0.1 0.1s-0.1 0.2-0.1 0.8c0 0.1 0 0.7-0.1 0.8 0 0.1 0 0.1-0.1 0.1s-0.1-0.1-0.1-0.2 0-0.3-0.1-0.4c-0.1-0.2-0.2-0.4-0.8-0.4h-1.7c-0.1 0-0.1 0-0.1 0.1v3.1c0 0.1 0 0.1 0.1 0.1h2c0.3 0 0.5-0.1 0.6-0.2s0.1-0.2 0.2-0.2c0 0 0.1 0 0.1 0.1s0 0.3-0.1 0.9v0.8c0 0.1 0 0.2-0.1 0.2s-0.1 0-0.1-0.1v-0.4c-0.1-0.2-0.2-0.4-0.7-0.5h-1.7c-0.1 0-0.1 0-0.1 0.1v1 1.9c0 0.8 0.2 1 1.5 1 0.3 0 0.8 0 1.2-0.1 0.3-0.1 0.5-0.4 0.6-0.9 0-0.1 0-0.2 0.1-0.2s0.1 0.1 0.1 0.2c0 0.3-0.1 1.1-0.2 1.4s-0.2 0.3-0.7 0.3h-2.1-1.3-0.7-0.8c-0.2 0-0.2 0-0.2-0.1s0-0.1 0.2-0.1h0.4c0.2 0 0.3-0.3 0.4-0.7 0.1-0.5 0.1-1.5 0.1-2.6v-2.3z"/><g fill="#fdb913"><rect class="st1" transform="matrix(.7071 -.7071 .7071 .7071 2.3607 41)" x="48.5" y="15.4" width="4.3" height="4.6"/><rect class="st2" transform="matrix(.7071 -.7071 .7071 .7071 1.4831 30.834)" x="29.6" y="11.3" width="16.6" height="4.6" stroke="#fdb913" stroke-miterlimit="10" stroke-width=".385"/><rect class="st1" transform="matrix(.7071 -.7071 .7071 .7071 -18.735 32.452)" x="27.5" y="30.2" width="4.6" height="17.2"/><rect class="st1" transform="matrix(.7071 -.7071 .7071 .7071 -15.368 23.854)" x="12.5" y="28.2" width="17.2" height="4.6"/><rect class="st1" transform="matrix(.7071 -.7071 .7071 .7071 -10.141 35.821)" x="29.6" y="27.9" width="17.2" height="4.6"/><rect class="st1" transform="matrix(.7071 -.7071 .7071 .7071 -6.7676 27.225)" x="27.2" y="13.2" width="4.6" height="17.2"/><rect class="st1" transform="matrix(.7071 -.7071 .7071 .7071 -1.5896 14.724)" x="14.7" y="7.1" width="4.6" height="4.3"/><polygon class="st1" points="37.5 9.2 34.3 12.4 29.6 7.8 16.6 20.8 13.4 17.6 29.6 1.3"/><rect class="st1" transform="matrix(.7071 -.7071 .7071 .7071 -11.756 15.605)" x="10.7" y="13.7" width="4.6" height="16.6"/><polygon class="st1" points="11.8 25.7 7.1 30.3 20.1 43.3 16.9 46.6 0.6 30.3 8.5 22.4"/><rect class="st1" transform="matrix(.7071 -.7071 .7071 .7071 -27.869 18.676)" x="6.4" y="40.7" width="4.3" height="4.6"/><rect class="st1" transform="matrix(.7071 -.7071 .7071 .7071 -26.985 28.844)" x="13" y="44.7" width="16.6" height="4.6"/><rect class="st1" transform="matrix(.7071 -.7071 .7071 .7071 -23.913 44.954)" x="40" y="49.2" width="4.6" height="4.3"/><polygon class="st1" points="21.8 51.4 25 48.2 29.6 52.8 42.6 39.8 45.9 43.1 29.6 59.3"/><rect class="st1" transform="matrix(.7071 -.7071 .7071 .7071 -13.746 44.073)" x="44" y="30.3" width="4.6" height="16.6"/><polygon class="st1" points="47.5 34.9 52.1 30.3 39.1 17.3 42.4 14.1 58.6 30.3 50.8 38.2"/></g><line class="st3" x1="192.7" x2="192.7" y1="1.3" y2="59.3" fill="none" stroke="#99999a" stroke-miterlimit="10" stroke-width="1.1551"/><g fill="#81c67c"><path class="st4" d="m253.2 32.2h-7.9v9.3h-2.6v-9.3h-28.4v-1.9l28.7-23.9h2.3v23.4h7.9zm-10.5-2.3v-20.2l-24.4 20.1h24.4z"/><path class="st4" d="m258.5 23.9c0-11.3 7.3-18.6 19.9-18.6 12.7 0 19.9 7.3 19.9 18.6s-7.3 18.6-19.9 18.6-19.9-7.3-19.9-18.6zm37.1 0c0-10.4-6.7-16.1-17.2-16.1-10.6 0-17.3 5.7-17.3 16.1s6.7 16.1 17.3 16.1c10.5 0.1 17.2-5.6 17.2-16.1z"/></g><g fill="#81c67c"><path class="st4" d="m217.1 47.3 3.1 4.1 3.1-4.1h1.6l-4 5.3v2.8h-1.4v-2.8l-4-5.3z"/><path class="st4" d="m242.3 54.2v1.2h-8.1v-8.1h7.9v1.2h-6.6v2.2h5.5v1.2h-5.5v2.3z"/><path class="st4" d="m259.2 53.4h-5.2l-1 2h-1.5l4.4-8.1h1.5l4.4 8.1h-1.5zm-0.7-1.2-2-3.7-2 3.7z"/><path class="st4" d="m278.4 55.4-2.5-2.9h-3.4v2.9h-1.4v-8.1h5.5c1.9 0 3.3 0.9 3.3 2.6 0 1.4-1 2.3-2.4 2.5l2.6 3zm-1.9-4.2c1.2 0 1.9-0.4 1.9-1.4s-0.8-1.4-1.9-1.4h-4v2.7h4z"/><path class="st4" d="m298.2 53c0 1.5-1.5 2.6-4.3 2.6-1.9 0-3.6-0.6-4.8-1.6l0.9-1c1.1 1 2.4 1.4 4 1.4 1.8 0 2.8-0.5 2.8-1.3s-1-1.1-3-1.2c-2.2-0.2-4.3-0.7-4.3-2.3s1.9-2.5 4.2-2.5c1.8 0 3.2 0.5 4.2 1.3l-0.9 0.9c-0.8-0.7-2-1.1-3.3-1.1s-2.8 0.3-2.8 1.2 1.4 1 3.1 1.1c2.4 0.3 4.2 0.8 4.2 2.5z"/></g></g></svg>
