<?xml version="1.0" encoding="utf-8"?>
<!-- Generator: Adobe Illustrator 26.0.2, SVG Export Plug-In . SVG Version: 6.00 Build 0)  -->
<svg version="1.1" id="Layer_1" xmlns="http://www.w3.org/2000/svg" xmlns:xlink="http://www.w3.org/1999/xlink" x="0px" y="0px"
	 viewBox="0 0 146.68 155.91" style="enable-background:new 0 0 146.68 155.91;" xml:space="preserve">
<style type="text/css">
	.st0{fill:#164194;}
</style>
<g>
	<path class="st0" d="M69.63,85.17c8.95,0.11,16.51-4.87,22.66-14.96v-24.1h-28.7v35.57C63.58,84.01,65.6,85.17,69.63,85.17z"/>
	<path class="st0" d="M121.96,118.6c-0.49,1.21-1.52,1.86-3.16,1.86c-6.9,0-12.91-1.89-18.03-5.68c-1.89-1.37-3.43-2.89-4.69-4.54
		l-38.37,18.89c-2.89,1.45-4.73,1.34-5.51-0.33l-4.34-9.51c-0.44-1-0.44-1.89,0-2.67c0.45-0.66,1.11-1.11,2-1.33
		c0.45,0.11,1.86,0.58,4.25,1.42c2.4,0.83,3.7,1.25,3.92,1.25l34.71-14.82c-0.32-1.44-0.49-2.95-0.49-4.54V87.91
		c-4.79,6.01-10.4,9.01-16.86,9.01c-0.78,0-6.96-2.77-18.52-8.32c-5.34-2.44-8.01-4.16-8.01-5.15c0-0.55,0.25-1.39,0.75-2.49
		c0.5-1.11,0.75-1.94,0.75-2.5V46.19H36.69h0v-9.18h-7.53v93.15h24.14h69.05v-0.48v-1.35v-9.73L121.96,118.6z"/>
</g>
</svg>
