<?xml version="1.0" encoding="utf-8"?>
<!-- Generator: Adobe Illustrator 25.0.1, SVG Export Plug-In . SVG Version: 6.00 Build 0)  -->
<svg version="1.1" id="Layer_1" xmlns="http://www.w3.org/2000/svg" xmlns:xlink="http://www.w3.org/1999/xlink" x="0px" y="0px"
	 viewBox="0 0 200 200" style="enable-background:new 0 0 200 200;" xml:space="preserve">
<style type="text/css">
	.st0{fill:#FFFFFF;stroke:#0D4F9F;stroke-width:3;stroke-miterlimit:10;}
	.st1{fill:none;stroke:#0D4F9F;stroke-width:3;stroke-miterlimit:10;}
</style>
<g>
	<path class="st0" d="M145.3,131.7l-3.3-1.5v-3.6V98.7c0-3-1.9-5.5-4.1-5.5l0,0c-2.2,0-4.1,2.5-4.1,5.5v27.9v3.6l-3.3,1.5
		c-7.5,3.4-13.1,12.4-9.3,23.1c1.7,4.6,5.1,8.1,9.6,9.8c2.4,0.9,4.7,1.3,7.1,1.3l0,0c9.9,0,17.9-8,17.9-17.9
		C155.8,141,151.7,134.6,145.3,131.7"/>
	<path class="st1" d="M153.2,123.2V38.5c0-9.2-6.8-16.7-15.2-16.7l0,0c-8.4,0-15.3,7.5-15.3,16.7v84.7
		c-11.7,7.2-16.8,21.7-11.9,35.3c2.7,7.6,8.6,13.6,16.2,16.5c3.6,1.4,7.3,2.1,11.1,2.1l0,0c16,0,29.1-13.1,29.1-29.1
		C167,137.8,161.7,128.5,153.2,123.2z"/>
	<path class="st1" d="M62.4,144.1c-6.2,2.8-12.1,6.1-17.6,10.1c11.4,11.6,26.2,19.4,42,22.4C76.5,167.3,68.3,156.4,62.4,144.1z"/>
	<path class="st1" d="M98,177.1v-41.4c-10.1,0.5-20,2.4-29.4,5.8C75.3,155.4,85.4,167.7,98,177.1z"/>
	<path class="st1" d="M52.4,104.8H22.3c1.3,16.4,7.5,31.7,18.1,44.4c6-4.4,12.5-8.2,19.4-11.2C55.5,127.5,53,116.3,52.4,104.8z"/>
	<path class="st1" d="M58.1,63.7c-7.2-3.4-13.9-7.6-20.2-12.5C27.6,64.9,22.1,81.1,22,98.2h30.1C52.2,86.3,54.2,74.7,58.1,63.7z"/>
	<path class="st1" d="M86.9,20.7c-17.3,3.2-33,12.1-44.8,25.4c5.7,4.5,11.9,8.3,18.4,11.4C66.4,43.6,75.4,30.9,86.9,20.7z"/>
	<path class="st1" d="M65.9,135.5c10.3-3.8,21-5.9,32.1-6.4v-24.3H59.1C59.7,115.4,62,125.8,65.9,135.5z"/>
	<path class="st1" d="M58.8,98.1H98V73.5c-11.7-0.5-23-2.9-33.8-7.2C60.7,76.6,58.9,87.2,58.8,98.1z"/>
	<path class="st1" d="M66.6,60.2c10,4,20.6,6.2,31.4,6.7V20.2C84,30.7,73.2,44.4,66.6,60.2z"/>
	<line class="st1" x1="160.6" y1="37.2" x2="180.1" y2="37.2"/>
	<line class="st1" x1="160.6" y1="48" x2="172.7" y2="48"/>
	<line class="st1" x1="160.6" y1="58.8" x2="180.1" y2="58.8"/>
	<line class="st1" x1="160.6" y1="69.6" x2="172.7" y2="69.6"/>
	<line class="st1" x1="160.6" y1="80.4" x2="180.1" y2="80.4"/>
	<line class="st1" x1="160.6" y1="91.2" x2="172.7" y2="91.2"/>
	<line class="st1" x1="160.6" y1="102" x2="180.1" y2="102"/>
	<line class="st1" x1="160.6" y1="112.8" x2="172.7" y2="112.8"/>
</g>
</svg>
