<?xml version="1.0" encoding="utf-8"?>
<!-- Generator: Adobe Illustrator 25.0.1, SVG Export Plug-In . SVG Version: 6.00 Build 0)  -->
<svg version="1.1" id="Layer_1" xmlns="http://www.w3.org/2000/svg" xmlns:xlink="http://www.w3.org/1999/xlink" x="0px" y="0px"
	 viewBox="0 0 200 200" style="enable-background:new 0 0 200 200;" xml:space="preserve">
<style type="text/css">
	.st0{fill:none;stroke:#0D4F9F;stroke-width:3;stroke-miterlimit:10;}
	.st1{fill:#FFFFFF;stroke:#0D4F9F;stroke-width:2;stroke-miterlimit:10;}
</style>
<path class="st0" d="M146.5,56c10.6,39.3-24.4,74.3-63.7,63.7c-17.1-4.6-30.6-18.1-35.2-35.2C37,45.2,71.9,10.2,111.3,20.8
	C128.3,25.4,141.9,38.9,146.5,56z"/>
<polygon class="st0" points="106.9,34 75.4,70.3 97.1,75.5 84.7,106.6 118.7,69.9 97.6,63.4 "/>
<path class="st1" d="M65.1,138.7c-4.5-2.4-9-4.9-13.5-7.3c-1.8-1-4.3-2-5.5-3.8s-0.9-4,1.6-4.5c1.1-0.2,2.5,0.4,3.5,0.8
	c4.8,1.8,9.3,4.5,13.8,7c3,1.6,6.3,3,9.1,4.9c3.4,2.3,6.3,5.8,8.4,9.3c4,6.7,4.4,14.1,2.4,21.6c-0.9,3.5-2.5,6.9-5,9.6
	c-2.6,2.7-5.8,4.5-9.1,6.3c0.5,0.2,1.1,0.4,1.6,0.7c-2.7-9-8.3-17.3-15.4-23.5c-3.5-3.1-7.4-5.5-11.7-7.3c-4.6-2-9.8-3.7-13.1-7.7
	c-5-6.1-4.4-15.5-6-21.9c-0.5-2.2-0.7-4.5-0.8-6.8c-0.3-7.4-2.3-15.2-2.5-22.8c-0.1-2.7,0.4-6.3,3.5-7c3.3-0.8,6.2,1.8,8.2,4
	c7.8,8.4,11.6,20.7,10.8,32c-0.1,1.4,2.1,1.4,2.2,0c0.7-10.7-2.5-21.9-8.9-30.5c-2.8-3.7-6.7-8.2-11.8-7.9c-4.4,0.3-6.2,4.3-6.3,8.2
	c-0.1,2.9,0.5,5.9,0.8,8.8c0.5,3.7,0.9,7.4,1.4,11c0.8,6.7,1.6,13.4,2.5,20.1c0.7,5.2,2,10.6,5.5,14.6c3.7,4.2,9.1,5.9,14.1,8.1
	c12.4,5.4,22.3,17.4,25.7,30.4l0,0c7.5-4,13.4-8.3,16-16.5c2.6-8.4,2.3-17.1-2.2-24.7c-2.3-3.9-5.6-7.8-9.4-10.3
	c-5-3.1-10.6-5.8-15.8-8.5c-3.5-1.8-9-5.5-13.1-4c-4.6,1.7-2.8,7.3,0.1,9.6c2.3,1.8,5.1,3,7.6,4.4c3.4,1.8,6.8,3.7,10.2,5.5
	C65.2,141.3,66.4,139.4,65.1,138.7"/>
<path class="st1" d="M130.1,140.7c5.5-3,11.3-5.7,16.6-9.1c2.9-1.8,5.8-5.8,3.1-9.1c-2.7-3.3-7.8-0.8-10.8,0.6
	c-5.8,2.7-11.4,6-17.1,9c-4.4,2.3-7.8,5.4-10.7,9.5c-5,7-6.3,15.1-4.6,23.4c0.9,4.3,2.5,8.4,5.3,11.8c3.2,3.7,7.4,5.9,11.6,8.3
	c3-11.6,11.4-22.7,21.9-28.6c5-2.8,10.8-4.1,15.4-7.7c4-3.1,6.1-7.7,7.2-12.5c1.4-6.2,1.8-12.6,2.6-18.9c0.9-7.2,1.9-14.4,2.7-21.5
	c0.5-3.9,0.5-9.1-3.5-11.3c-4.5-2.4-9.2,1.1-12.1,4.3c-8,8.8-12,21.5-11.2,33.3c0.1,1.4,2.3,1.4,2.2,0c-0.7-10,2.2-20.5,8.1-28.7
	c1.4-1.9,3-3.9,4.9-5.4c3-2.4,7.8-3.2,9.2,1.3c0.6,2.1,0.4,4.3,0.1,6.5c-0.7,6.3-1.7,12.5-2.2,18.8c-0.2,1.9-0.5,3.8-0.7,5.7
	c-1.3,6.6-1,14.5-4.1,20.9c-2.4,5.1-6.9,7.6-11.8,9.7c-4.4,1.9-8.7,3.7-12.5,6.6c-8.3,6.3-15,15.5-18,25.5c0.5-0.2,1.1-0.4,1.6-0.7
	c-5.9-3.3-10.9-6.7-13.3-13.2c-2.6-7.1-3-15.1,0.3-22c2-4.1,5-8,8.7-10.8c0.8-0.7,1.8-1.2,2.7-1.7c5.7-2.9,11.2-6.2,16.9-9
	c2.1-1,5.1-2.9,7.6-2.6c2.9,0.4,2.7,3.4,1.2,5c-0.8,0.9-1.9,1.6-3,2.2c-5.1,2.9-10.4,5.6-15.6,8.4
	C127.7,139.4,128.8,141.3,130.1,140.7"/>
</svg>
