<?xml version="1.0" encoding="utf-8"?>
<!-- Generator: Adobe Illustrator 25.0.1, SVG Export Plug-In . SVG Version: 6.00 Build 0)  -->
<svg version="1.1" id="Layer_1" xmlns="http://www.w3.org/2000/svg" xmlns:xlink="http://www.w3.org/1999/xlink" x="0px" y="0px"
	 viewBox="0 0 200 200" style="enable-background:new 0 0 200 200;" xml:space="preserve">
<style type="text/css">
	.st0{fill:none;stroke:#0D4F9F;stroke-width:3;stroke-miterlimit:10;}
</style>
<line class="st0" x1="63.3" y1="131.2" x2="63.3" y2="144"/>
<line class="st0" x1="47.4" y1="144" x2="47.4" y2="130.7"/>
<g>
	<path class="st0" d="M39.4,114.5c-3.1-11.2-2.6-19.1,1.3-22.5c1.7-1.5,3.7-1.9,5-1.9c0.9,0,1.5,0.1,1.6,0.2c0.4,0.2,1,0.2,1.4-0.1
		c0.4-0.3,11-7.9,22,1.5c0.1,0.1,0.2,0.1,0.2,0.2l3.2,1.7l0.1,3.4c0,0.1,0.4,7.3-2.5,13.3"/>
	<path class="st0" d="M41,117.5l3.7-9.7l1.5-3.6c0.3,0.2,0.7,0.5,1.1,0.7c3.1,1.9,9.6,4.7,18.4,1.4c0.4-0.2,0.8-0.3,1.2-0.5l3.1,7.1
		c0.8,7.3-1.5,13.7-6.3,17.5c-5.1,4-11.9,3.8-16.8-0.3C43.5,127.3,41.3,122.7,41,117.5z"/>
	<line class="st0" x1="72.5" y1="178.2" x2="37.4" y2="178.2"/>
	<path class="st0" d="M37.4,165.6v12.6h-11l2.4-25.4c0.7-6.2,6.7-11,13.6-11h3.2l8.6,10.6c0.2,0.3,0.6,0.5,1,0.5s0.8-0.2,1-0.5
		l9.1-10.6H68c6.9,0,12.8,4.8,13.6,11l3,25.4H72.8v-12.6"/>
	<path class="st0" d="M141.2,129.5c-5.1,3.4-11.9,3.4-17,0c-4-2.7-6.6-7-6.9-11.8c9.4-2.5,13.6-8,15.4-11.7c1.8,3.6,6,9.1,15.4,11.6
		C147.7,122.5,145.2,126.8,141.2,129.5z M139.7,130.8v14 M125.6,145.1v-14.3 M123,133.6h-12.7v-21c0-11.9,10-21.6,22.3-21.6
		s22.3,9.7,22.3,21.6v21h-12.7 M147.8,178.5h-30.9 M116.3,164.2v14.4h-12.6l2.4-25.5c0.7-6.4,6.7-11.5,13.5-11.5h3.1l8.6,11
		c0.2,0.3,0.6,0.5,1,0.5c0.5,0,0.8-0.2,1-0.5l9-11h2.7c6.8,0,12.8,5,13.5,11.5l3,25.5h-13.2v-14.4"/>
	<polyline class="st0" points="24.8,65.6 31.3,71.4 38.1,65.6 	"/>
	<line class="st0" x1="31.3" y1="71.4" x2="31.3" y2="45.3"/>
	<polyline class="st0" points="50.7,51 44.2,45.3 37.4,51 	"/>
	<line class="st0" x1="44.2" y1="45.3" x2="44.2" y2="71.4"/>
	<path class="st0" d="M103.8,54c0,12.5-10.1,22.6-22.6,22.6S58.5,66.5,58.5,54s10.1-22.6,22.6-22.6S103.8,41.5,103.8,54z"/>
	<polyline class="st0" points="62.9,65.6 81.2,54 81.2,31.3 	"/>
	<line class="st0" x1="101.3" y1="61.7" x2="81.2" y2="54"/>
	<polyline class="st0" points="68.4,41.4 58.5,28.9 38.8,28.9 	"/>
	<rect x="12.1" y="22.5" class="st0" width="26.7" height="12.6"/>
	<polyline class="st0" points="93.3,41.4 103.2,28.9 122.9,28.9 	"/>
	<rect x="122.9" y="22.5" class="st0" width="26.7" height="12.6"/>
	<polyline class="st0" points="93.3,67.7 103.2,80.2 122.9,80.2 	"/>
	<rect x="122.9" y="72.9" class="st0" width="26.7" height="12.6"/>
	<rect x="140.6" y="41.4" class="st0" width="44.5" height="25.5"/>
	<line class="st0" x1="177.6" y1="65.7" x2="177.6" y2="44.4"/>
	<line class="st0" x1="168.2" y1="65.7" x2="168.2" y2="47.3"/>
	<line class="st0" x1="158.3" y1="65.7" x2="158.3" y2="51.2"/>
	<line class="st0" x1="149" y1="65.7" x2="149" y2="56.5"/>
</g>
</svg>
