<?xml version="1.0" encoding="utf-8"?>
<!-- Generator: Adobe Illustrator 25.0.1, SVG Export Plug-In . SVG Version: 6.00 Build 0)  -->
<svg version="1.1" id="Layer_1" xmlns="http://www.w3.org/2000/svg" xmlns:xlink="http://www.w3.org/1999/xlink" x="0px" y="0px"
	 viewBox="0 0 200 200" style="enable-background:new 0 0 200 200;" xml:space="preserve">
<style type="text/css">
	.st0{fill:none;stroke:#0D4F9F;stroke-width:3;stroke-miterlimit:10;}
	.st1{fill:none;stroke:#0D4F9F;stroke-width:3;stroke-miterlimit:9.9996;}
</style>
<polyline class="st0" points="171.1,117.3 171.1,28.6 26.6,28.6 26.6,117.3 "/>
<polyline class="st0" points="53.9,85.1 83.9,59.3 98.8,70.7 119.2,53.7 133.1,63.4 161.3,34.5 "/>
<line class="st0" x1="35.4" y1="42.6" x2="47.9" y2="42.6"/>
<line class="st0" x1="35.4" y1="53" x2="65.2" y2="53"/>
<line class="st0" x1="35.4" y1="63.4" x2="53.7" y2="63.4"/>
<g>
	<ellipse class="st1" cx="98.9" cy="94.5" rx="12.9" ry="12.9"/>
	<path class="st0" d="M120.2,148.7c0-14.8-2-33.5-21.3-34.5c-19.9,0-21.3,19.7-21.3,34.5"/>
	<circle class="st0" cx="54.6" cy="122.2" r="12.9"/>
	<path class="st0" d="M75.9,176.3c0-14.8-2-33.5-21.3-34.5c-19.9,0-21.3,19.7-21.3,34.5"/>
	<circle class="st0" cx="143.2" cy="122.2" r="12.9"/>
	<path class="st0" d="M164.4,176.3c0-14.8-2-33.5-21.3-34.5c-19.9,0-21.3,19.7-21.3,34.5"/>
</g>
</svg>
