<?xml version="1.0" encoding="utf-8"?>
<!-- Generator: Adobe Illustrator 25.0.1, SVG Export Plug-In . SVG Version: 6.00 Build 0)  -->
<svg version="1.1" id="Layer_1" xmlns="http://www.w3.org/2000/svg" xmlns:xlink="http://www.w3.org/1999/xlink" x="0px" y="0px"
	 viewBox="0 0 200 200" style="enable-background:new 0 0 200 200;" xml:space="preserve">
<style type="text/css">
	.st0{fill:none;stroke:#0E50A0;stroke-width:3;stroke-miterlimit:10;}
</style>
<rect x="30.5" y="148.6" class="st0" width="23.6" height="36.4"/>
<rect x="67.5" y="129.9" class="st0" width="23.6" height="55.1"/>
<rect x="104.4" y="111.2" class="st0" width="23.6" height="73.7"/>
<rect x="141.3" y="92.5" class="st0" width="23.6" height="92.4"/>
<g>
	<path class="st0" d="M121.8,61.8l-9.1-9.1l-8.2,4.5l-2.8-2.8l13.5-15.9L122,41c0,0,20-24.8,44.7-28l4.1,4.1
		c-3.3,24.6-28,44.7-28,44.7l2.4,6.6L129.3,82l-2.8-2.8L131,71L121.8,61.8c0,0-34.8,47.3-79.5,69.2"/>
	<line class="st0" x1="148.2" y1="19.2" x2="164.5" y2="35"/>
</g>
</svg>
