<?xml version="1.0" encoding="utf-8"?>
<!-- Generator: Adobe Illustrator 25.0.1, SVG Export Plug-In . SVG Version: 6.00 Build 0)  -->
<svg version="1.1" id="Layer_1" xmlns="http://www.w3.org/2000/svg" xmlns:xlink="http://www.w3.org/1999/xlink" x="0px" y="0px"
	 viewBox="0 0 200 200" style="enable-background:new 0 0 200 200;" xml:space="preserve">
<style type="text/css">
	.st0{clip-path:url(#SVGID_2_);fill:none;stroke:#0D4F9F;stroke-width:3;stroke-miterlimit:10;}
	.st1{clip-path:url(#SVGID_4_);fill:none;stroke:#0D4F9F;stroke-width:3;stroke-miterlimit:10;}
	.st2{clip-path:url(#SVGID_6_);fill:none;stroke:#0D4F9F;stroke-width:2;stroke-miterlimit:10;}
	.st3{clip-path:url(#SVGID_8_);fill:none;stroke:#0D4F9F;stroke-width:3;stroke-miterlimit:10;}
	.st4{clip-path:url(#SVGID_10_);fill:none;stroke:#0D4F9F;stroke-width:2;stroke-miterlimit:10;}
	.st5{clip-path:url(#SVGID_12_);fill:none;stroke:#0D4F9F;stroke-width:2;stroke-miterlimit:10;}
	.st6{clip-path:url(#SVGID_14_);fill:none;stroke:#0D4F9F;stroke-width:2;stroke-miterlimit:10;}
	.st7{clip-path:url(#SVGID_16_);fill:none;stroke:#0D4F9F;stroke-width:3;stroke-miterlimit:10;}
	.st8{clip-path:url(#SVGID_18_);fill:none;stroke:#0D4F9F;stroke-width:2;stroke-miterlimit:10;}
	.st9{clip-path:url(#SVGID_20_);fill:none;stroke:#0D4F9F;stroke-width:2;stroke-miterlimit:10;}
	.st10{clip-path:url(#SVGID_22_);fill:none;stroke:#0D4F9F;stroke-width:2;stroke-miterlimit:10;}
	.st11{clip-path:url(#SVGID_24_);fill:none;stroke:#0D4F9F;stroke-width:3;stroke-miterlimit:10;}
	.st12{clip-path:url(#SVGID_26_);fill:none;stroke:#0D4F9F;stroke-width:3;stroke-miterlimit:9.9996;}
	.st13{clip-path:url(#SVGID_28_);fill:none;stroke:#0D4F9F;stroke-width:2;stroke-miterlimit:10;}
	.st14{clip-path:url(#SVGID_30_);fill:#0D4F9F;stroke:#0D4F9F;stroke-width:0.25;stroke-miterlimit:10;}
	.st15{clip-path:url(#SVGID_32_);fill:none;stroke:#0D4F9F;stroke-width:2;stroke-miterlimit:10;}
</style>
<g>
	<defs>
		<rect id="SVGID_1_" x="-65.3" y="-64.4" width="329.5" height="329.5"/>
	</defs>
	<clipPath id="SVGID_2_">
		<use xlink:href="#SVGID_1_"  style="overflow:visible;"/>
	</clipPath>
	<path class="st0" d="M18.1,183.7c-6.7-11-5.1-25.1,3.6-34.1c8.1-8.2,20.7-10.5,31.5-5.5c2.5-9,10.4-15.4,19.6-15.9
		c8.8-0.5,17,4.5,20.8,12.5c1.1-1,6.9-5.9,15.5-5.5c8.2,0.4,13.2,5.4,14.3,6.5c12-11.4,29.6-14,43-6.7c16.1,8.7,23.3,30,15,48.6
		L18.1,183.7L18.1,183.7z"/>
</g>
<g>
	<defs>
		<rect id="SVGID_3_" x="-65.3" y="-64.4" width="329.5" height="329.5"/>
	</defs>
	<clipPath id="SVGID_4_">
		<use xlink:href="#SVGID_3_"  style="overflow:visible;"/>
	</clipPath>
	<line class="st1" x1="99.9" y1="53.9" x2="99.9" y2="136.5"/>
</g>
<g>
	<defs>
		<rect id="SVGID_5_" x="-65.3" y="-64.4" width="329.5" height="329.5"/>
	</defs>
	<clipPath id="SVGID_6_">
		<use xlink:href="#SVGID_5_"  style="overflow:visible;"/>
	</clipPath>
	<line class="st2" x1="14" y1="164.7" x2="137.1" y2="164.7"/>
</g>
<g>
	<defs>
		<rect id="SVGID_7_" x="-65.3" y="-64.4" width="329.5" height="329.5"/>
	</defs>
	<clipPath id="SVGID_8_">
		<use xlink:href="#SVGID_7_"  style="overflow:visible;"/>
	</clipPath>
	<path class="st3" d="M100.8,113.8c-2.3-20.8,7.7-40.2,24.3-48.1c16.1-7.7,32-1.6,35.2-0.4l0,0c2.3,20.8-7.7,40.2-24.3,48.1
		C119.9,121.1,104,115.1,100.8,113.8L100.8,113.8z"/>
</g>
<g>
	<defs>
		<rect id="SVGID_9_" x="-65.3" y="-64.4" width="329.5" height="329.5"/>
	</defs>
	<clipPath id="SVGID_10_">
		<use xlink:href="#SVGID_9_"  style="overflow:visible;"/>
	</clipPath>
	<polyline class="st4" points="101.9,113.9 112.2,105.1 126.7,92.5 142.5,78.9 	"/>
</g>
<g>
	<defs>
		<rect id="SVGID_11_" x="-65.3" y="-64.4" width="329.5" height="329.5"/>
	</defs>
	<clipPath id="SVGID_12_">
		<use xlink:href="#SVGID_11_"  style="overflow:visible;"/>
	</clipPath>
	<line class="st5" x1="133.7" y1="104.1" x2="112.2" y2="105.1"/>
</g>
<g>
	<defs>
		<rect id="SVGID_13_" x="-65.3" y="-64.4" width="329.5" height="329.5"/>
	</defs>
	<clipPath id="SVGID_14_">
		<use xlink:href="#SVGID_13_"  style="overflow:visible;"/>
	</clipPath>
	<line class="st6" x1="126.8" y1="70.8" x2="126.7" y2="92.5"/>
</g>
<g>
	<defs>
		<rect id="SVGID_15_" x="-65.3" y="-64.4" width="329.5" height="329.5"/>
	</defs>
	<clipPath id="SVGID_16_">
		<use xlink:href="#SVGID_15_"  style="overflow:visible;"/>
	</clipPath>
	<path class="st7" d="M98.6,114.1c-14.3,3.1-28.4-2.4-35.1-13.4C57,90.1,60,78.6,60.7,76.3l0,0c14.3-3.1,28.4,2.4,35.1,13.4
		C102.3,100.3,99.2,111.8,98.6,114.1L98.6,114.1z"/>
</g>
<g>
	<defs>
		<rect id="SVGID_17_" x="-65.3" y="-64.4" width="329.5" height="329.5"/>
	</defs>
	<clipPath id="SVGID_18_">
		<use xlink:href="#SVGID_17_"  style="overflow:visible;"/>
	</clipPath>
	<polyline class="st8" points="98.6,113.3 91.7,106.8 81.9,97.7 71.4,87.7 	"/>
</g>
<g>
	<defs>
		<rect id="SVGID_19_" x="-65.3" y="-64.4" width="329.5" height="329.5"/>
	</defs>
	<clipPath id="SVGID_20_">
		<use xlink:href="#SVGID_19_"  style="overflow:visible;"/>
	</clipPath>
	<line class="st9" x1="89.5" y1="92" x2="91.7" y2="106.8"/>
</g>
<g>
	<defs>
		<rect id="SVGID_21_" x="-65.3" y="-64.4" width="329.5" height="329.5"/>
	</defs>
	<clipPath id="SVGID_22_">
		<use xlink:href="#SVGID_21_"  style="overflow:visible;"/>
	</clipPath>
	<line class="st10" x1="66.9" y1="99.2" x2="81.9" y2="97.7"/>
</g>
<g>
	<defs>
		<rect id="SVGID_23_" x="-65.3" y="-64.4" width="329.5" height="329.5"/>
	</defs>
	<clipPath id="SVGID_24_">
		<use xlink:href="#SVGID_23_"  style="overflow:visible;"/>
	</clipPath>
	<path class="st11" d="M50.9,59.3c0,2.7-2.2,4.9-4.9,4.9s-4.9-2.2-4.9-4.9s2.2-4.9,4.9-4.9C48.7,54.5,50.9,56.7,50.9,59.3z"/>
</g>
<g>
	<defs>
		
			<rect id="SVGID_25_" x="36.7" y="-62.2" transform="matrix(0.2298 -0.9732 0.9732 0.2298 55.3589 275.0968)" width="329.5" height="329.5"/>
	</defs>
	<clipPath id="SVGID_26_">
		<use xlink:href="#SVGID_25_"  style="overflow:visible;"/>
	</clipPath>
	<ellipse class="st12" cx="151.9" cy="37" rx="5.8" ry="5.8"/>
</g>
<g>
	<defs>
		<rect id="SVGID_27_" x="-65.3" y="-64.4" width="329.5" height="329.5"/>
	</defs>
	<clipPath id="SVGID_28_">
		<use xlink:href="#SVGID_27_"  style="overflow:visible;"/>
	</clipPath>
	<path class="st13" d="M118.1,35.2c0,10.1-8.2,18.3-18.3,18.3s-18.3-8.2-18.3-18.3s8.2-18.3,18.3-18.3
		C109.9,16.9,118.1,25.1,118.1,35.2z"/>
</g>
<g>
	<defs>
		<rect id="SVGID_29_" x="-65.3" y="-64.4" width="329.5" height="329.5"/>
	</defs>
	<clipPath id="SVGID_30_">
		<use xlink:href="#SVGID_29_"  style="overflow:visible;"/>
	</clipPath>
	<path class="st14" d="M99.9,45.6c-2.4,0-4.2-0.6-5.7-1.8C92.8,42.6,92,41,91.9,39H95c0.1,1.2,0.6,2,1.5,2.7c0.9,0.6,2.1,1,3.5,1
		s2.5-0.3,3.4-0.8c0.9-0.6,1.3-1.3,1.3-2.3c0-0.4-0.1-0.7-0.2-1s-0.3-0.6-0.6-0.8c-0.3-0.2-0.5-0.4-0.8-0.5s-0.6-0.3-1.1-0.4
		c-0.5-0.1-0.9-0.2-1.2-0.3c-0.3-0.1-0.8-0.1-1.3-0.2c-0.4-0.1-0.8-0.1-1-0.2c-0.2,0-0.6-0.1-1-0.2c-0.4-0.1-0.8-0.2-1-0.3
		c-0.3-0.1-0.6-0.2-0.9-0.3c-0.4-0.1-0.7-0.3-0.9-0.4s-0.5-0.3-0.7-0.5c-0.3-0.2-0.5-0.4-0.7-0.7S93,33.3,92.8,33s-0.3-0.6-0.3-1
		c-0.1-0.4-0.1-0.8-0.1-1.2c0-1.7,0.7-3.1,2.1-4.2s3.2-1.6,5.4-1.6c2.2,0,4,0.6,5.4,1.7s2.1,2.6,2.1,4.5h-3
		c-0.1-1.1-0.5-1.9-1.3-2.5s-1.9-0.9-3.3-0.9c-1.3,0-2.4,0.3-3.2,0.8c-0.8,0.5-1.2,1.2-1.2,2.1c0,0.3,0.1,0.6,0.2,0.9
		s0.3,0.5,0.5,0.7c0.3,0.2,0.5,0.4,0.8,0.5s0.6,0.3,1,0.4c0.4,0.1,0.8,0.2,1.1,0.3c0.3,0.1,0.7,0.1,1.3,0.2c2,0.3,3.4,0.7,4.2,1
		c2,0.8,3,2.3,3.2,4.4c0,0.2,0,0.5,0,0.7c0,1.9-0.7,3.3-2.2,4.5C104.2,45,102.3,45.6,99.9,45.6"/>
</g>
<g>
	<defs>
		<rect id="SVGID_31_" x="-65.3" y="-64.4" width="329.5" height="329.5"/>
	</defs>
	<clipPath id="SVGID_32_">
		<use xlink:href="#SVGID_31_"  style="overflow:visible;"/>
	</clipPath>
	<line class="st15" x1="99.9" y1="21.4" x2="99.9" y2="49"/>
</g>
</svg>
