<?xml version="1.0" encoding="utf-8"?>
<!-- Generator: Adobe Illustrator 25.0.1, SVG Export Plug-In . SVG Version: 6.00 Build 0)  -->
<svg version="1.1" id="Layer_1" xmlns="http://www.w3.org/2000/svg" xmlns:xlink="http://www.w3.org/1999/xlink" x="0px" y="0px"
	 viewBox="0 0 200 200" style="enable-background:new 0 0 200 200;" xml:space="preserve">
<style type="text/css">
	.st0{clip-path:url(#SVGID_2_);fill:none;stroke:#0E509E;stroke-width:3;stroke-miterlimit:10;}
	.st1{clip-path:url(#SVGID_4_);fill:none;stroke:#0E509E;stroke-width:3;stroke-miterlimit:10;}
	.st2{clip-path:url(#SVGID_6_);fill:none;stroke:#0E509E;stroke-width:3;stroke-miterlimit:10;}
	.st3{clip-path:url(#SVGID_8_);fill:none;stroke:#0E509E;stroke-width:3;stroke-miterlimit:10;}
	.st4{clip-path:url(#SVGID_10_);fill:none;stroke:#0E509E;stroke-width:3;stroke-miterlimit:10;}
	.st5{clip-path:url(#SVGID_12_);fill:none;stroke:#0E509E;stroke-width:3;stroke-miterlimit:10;}
	.st6{clip-path:url(#SVGID_14_);fill:none;stroke:#0E509E;stroke-width:3;stroke-miterlimit:10;}
	.st7{clip-path:url(#SVGID_16_);fill:none;stroke:#0E509E;stroke-width:3;stroke-miterlimit:10;}
	.st8{clip-path:url(#SVGID_18_);fill:none;stroke:#0E509E;stroke-width:3;stroke-miterlimit:10;}
	.st9{clip-path:url(#SVGID_20_);fill:none;stroke:#0E509E;stroke-width:3;stroke-miterlimit:10;}
	.st10{clip-path:url(#SVGID_22_);fill:none;stroke:#0E509E;stroke-width:3;stroke-miterlimit:10;}
	.st11{clip-path:url(#SVGID_24_);fill:none;stroke:#0E509E;stroke-width:3;stroke-miterlimit:10;}
	.st12{clip-path:url(#SVGID_26_);fill:none;stroke:#0E509E;stroke-width:3;stroke-miterlimit:10;}
	.st13{clip-path:url(#SVGID_28_);fill:none;stroke:#0E509E;stroke-width:3;stroke-miterlimit:10;}
</style>
<g>
	<defs>
		<rect id="SVGID_1_" x="-81.5" y="-80.6" width="360.6" height="360.6"/>
	</defs>
	<clipPath id="SVGID_2_">
		<use xlink:href="#SVGID_1_"  style="overflow:visible;"/>
	</clipPath>
	<path class="st0" d="M79.5,193.6h-8.8c-0.7,0-1.4-0.5-1.5-1.3l-2.4-15.9c-2.6-0.4-5-1.1-7.4-2L49.3,187c-0.5,0.6-1.3,0.7-2,0.4
		l-7.7-4.4c-0.6-0.4-0.9-1.2-0.6-2l5.9-15c-2-1.6-3.8-3.5-5.4-5.4l-15,5.9c-0.7,0.3-1.5,0-1.9-0.6l-4.4-7.6c-0.4-0.6-0.2-1.5,0.4-2
		l12.6-10.1c-0.8-2.4-1.5-4.8-2-7.4l-15.9-2.4c-0.7-0.1-1.3-0.7-1.3-1.5V126c0-0.7,0.5-1.4,1.3-1.5l15.9-2.4c0.4-2.6,1.1-5,2-7.4
		l-12.6-10.1c-0.6-0.5-0.7-1.3-0.4-2l4.4-7.7c0.4-0.6,1.2-0.9,1.9-0.6l15,5.9c1.6-2,3.5-3.8,5.4-5.4l-5.9-15c-0.3-0.7,0-1.5,0.6-1.9
		l7.7-4.4c0.6-0.4,1.5-0.2,2,0.4l10.1,12.6c2.4-0.8,4.8-1.5,7.4-2l2.4-15.9c0.1-0.7,0.7-1.3,1.5-1.3h8.8c0.7,0,1.4,0.5,1.5,1.3
		l2.4,15.9c2.6,0.4,5,1.1,7.4,2l10.1-12.6c0.5-0.6,1.3-0.7,2-0.4l7.7,4.4c0.6,0.4,0.9,1.2,0.6,1.9l-5.9,15c2,1.6,3.8,3.5,5.4,5.4
		l15-5.9c0.7-0.3,1.5,0,2,0.6l4.4,7.7c0.4,0.6,0.2,1.5-0.4,2l-12.6,10.1c0.8,2.5,1.5,4.9,2,7.4l15.9,2.4c0.7,0.1,1.3,0.7,1.3,1.5
		v8.8c0,0.7-0.5,1.4-1.3,1.5l-15.9,2.4c-0.4,2.5-1.1,4.9-2,7.4l12.6,10.1c0.6,0.5,0.7,1.3,0.4,2l-4.4,7.7c-0.4,0.6-1.2,0.9-1.9,0.6
		l-15-5.9c-1.6,2-3.4,3.7-5.4,5.4l5.9,15c0.3,0.7,0,1.5-0.7,1.9l-7.7,4.4c-0.6,0.4-1.5,0.2-2-0.4l-10.1-12.6c-2.4,0.8-4.9,1.5-7.4,2
		L81,192.2C80.9,192.9,80.2,193.6,79.5,193.6z M75.1,109.3c-11.6,0-21.1,9.5-21.1,21.1s9.5,21.1,21.1,21.1s21.1-9.5,21.1-21.1
		S86.7,109.3,75.1,109.3z"/>
</g>
<g>
	<defs>
		<rect id="SVGID_3_" x="-81.5" y="-80.6" width="360.6" height="360.6"/>
	</defs>
	<clipPath id="SVGID_4_">
		<use xlink:href="#SVGID_3_"  style="overflow:visible;"/>
	</clipPath>
	<path class="st1" d="M75.1,100c-2.2,0-3.9-1.7-3.9-3.9c0-2.2,1.7-3.8,3.9-3.8c2.2,0,3.9,1.7,3.9,3.8C78.9,98.3,77.1,100,75.1,100z"
		/>
</g>
<g>
	<defs>
		<rect id="SVGID_5_" x="-81.5" y="-80.6" width="360.6" height="360.6"/>
	</defs>
	<clipPath id="SVGID_6_">
		<use xlink:href="#SVGID_5_"  style="overflow:visible;"/>
	</clipPath>
	<path class="st2" d="M92.1,104.6c-0.7,0-1.3-0.2-2-0.5c-0.9-0.5-1.5-1.3-1.7-2.4c-0.3-1-0.1-2.1,0.4-2.9c1-1.7,3.5-2.5,5.2-1.3
		c0.9,0.5,1.5,1.3,1.7,2.4c0.3,1,0.1,2.1-0.4,3C94.8,103.9,93.5,104.6,92.1,104.6z"/>
</g>
<g>
	<defs>
		<rect id="SVGID_7_" x="-81.5" y="-80.6" width="360.6" height="360.6"/>
	</defs>
	<clipPath id="SVGID_8_">
		<use xlink:href="#SVGID_7_"  style="overflow:visible;"/>
	</clipPath>
	<path class="st3" d="M104.7,117.1c-1.3,0-2.7-0.7-3.4-2c-0.5-0.9-0.6-2-0.4-2.9c0.3-1,0.9-1.9,1.7-2.4c1.7-1,4.2-0.4,5.2,1.4
		c0.5,0.9,0.6,2,0.4,2.9c-0.3,1-0.9,1.9-1.9,2.4C106,117,105.3,117.1,104.7,117.1z"/>
</g>
<g>
	<defs>
		<rect id="SVGID_9_" x="-81.5" y="-80.6" width="360.6" height="360.6"/>
	</defs>
	<clipPath id="SVGID_10_">
		<use xlink:href="#SVGID_9_"  style="overflow:visible;"/>
	</clipPath>
	<path class="st4" d="M109.2,134.1c-2.2,0-3.9-1.7-3.9-3.9c0-2.2,1.7-3.8,3.9-3.8c2.2,0,3.9,1.7,3.9,3.8
		C113.1,132.5,111.3,134.1,109.2,134.1z"/>
</g>
<g>
	<defs>
		<rect id="SVGID_11_" x="-81.5" y="-80.6" width="360.6" height="360.6"/>
	</defs>
	<clipPath id="SVGID_12_">
		<use xlink:href="#SVGID_11_"  style="overflow:visible;"/>
	</clipPath>
	<path class="st5" d="M104.6,151.3c-0.7,0-1.3-0.2-2-0.5c-1.9-1-2.5-3.4-1.4-5.2c1-1.7,3.5-2.5,5.2-1.4c0.9,0.5,1.5,1.3,1.9,2.4
		c0.3,1,0.1,2.1-0.4,3C107.2,150.5,106,151.3,104.6,151.3z"/>
</g>
<g>
	<defs>
		<rect id="SVGID_13_" x="-81.5" y="-80.6" width="360.6" height="360.6"/>
	</defs>
	<clipPath id="SVGID_14_">
		<use xlink:href="#SVGID_13_"  style="overflow:visible;"/>
	</clipPath>
	<path class="st6" d="M92.1,163.7c-1.3,0-2.7-0.7-3.3-2c-1-1.9-0.4-4.2,1.4-5.2c1.7-1,4.2-0.4,5.2,1.4c0.5,0.9,0.6,2,0.4,2.9
		c-0.3,1-0.9,1.9-1.9,2.4C93.5,163.6,92.8,163.7,92.1,163.7z"/>
</g>
<g>
	<defs>
		<rect id="SVGID_15_" x="-81.5" y="-80.6" width="360.6" height="360.6"/>
	</defs>
	<clipPath id="SVGID_16_">
		<use xlink:href="#SVGID_15_"  style="overflow:visible;"/>
	</clipPath>
	<path class="st7" d="M75.1,168.4c-2.2,0-3.9-1.7-3.9-3.9c0-2.2,1.7-3.8,3.9-3.8c2.2,0,3.9,1.7,3.9,3.8
		C78.9,166.6,77.1,168.4,75.1,168.4z"/>
</g>
<g>
	<defs>
		<rect id="SVGID_17_" x="-81.5" y="-80.6" width="360.6" height="360.6"/>
	</defs>
	<clipPath id="SVGID_18_">
		<use xlink:href="#SVGID_17_"  style="overflow:visible;"/>
	</clipPath>
	<path class="st8" d="M58,163.7c-0.7,0-1.3-0.2-2-0.5c-0.9-0.5-1.5-1.3-1.7-2.4c-0.3-1-0.1-2.1,0.4-3c1-1.7,3.5-2.5,5.2-1.4
		c0.9,0.5,1.5,1.3,1.9,2.4s0.1,2.1-0.4,2.9C60.6,163,59.3,163.7,58,163.7z"/>
</g>
<g>
	<defs>
		<rect id="SVGID_19_" x="-81.5" y="-80.6" width="360.6" height="360.6"/>
	</defs>
	<clipPath id="SVGID_20_">
		<use xlink:href="#SVGID_19_"  style="overflow:visible;"/>
	</clipPath>
	<path class="st9" d="M45.5,151.3c-1.3,0-2.7-0.7-3.3-2c-0.5-0.9-0.6-2-0.4-3c0.3-1,0.9-1.9,1.9-2.4c1.7-1,4.2-0.4,5.2,1.4
		c1,1.9,0.4,4.2-1.4,5.2C46.8,151.1,46.2,151.3,45.5,151.3z"/>
</g>
<g>
	<defs>
		<rect id="SVGID_21_" x="-81.5" y="-80.6" width="360.6" height="360.6"/>
	</defs>
	<clipPath id="SVGID_22_">
		<use xlink:href="#SVGID_21_"  style="overflow:visible;"/>
	</clipPath>
	<path class="st10" d="M40.8,134.1c-2.2,0-3.9-1.7-3.9-3.9c0-2.2,1.7-3.8,3.9-3.8s3.9,1.7,3.9,3.8C44.7,132.5,43,134.1,40.8,134.1z"
		/>
</g>
<g>
	<defs>
		<rect id="SVGID_23_" x="-81.5" y="-80.6" width="360.6" height="360.6"/>
	</defs>
	<clipPath id="SVGID_24_">
		<use xlink:href="#SVGID_23_"  style="overflow:visible;"/>
	</clipPath>
	<path class="st11" d="M45.5,117.1c-0.7,0-1.3-0.2-2-0.5c-0.9-0.5-1.5-1.3-1.7-2.4c-0.3-1-0.1-2.1,0.4-3c1-1.7,3.5-2.5,5.2-1.4
		c0.9,0.5,1.5,1.3,1.7,2.4c0.3,1,0.1,2.1-0.4,3C48.1,116.4,46.8,117.1,45.5,117.1z"/>
</g>
<g>
	<defs>
		<rect id="SVGID_25_" x="-81.5" y="-80.6" width="360.6" height="360.6"/>
	</defs>
	<clipPath id="SVGID_26_">
		<use xlink:href="#SVGID_25_"  style="overflow:visible;"/>
	</clipPath>
	<path class="st12" d="M58,104.6c-1.3,0-2.7-0.7-3.3-2c-0.5-0.9-0.6-2-0.4-3c0.3-1,0.9-1.9,1.9-2.3c1.7-1,4.2-0.4,5.2,1.4
		c0.5,0.9,0.6,2,0.4,2.9c-0.3,1-0.9,1.9-1.9,2.4C59.3,104.4,58.6,104.6,58,104.6z"/>
</g>
<g>
	<defs>
		<rect id="SVGID_27_" x="-81.5" y="-80.6" width="360.6" height="360.6"/>
	</defs>
	<clipPath id="SVGID_28_">
		<use xlink:href="#SVGID_27_"  style="overflow:visible;"/>
	</clipPath>
	<path class="st13" d="M146.8,89.4H141c-0.7,0-1.4-0.5-1.5-1.3L138,78c-1.4-0.3-2.8-0.6-4.2-1.1l-6.3,7.9c-0.5,0.6-1.3,0.7-2,0.4
		l-5-2.9c-0.6-0.4-0.9-1.2-0.6-2l3.7-9.5c-1-0.9-2.1-2-3.1-3.1l-9.5,3.7c-0.7,0.3-1.5,0-2-0.7l-2.9-5c-0.4-0.6-0.2-1.5,0.4-2
		l7.9-6.4c-0.5-1.3-0.8-2.8-1.1-4.2l-10.1-1.5c-0.7-0.1-1.3-0.7-1.3-1.5v-5.8c0-0.7,0.5-1.4,1.3-1.5l10.1-1.5
		c0.3-1.4,0.6-2.9,1.1-4.2l-7.9-6.4c-0.6-0.5-0.7-1.3-0.4-2l2.9-5c0.4-0.6,1.2-0.9,2-0.6l9.5,3.7c0.9-1.1,2-2.2,3.1-3.1l-3.7-9.5
		c-0.3-0.7,0-1.5,0.6-2l5-2.9c0.6-0.4,1.5-0.2,2,0.4l6.3,7.9c1.3-0.5,2.8-0.8,4.2-1.1l1.5-10.1c0.1-0.7,0.7-1.3,1.5-1.3h5.8
		c0.7,0,1.4,0.5,1.5,1.3l1.5,10.1c1.4,0.3,2.8,0.6,4.2,1.1l6.4-7.9c0.5-0.6,1.3-0.7,2-0.4l5,2.9c0.6,0.4,0.9,1.2,0.6,1.9l-3.7,9.5
		c1,0.9,2.1,2,3.1,3.1l9.5-3.7c0.7-0.3,1.5,0,1.9,0.6l2.9,5c0.4,0.6,0.2,1.5-0.4,2l-7.9,6.3c0.5,1.3,0.8,2.8,1.1,4.2l10.1,1.5
		c0.7,0.1,1.3,0.7,1.3,1.5v5.8c0,0.7-0.5,1.4-1.3,1.5L174.5,53c-0.3,1.4-0.6,2.9-1.1,4.2l7.9,6.8c0.6,0.5,0.7,1.3,0.4,2l-2.9,5
		c-0.4,0.6-1.2,0.9-1.9,0.6l-9.5-3.7c-0.9,1.1-2,2.2-3.1,3.1l3.7,9.5c0.3,0.7,0,1.5-0.6,1.9l-5,2.9c-0.6,0.4-1.5,0.2-2-0.4l-6.4-7.9
		c-1.3,0.5-2.8,0.8-4.2,1.1l-1.5,10.1C148.2,88.8,147.6,89.4,146.8,89.4z M143.9,63.9c-9,0-16.3-7.3-16.3-16.3s7.3-16.3,16.3-16.3
		c9,0,16.3,7.3,16.3,16.3C160.3,56.6,153,63.9,143.9,63.9z"/>
</g>
</svg>
